<?xml version="1.0" standalone="no"?>
<!DOCTYPE svg PUBLIC "-//W3C//DTD SVG 1.1//EN" "http://www.w3.org/Graphics/SVG/1.1/DTD/svg11.dtd" >
<svg xmlns="http://www.w3.org/2000/svg" xmlns:xlink="http://www.w3.org/1999/xlink" version="1.1">
<metadata>
Created by FontForge 20190801 at Thu Nov 28 22:24:39 2019
 By Jimmy Wärting
Copyright 2010 The Josefin Sans Project Authors (https://github.com/ThomasJockin/JosefinSansFont-master), with Reserved Font Name "Josefin Sans".
</metadata>
<defs>
<font id="JosefinSans-ExtraLight" horiz-adv-x="0" >
  <font-face 
    font-family="Josefin Sans ExtraLight"
    font-weight="250"
    font-stretch="normal"
    units-per-em="1000"
    panose-1="0 0 0 0 0 0 0 0 0 0"
    ascent="750"
    descent="-250"
    x-height="385"
    cap-height="706"
    bbox="-70 -234 1373 1108"
    underline-thickness="50"
    underline-position="-125"
    unicode-range="U+000D-FB02"
  />
<missing-glyph horiz-adv-x="300" 
 />
    <glyph glyph-name="f_f" unicode="ff" horiz-adv-x="592" 
d="M115 0v352h-67v31h67v203q0 95 30 135t90 40q12 0 25 -3t24 -9l-14 -24q-6 4 -14 6t-19 2q-45 0 -66.5 -31.5t-21.5 -113.5v-205h130v-31h-130v-352h-34zM400 0v352h-67v31h67v203q0 95 30 135t90 40q12 0 25 -3t24 -9l-14 -24q-6 4 -14 6t-19 2q-45 0 -66.5 -31.5
t-21.5 -113.5v-205h130v-31h-130v-352h-34z" />
    <glyph glyph-name="f_f_i" unicode="ffi" horiz-adv-x="808" 
d="M115 0v352h-67v31h67v203q0 95 30 135t90 40q12 0 25 -3t24 -9l-14 -24q-6 4 -14 6t-19 2q-45 0 -66.5 -31.5t-21.5 -113.5v-205h130v-31h-130v-352h-34zM400 0v352h-67v31h67v203q0 95 30 135t90 40q12 0 25 -3t24 -9l-14 -24q-6 4 -14 6t-19 2q-45 0 -66.5 -31.5
t-21.5 -113.5v-205h130v-31h-130v-352h-34zM683 385h34v-385h-34v385zM672 517q0 11 9 19t21 8q11 0 19.5 -8t8.5 -19q0 -12 -8.5 -20t-19.5 -8q-12 0 -21 8t-9 20z" />
    <glyph glyph-name="f_f_l" unicode="ffl" horiz-adv-x="808" 
d="M115 0v352h-67v31h67v203q0 95 30 135t90 40q12 0 25 -3t24 -9l-14 -24q-6 4 -14 6t-19 2q-45 0 -66.5 -31.5t-21.5 -113.5v-205h130v-31h-130v-352h-34zM400 0v352h-67v31h67v203q0 95 30 135t90 40q12 0 25 -3t24 -9l-14 -24q-6 4 -14 6t-19 2q-45 0 -66.5 -31.5
t-21.5 -113.5v-205h130v-31h-130v-352h-34zM683 756h34v-756h-34v756z" />
    <glyph glyph-name="fi" unicode="fi" horiz-adv-x="510" 
d="M115 0v352h-67v31h67v203q0 95 30 135t90 40q12 0 25 -3t24 -9l-14 -24q-6 4 -14 6t-19 2q-45 0 -66.5 -31.5t-21.5 -113.5v-205h127v-31h-127v-352h-34zM386 385h33v-385h-33v385zM375 516q0 12 8.5 20t19.5 8q12 0 20.5 -8.5t8.5 -19.5q0 -12 -8.5 -20t-20.5 -8
q-11 0 -19.5 8.5t-8.5 19.5z" />
    <glyph glyph-name="fl" unicode="fl" horiz-adv-x="510" 
d="M115 0v352h-67v31h67v203q0 95 30 135t90 40q12 0 25 -3t24 -9l-14 -24q-6 4 -14 6t-19 2q-45 0 -66.5 -31.5t-21.5 -113.5v-205h127v-31h-127v-352h-34zM386 756h33v-756h-33v756z" />
    <glyph glyph-name=".notdef" horiz-adv-x="300" 
 />
    <glyph glyph-name="A" unicode="A" horiz-adv-x="707" 
d="M57 0l295 738h3l296 -738h-39l-268 682l24 11l-276 -693h-35zM190 281h329l8 -32h-344z" />
    <glyph glyph-name="Aacute" unicode="&#xc1;" horiz-adv-x="707" 
d="M57 0l295 738h3l296 -738h-39l-268 682l24 11l-276 -693h-35zM190 281h329l8 -32h-344zM468 882l-99 -133h-27l88 133h38z" />
    <glyph glyph-name="Abreve" unicode="&#x102;" horiz-adv-x="707" 
d="M57 0l295 738h3l296 -738h-39l-268 682l24 11l-276 -693h-35zM190 281h329l8 -32h-344zM356 761q-36 0 -64.5 20.5t-45.5 57.5t-20 84h26q2 -36 15.5 -67t36.5 -49.5t52 -18.5q30 0 52 18.5t35 49.5t15 67h26q-1 -48 -18.5 -84.5t-45.5 -57t-64 -20.5z" />
    <glyph glyph-name="uni1EAE" unicode="&#x1eae;" horiz-adv-x="707" 
d="M57 0l295 738h3l296 -738h-39l-268 682l24 11l-276 -693h-35zM190 281h329l8 -32h-344zM356 761q-36 0 -64.5 20.5t-45.5 57.5t-20 84h26q2 -36 15.5 -67t36.5 -49.5t52 -18.5q30 0 52 18.5t35 49.5t15 67h26q-1 -48 -18.5 -84.5t-45.5 -57t-64 -20.5zM467 1095l-99 -133
h-27l88 133h38z" />
    <glyph glyph-name="uni1EB6" unicode="&#x1eb6;" horiz-adv-x="707" 
d="M57 0l295 738h3l296 -738h-39l-268 682l24 11l-276 -693h-35zM190 281h329l8 -32h-344zM324 -82q0 11 9 19t21 8q11 0 19.5 -8t8.5 -19q0 -12 -8.5 -20t-19.5 -8q-12 0 -21 8t-9 20zM356 761q-36 0 -64.5 20.5t-45.5 57.5t-20 84h26q2 -36 15.5 -67t36.5 -49.5t52 -18.5
q30 0 52 18.5t35 49.5t15 67h26q-1 -48 -18.5 -84.5t-45.5 -57t-64 -20.5z" />
    <glyph glyph-name="uni1EB0" unicode="&#x1eb0;" horiz-adv-x="707" 
d="M57 0l295 738h3l296 -738h-39l-268 682l24 11l-276 -693h-35zM190 281h329l8 -32h-344zM356 761q-36 0 -64.5 20.5t-45.5 57.5t-20 84h26q2 -36 15.5 -67t36.5 -49.5t52 -18.5q30 0 52 18.5t35 49.5t15 67h26q-1 -48 -18.5 -84.5t-45.5 -57t-64 -20.5zM247 1105h37
l86 -133h-26z" />
    <glyph glyph-name="uni1EB2" unicode="&#x1eb2;" horiz-adv-x="707" 
d="M57 0l295 738h3l296 -738h-39l-268 682l24 11l-276 -693h-35zM190 281h329l8 -32h-344zM356 761q-36 0 -64.5 20.5t-45.5 57.5t-20 84h26q2 -36 15.5 -67t36.5 -49.5t52 -18.5q30 0 52 18.5t35 49.5t15 67h26q-1 -48 -18.5 -84.5t-45.5 -57t-64 -20.5zM354 970
q22 19 37 34.5t15 35.5q0 19 -10 30.5t-29 11.5q-18 0 -30 -8.5t-26 -27.5l-17 12q16 25 34.5 37t41.5 12q17 0 30.5 -7t22 -21t8.5 -37q0 -29 -18.5 -48.5t-44.5 -39.5z" />
    <glyph glyph-name="uni1EB4" unicode="&#x1eb4;" horiz-adv-x="707" 
d="M57 0l295 738h3l296 -738h-39l-268 682l24 11l-276 -693h-35zM190 281h329l8 -32h-344zM356 761q-36 0 -64.5 20.5t-45.5 57.5t-20 84h26q2 -36 15.5 -67t36.5 -49.5t52 -18.5q30 0 52 18.5t35 49.5t15 67h26q-1 -48 -18.5 -84.5t-45.5 -57t-64 -20.5zM425 991
q-29 0 -46.5 14t-33.5 32q-13 14 -26.5 26t-33.5 12q-11 0 -23.5 -8t-21.5 -27.5t-10 -54.5l-23 2q0 39 11 64.5t29 38.5t39 13q28 0 45.5 -15t31.5 -31q13 -16 27.5 -28t34.5 -12t35 19.5t18 71.5l23 -2q0 -39 -10.5 -65t-27.5 -38t-38 -12z" />
    <glyph glyph-name="Acircumflex" unicode="&#xc2;" horiz-adv-x="707" 
d="M57 0l295 738h3l296 -738h-39l-268 682l24 11l-276 -693h-35zM190 281h329l8 -32h-344zM460 774l-114 129l17 2l-115 -131h-34l139 156h1l140 -156h-34z" />
    <glyph glyph-name="uni1EA4" unicode="&#x1ea4;" horiz-adv-x="707" 
d="M57 0l295 738h3l296 -738h-39l-268 682l24 11l-276 -693h-35zM190 281h329l8 -32h-344zM458 797l-114 129l17 2l-115 -131h-34l139 156h1l140 -156h-34zM571 1017l-99 -133h-27l88 133h38z" />
    <glyph glyph-name="uni1EAC" unicode="&#x1eac;" horiz-adv-x="707" 
d="M57 0l295 738h3l296 -738h-39l-268 682l24 11l-276 -693h-35zM190 281h329l8 -32h-344zM324 -82q0 11 9 19t21 8q11 0 19.5 -8t8.5 -19q0 -12 -8.5 -20t-19.5 -8q-12 0 -21 8t-9 20zM460 774l-114 129l17 2l-115 -131h-34l139 156h1l140 -156h-34z" />
    <glyph glyph-name="uni1EA6" unicode="&#x1ea6;" horiz-adv-x="707" 
d="M57 0l295 738h3l296 -738h-39l-268 682l24 11l-276 -693h-35zM190 281h329l8 -32h-344zM453 791l-114 129l17 2l-115 -131h-34l139 156h1l140 -156h-34zM112 1026h37l86 -133h-26z" />
    <glyph glyph-name="uni1EA8" unicode="&#x1ea8;" horiz-adv-x="707" 
d="M57 0l295 738h3l296 -738h-39l-268 682l24 11l-276 -693h-35zM190 281h329l8 -32h-344zM454 798l-114 129l17 2l-115 -131h-34l139 156h1l140 -156h-34zM463 891q22 19 37 34.5t15 35.5q0 19 -10 30.5t-29 11.5q-18 0 -30 -8.5t-26 -27.5l-17 12q16 25 34.5 37t41.5 12
q17 0 30.5 -7t22 -21t8.5 -37q0 -29 -18.5 -48.5t-44.5 -39.5z" />
    <glyph glyph-name="uni1EAA" unicode="&#x1eaa;" horiz-adv-x="707" 
d="M57 0l295 738h3l296 -738h-39l-268 682l24 11l-276 -693h-35zM190 281h329l8 -32h-344zM457 780l-114 129l17 2l-115 -131h-34l139 156h1l140 -156h-34zM423 955q-29 0 -47 14.5t-33 31.5q-13 14 -27 26t-33 12q-12 0 -24 -8t-21 -27t-11 -54l-23 1q0 39 11.5 65
t29.5 38.5t39 12.5q27 0 44.5 -14.5t32.5 -31.5q13 -15 27.5 -27t34.5 -12t35 19t17 71l23 -1q0 -39 -10 -65t-27 -38.5t-38 -12.5z" />
    <glyph glyph-name="uni0200" unicode="&#x200;" horiz-adv-x="707" 
d="M57 0l295 738h3l296 -738h-39l-268 682l24 11l-276 -693h-35zM190 281h329l8 -32h-344zM200 910h37l86 -133h-26zM305 910h37l86 -133h-26z" />
    <glyph glyph-name="Adieresis" unicode="&#xc4;" horiz-adv-x="707" 
d="M57 0l295 738h3l296 -738h-39l-268 682l24 11l-276 -693h-35zM190 281h329l8 -32h-344zM239 797q0 11 8.5 19.5t19.5 8.5t19.5 -8.5t8.5 -20.5q0 -11 -8.5 -19.5t-19.5 -8.5t-19.5 8.5t-8.5 20.5v0zM410 797q0 11 8.5 19.5t19.5 8.5q10 0 19 -8.5t9 -20.5q0 -11 -9 -19.5
t-19 -8.5q-11 0 -19.5 8.5t-8.5 20.5v0z" />
    <glyph glyph-name="uni1EA0" unicode="&#x1ea0;" horiz-adv-x="707" 
d="M57 0l295 738h3l296 -738h-39l-268 682l24 11l-276 -693h-35zM190 281h329l8 -32h-344zM324 -82q0 11 9 19t21 8q11 0 19.5 -8t8.5 -19q0 -12 -8.5 -20t-19.5 -8q-12 0 -21 8t-9 20z" />
    <glyph glyph-name="Agrave" unicode="&#xc0;" horiz-adv-x="707" 
d="M57 0l295 738h3l296 -738h-39l-268 682l24 11l-276 -693h-35zM190 281h329l8 -32h-344zM248 892h37l86 -133h-26z" />
    <glyph glyph-name="uni1EA2" unicode="&#x1ea2;" horiz-adv-x="707" 
d="M57 0l295 738h3l296 -738h-39l-268 682l24 11l-276 -693h-35zM190 281h329l8 -32h-344zM356 757q22 19 37 34.5t15 35.5q0 19 -10 30.5t-29 11.5q-18 0 -30 -8.5t-26 -27.5l-17 12q16 25 34.5 37t41.5 12q17 0 30.5 -7t22 -21t8.5 -37q0 -29 -18.5 -48.5t-44.5 -39.5z
" />
    <glyph glyph-name="uni0202" unicode="&#x202;" horiz-adv-x="707" 
d="M57 0l295 738h3l296 -738h-39l-268 682l24 11l-276 -693h-35zM190 281h329l8 -32h-344zM352 905q36 0 64.5 -21t46 -57t19.5 -84h-25q-2 37 -16 67.5t-37 49t-52 18.5t-51.5 -18.5t-35.5 -49t-15 -67.5h-26q2 48 19 84t45 57t64 21z" />
    <glyph glyph-name="Amacron" unicode="&#x100;" horiz-adv-x="707" 
d="M57 0l295 738h3l296 -738h-39l-268 682l24 11l-276 -693h-35zM190 281h329l8 -32h-344zM237 791h233v-27h-233v27z" />
    <glyph glyph-name="Aogonek" unicode="&#x104;" horiz-adv-x="707" 
d="M57 0l295 738h3l296 -738h-39l-268 682l24 11l-276 -693h-35zM190 281h329l8 -32h-344zM605 -193q-32 0 -56.5 22.5t-24.5 60.5t28.5 70t68.5 51l31 -11q-46 -25 -71.5 -52t-25.5 -56q0 -27 16.5 -42.5t36.5 -15.5t36 13t27 33l17 -17q-11 -23 -33.5 -39.5t-49.5 -16.5z
" />
    <glyph glyph-name="Aring" unicode="&#xc5;" horiz-adv-x="707" 
d="M57 0l295 738h3l296 -738h-39l-268 682l24 11l-276 -693h-35zM190 281h329l8 -32h-344zM284 844q0 30 20 50t50 20q31 0 50.5 -20t19.5 -50t-19.5 -49.5t-50.5 -19.5q-30 0 -50 19.5t-20 49.5zM306 844q0 -19 14.5 -33.5t33.5 -14.5t33 14.5t14 33.5q0 20 -14 34t-32 14
q-20 0 -34.5 -14t-14.5 -34z" />
    <glyph glyph-name="Aringacute" unicode="&#x1fa;" horiz-adv-x="707" 
d="M57 0l295 738h3l296 -738h-39l-268 682l24 11l-276 -693h-35zM190 281h329l8 -32h-344zM284 844q0 30 20 50t50 20q31 0 50.5 -20t19.5 -50t-19.5 -49.5t-50.5 -19.5q-30 0 -50 19.5t-20 49.5zM306 844q0 -19 14.5 -33.5t33.5 -14.5t33 14.5t14 33.5q0 20 -14 34t-32 14
q-20 0 -34.5 -14t-14.5 -34zM468 1085l-99 -133h-27l88 133h38z" />
    <glyph glyph-name="Atilde" unicode="&#xc3;" horiz-adv-x="707" 
d="M57 0l295 738h3l296 -738h-39l-268 682l24 11l-276 -693h-35zM190 281h329l8 -32h-344zM427 778q-29 0 -46.5 14t-33.5 32q-13 14 -26.5 26t-33.5 12q-11 0 -23.5 -8t-21.5 -27.5t-10 -54.5l-23 2q0 39 11 64.5t29 38.5t39 13q28 0 45.5 -15t31.5 -31q13 -16 27.5 -28
t34.5 -12t35 19.5t18 71.5l23 -2q0 -39 -10.5 -65t-27.5 -38t-38 -12z" />
    <glyph glyph-name="AE" unicode="&#xc6;" horiz-adv-x="929" 
d="M466 706h372v-34h-338v-300h299v-34h-299v-304h352v-34h-386v706zM479 679q-2 -7 -4.5 -14.5l-4.5 -13.5l-409 -651h-39l444 706zM178 230h298v-29h-305z" />
    <glyph glyph-name="AEacute" unicode="&#x1fc;" horiz-adv-x="929" 
d="M466 706h372v-34h-338v-300h299v-34h-299v-304h352v-34h-386v706zM479 679q-2 -7 -4.5 -14.5l-4.5 -13.5l-409 -651h-39l444 706zM178 230h298v-29h-305zM742 879l-99 -133h-27l88 133h38z" />
    <glyph glyph-name="B" unicode="B" horiz-adv-x="582" 
d="M264 706q101 0 156 -42t55 -137q0 -44 -16 -82t-48 -63.5t-82 -33.5l-3 16q50 -5 92 -28t67.5 -61.5t25.5 -89.5q0 -46 -18 -80.5t-49 -58t-70 -35t-82 -11.5h-176v706h148zM288 370q81 0 116 43t35 108q0 82 -47 117t-126 35h-115v-303h137zM290 32q51 0 93 16.5
t67.5 50.5t25.5 84q0 54 -28.5 88t-71.5 49.5t-87 15.5h-138v-304h139z" />
    <glyph glyph-name="C" unicode="C" horiz-adv-x="691" 
d="M620 45q-25 -14 -54.5 -26.5t-64 -19.5t-74.5 -7q-80 0 -146 28.5t-113 77.5t-72 113.5t-25 137.5q0 77 27 143.5t76 116t114 77.5t140 28q54 0 102 -14t88 -38l-16 -32q-36 23 -80.5 37t-92.5 14q-66 0 -124.5 -25.5t-103 -71t-69.5 -105.5t-25 -130q0 -65 22.5 -124
t64.5 -104t101.5 -70.5t132.5 -25.5q51 0 94.5 14t79.5 36z" />
    <glyph glyph-name="Cacute" unicode="&#x106;" horiz-adv-x="691" 
d="M620 45q-25 -14 -54.5 -26.5t-64 -19.5t-74.5 -7q-80 0 -146 28.5t-113 77.5t-72 113.5t-25 137.5q0 77 27 143.5t76 116t114 77.5t140 28q54 0 102 -14t88 -38l-16 -32q-36 23 -80.5 37t-92.5 14q-66 0 -124.5 -25.5t-103 -71t-69.5 -105.5t-25 -130q0 -65 22.5 -124
t64.5 -104t101.5 -70.5t132.5 -25.5q51 0 94.5 14t79.5 36zM525 887l-99 -133h-27l88 133h38z" />
    <glyph glyph-name="Ccaron" unicode="&#x10c;" horiz-adv-x="691" 
d="M620 45q-25 -14 -54.5 -26.5t-64 -19.5t-74.5 -7q-80 0 -146 28.5t-113 77.5t-72 113.5t-25 137.5q0 77 27 143.5t76 116t114 77.5t140 28q54 0 102 -14t88 -38l-16 -32q-36 23 -80.5 37t-92.5 14q-66 0 -124.5 -25.5t-103 -71t-69.5 -105.5t-25 -130q0 -65 22.5 -124
t64.5 -104t101.5 -70.5t132.5 -25.5q51 0 94.5 14t79.5 36zM304 909l114 -130l-17 -2l115 132h35l-140 -155h-1l-140 155h34z" />
    <glyph glyph-name="Ccedilla" unicode="&#xc7;" horiz-adv-x="691" 
d="M620 45q-25 -14 -54.5 -26.5t-64 -19.5t-74.5 -7q-80 0 -146 28.5t-113 77.5t-72 113.5t-25 137.5q0 77 27 143.5t76 116t114 77.5t140 28q54 0 102 -14t88 -38l-16 -32q-36 23 -80.5 37t-92.5 14q-66 0 -124.5 -25.5t-103 -71t-69.5 -105.5t-25 -130q0 -65 22.5 -124
t64.5 -104t101.5 -70.5t132.5 -25.5q51 0 94.5 14t79.5 36zM335 -176q11 -11 30 -18.5t45 -7.5q38 0 61.5 15t23.5 43q0 25 -19 42.5t-60 17.5q-16 0 -37.5 -4.5t-33.5 -9.5l-15 19l72 83l26 -7l-67 -83l-16 7q11 7 33.5 12.5t42.5 5.5q50 0 78 -21t28 -61q0 -28 -15.5 -46
t-41 -27t-57.5 -9q-29 0 -53 8.5t-39 21.5z" />
    <glyph glyph-name="Ccircumflex" unicode="&#x108;" horiz-adv-x="691" 
d="M620 45q-25 -14 -54.5 -26.5t-64 -19.5t-74.5 -7q-80 0 -146 28.5t-113 77.5t-72 113.5t-25 137.5q0 77 27 143.5t76 116t114 77.5t140 28q54 0 102 -14t88 -38l-16 -32q-36 23 -80.5 37t-92.5 14q-66 0 -124.5 -25.5t-103 -71t-69.5 -105.5t-25 -130q0 -65 22.5 -124
t64.5 -104t101.5 -70.5t132.5 -25.5q51 0 94.5 14t79.5 36zM517 779l-114 129l17 2l-115 -131h-34l139 156h1l140 -156h-34z" />
    <glyph glyph-name="Cdotaccent" unicode="&#x10a;" horiz-adv-x="691" 
d="M620 45q-25 -14 -54.5 -26.5t-64 -19.5t-74.5 -7q-80 0 -146 28.5t-113 77.5t-72 113.5t-25 137.5q0 77 27 143.5t76 116t114 77.5t140 28q54 0 102 -14t88 -38l-16 -32q-36 23 -80.5 37t-92.5 14q-66 0 -124.5 -25.5t-103 -71t-69.5 -105.5t-25 -130q0 -65 22.5 -124
t64.5 -104t101.5 -70.5t132.5 -25.5q51 0 94.5 14t79.5 36zM382 801q0 11 9 19t21 8q11 0 19.5 -8t8.5 -19q0 -12 -8.5 -20t-19.5 -8q-12 0 -21 8t-9 20z" />
    <glyph glyph-name="D" unicode="D" horiz-adv-x="731" 
d="M116 0v706h168q102 0 173.5 -32t116.5 -85t65.5 -115t20.5 -123q0 -81 -27.5 -145.5t-75.5 -110.5t-109.5 -70.5t-129.5 -24.5h-202zM151 33h156q65 0 122.5 22t101.5 64t69 100.5t25 133.5q0 59 -20 116t-62 102.5t-105.5 73t-151.5 27.5h-135v-639z" />
    <glyph glyph-name="uni01C4" unicode="&#x1c4;" horiz-adv-x="1431" 
d="M116 0v706h168q102 0 173.5 -32t116.5 -85t65.5 -115t20.5 -123q0 -81 -27.5 -145.5t-75.5 -110.5t-109.5 -70.5t-129.5 -24.5h-202zM151 33h156q65 0 122.5 22t101.5 64t69 100.5t25 133.5q0 59 -20 116t-62 102.5t-105.5 73t-151.5 27.5h-135v-639zM788 0
q27 36 56.5 77t61.5 85.5t65.5 90.5t67.5 92t67.5 91.5t65.5 89t61.5 82.5t56.5 74l8 -9h-421q-18 0 -32 4t-21.5 14.5t-7.5 29.5v20h34v-12q0 -11 6.5 -17t23.5 -6h465l-501 -679l-3 6h532v-33h-585zM974 898l114 -130l-17 -2l115 132h35l-140 -155h-1l-140 155h34z" />
    <glyph glyph-name="Eth" unicode="&#xd0;" horiz-adv-x="731" 
d="M116 0v706h168q102 0 173.5 -32t116.5 -85t65.5 -115t20.5 -123q0 -81 -27.5 -145.5t-75.5 -110.5t-109.5 -70.5t-129.5 -24.5h-202zM151 33h156q65 0 122.5 22t101.5 64t69 100.5t25 133.5q0 59 -20 116t-62 102.5t-105.5 73t-151.5 27.5h-135v-639zM13 368h236v-32
h-236v32z" />
    <glyph glyph-name="Dcaron" unicode="&#x10e;" horiz-adv-x="731" 
d="M116 0v706h168q102 0 173.5 -32t116.5 -85t65.5 -115t20.5 -123q0 -81 -27.5 -145.5t-75.5 -110.5t-109.5 -70.5t-129.5 -24.5h-202zM151 33h156q65 0 122.5 22t101.5 64t69 100.5t25 133.5q0 59 -20 116t-62 102.5t-105.5 73t-151.5 27.5h-135v-639zM187 898l114 -130
l-17 -2l115 132h35l-140 -155h-1l-140 155h34z" />
    <glyph glyph-name="Dcroat" unicode="&#x110;" horiz-adv-x="731" 
d="M116 0v706h168q102 0 173.5 -32t116.5 -85t65.5 -115t20.5 -123q0 -81 -27.5 -145.5t-75.5 -110.5t-109.5 -70.5t-129.5 -24.5h-202zM151 33h156q65 0 122.5 22t101.5 64t69 100.5t25 133.5q0 59 -20 116t-62 102.5t-105.5 73t-151.5 27.5h-135v-639zM13 368h236v-32
h-236v32z" />
    <glyph glyph-name="uni01C5" unicode="&#x1c5;" horiz-adv-x="1117" 
d="M116 0v706h168q102 0 173.5 -32t116.5 -85t65.5 -115t20.5 -123q0 -81 -27.5 -145.5t-75.5 -110.5t-109.5 -70.5t-129.5 -24.5h-202zM151 33h156q65 0 122.5 22t101.5 64t69 100.5t25 133.5q0 59 -20 116t-62 102.5t-105.5 73t-151.5 27.5h-135v-639zM824 356
q-25 0 -40 10.5t-15 41.5v13h27v-12q0 -11 8 -17.5t25 -6.5h250l-256 -363l-8 7h259v-29h-305l259 365l8 -9h-212zM827 590l114 -130l-17 -2l115 132h35l-140 -155h-1l-140 155h34z" />
    <glyph glyph-name="E" unicode="E" horiz-adv-x="635" 
d="M116 706h429v-33h-394v-300h355v-34h-355v-306h408v-33h-443v706z" />
    <glyph glyph-name="Eacute" unicode="&#xc9;" horiz-adv-x="635" 
d="M116 706h429v-33h-394v-300h355v-34h-355v-306h408v-33h-443v706zM434 879l-99 -133h-27l88 133h38z" />
    <glyph glyph-name="Ebreve" unicode="&#x114;" horiz-adv-x="635" 
d="M116 706h429v-33h-394v-300h355v-34h-355v-306h408v-33h-443v706zM321 759q-36 0 -64.5 20.5t-45.5 57.5t-20 84h26q2 -36 15.5 -67t36.5 -49.5t52 -18.5q30 0 52 18.5t35 49.5t15 67h26q-1 -48 -18.5 -84.5t-45.5 -57t-64 -20.5z" />
    <glyph glyph-name="Ecaron" unicode="&#x11a;" horiz-adv-x="635" 
d="M116 706h429v-33h-394v-300h355v-34h-355v-306h408v-33h-443v706zM213 901l114 -130l-17 -2l115 132h35l-140 -155h-1l-140 155h34z" />
    <glyph glyph-name="Ecircumflex" unicode="&#xca;" horiz-adv-x="635" 
d="M116 706h429v-33h-394v-300h355v-34h-355v-306h408v-33h-443v706zM426 771l-114 129l17 2l-115 -131h-34l139 156h1l140 -156h-34z" />
    <glyph glyph-name="uni1EBE" unicode="&#x1ebe;" horiz-adv-x="635" 
d="M116 706h429v-33h-394v-300h355v-34h-355v-306h408v-33h-443v706zM424 793l-114 129l17 2l-115 -131h-34l139 156h1l140 -156h-34zM537 1013l-99 -133h-27l88 133h38z" />
    <glyph glyph-name="uni1EC6" unicode="&#x1ec6;" horiz-adv-x="635" 
d="M116 706h429v-33h-394v-300h355v-34h-355v-306h408v-33h-443v706zM290 -82q0 11 9 19t21 8q11 0 19.5 -8t8.5 -19q0 -12 -8.5 -20t-19.5 -8q-12 0 -21 8t-9 20zM426 771l-114 129l17 2l-115 -131h-34l139 156h1l140 -156h-34z" />
    <glyph glyph-name="uni1EC0" unicode="&#x1ec0;" horiz-adv-x="635" 
d="M116 706h429v-33h-394v-300h355v-34h-355v-306h408v-33h-443v706zM419 787l-114 129l17 2l-115 -131h-34l139 156h1l140 -156h-34zM78 1022h37l86 -133h-26z" />
    <glyph glyph-name="uni1EC2" unicode="&#x1ec2;" horiz-adv-x="635" 
d="M116 706h429v-33h-394v-300h355v-34h-355v-306h408v-33h-443v706zM420 794l-114 129l17 2l-115 -131h-34l139 156h1l140 -156h-34zM429 887q22 19 37 34.5t15 35.5q0 19 -10 30.5t-29 11.5q-18 0 -30 -8.5t-26 -27.5l-17 12q16 25 34.5 37t41.5 12q17 0 30.5 -7t22 -21
t8.5 -37q0 -29 -18.5 -48.5t-44.5 -39.5z" />
    <glyph glyph-name="uni1EC4" unicode="&#x1ec4;" horiz-adv-x="635" 
d="M116 706h429v-33h-394v-300h355v-34h-355v-306h408v-33h-443v706zM424 778l-114 129l17 2l-115 -131h-34l139 156h1l140 -156h-34zM390 953q-29 0 -47 14.5t-33 31.5q-13 14 -27 26t-33 12q-12 0 -24 -8t-21 -27t-11 -54l-23 1q0 39 11.5 65t29.5 38.5t39 12.5
q27 0 44.5 -14.5t32.5 -31.5q13 -15 27.5 -27t34.5 -12t35 19t17 71l23 -1q0 -39 -10 -65t-27 -38.5t-38 -12.5z" />
    <glyph glyph-name="uni0204" unicode="&#x204;" horiz-adv-x="635" 
d="M116 706h429v-33h-394v-300h355v-34h-355v-306h408v-33h-443v706zM166 907h37l86 -133h-26zM271 907h37l86 -133h-26z" />
    <glyph glyph-name="Edieresis" unicode="&#xcb;" horiz-adv-x="635" 
d="M116 706h429v-33h-394v-300h355v-34h-355v-306h408v-33h-443v706zM205 794q0 11 8.5 19.5t19.5 8.5t19.5 -8.5t8.5 -20.5q0 -11 -8.5 -19.5t-19.5 -8.5t-19.5 8.5t-8.5 20.5v0zM376 794q0 11 8.5 19.5t19.5 8.5q10 0 19 -8.5t9 -20.5q0 -11 -9 -19.5t-19 -8.5
q-11 0 -19.5 8.5t-8.5 20.5v0z" />
    <glyph glyph-name="Edotaccent" unicode="&#x116;" horiz-adv-x="635" 
d="M116 706h429v-33h-394v-300h355v-34h-355v-306h408v-33h-443v706zM291 792q0 11 9 19t21 8q11 0 19.5 -8t8.5 -19q0 -12 -8.5 -20t-19.5 -8q-12 0 -21 8t-9 20z" />
    <glyph glyph-name="uni1EB8" unicode="&#x1eb8;" horiz-adv-x="635" 
d="M116 706h429v-33h-394v-300h355v-34h-355v-306h408v-33h-443v706zM290 -82q0 11 9 19t21 8q11 0 19.5 -8t8.5 -19q0 -12 -8.5 -20t-19.5 -8q-12 0 -21 8t-9 20z" />
    <glyph glyph-name="Egrave" unicode="&#xc8;" horiz-adv-x="635" 
d="M116 706h429v-33h-394v-300h355v-34h-355v-306h408v-33h-443v706zM214 889h37l86 -133h-26z" />
    <glyph glyph-name="uni1EBA" unicode="&#x1eba;" horiz-adv-x="635" 
d="M116 706h429v-33h-394v-300h355v-34h-355v-306h408v-33h-443v706zM321 754q22 19 37 34.5t15 35.5q0 19 -10 30.5t-29 11.5q-18 0 -30 -8.5t-26 -27.5l-17 12q16 25 34.5 37t41.5 12q17 0 30.5 -7t22 -21t8.5 -37q0 -29 -18.5 -48.5t-44.5 -39.5z" />
    <glyph glyph-name="uni0206" unicode="&#x206;" horiz-adv-x="635" 
d="M116 706h429v-33h-394v-300h355v-34h-355v-306h408v-33h-443v706zM318 902q36 0 64.5 -21t46 -57t19.5 -84h-25q-2 37 -16 67.5t-37 49t-52 18.5t-51.5 -18.5t-35.5 -49t-15 -67.5h-26q2 48 19 84t45 57t64 21z" />
    <glyph glyph-name="Emacron" unicode="&#x112;" horiz-adv-x="635" 
d="M116 706h429v-33h-394v-300h355v-34h-355v-306h408v-33h-443v706zM203 788h233v-27h-233v27z" />
    <glyph glyph-name="Eogonek" unicode="&#x118;" horiz-adv-x="635" 
d="M116 706h429v-33h-394v-300h355v-34h-355v-306h408v-33h-443v706zM512 -193q-32 0 -56.5 22.5t-24.5 60.5t28.5 70t68.5 51l31 -11q-46 -25 -71.5 -52t-25.5 -56q0 -27 16.5 -42.5t36.5 -15.5t36 13t27 33l17 -17q-11 -23 -33.5 -39.5t-49.5 -16.5z" />
    <glyph glyph-name="uni1EBC" unicode="&#x1ebc;" horiz-adv-x="635" 
d="M116 706h429v-33h-394v-300h355v-34h-355v-306h408v-33h-443v706zM393 775q-29 0 -46.5 14t-33.5 32q-13 14 -26.5 26t-33.5 12q-11 0 -23.5 -8t-21.5 -27.5t-10 -54.5l-23 2q0 39 11 64.5t29 38.5t39 13q28 0 45.5 -15t31.5 -31q13 -16 27.5 -28t34.5 -12t35 19.5
t18 71.5l23 -2q0 -39 -10.5 -65t-27.5 -38t-38 -12z" />
    <glyph glyph-name="F" unicode="F" horiz-adv-x="575" 
d="M116 706h389v-33h-354v-311h314v-33h-314v-329h-35v706z" />
    <glyph glyph-name="G" unicode="G" horiz-adv-x="738" 
d="M643 47q-19 -12 -44 -22t-53 -17.5t-57 -11.5t-56 -4q-83 0 -150 27.5t-114.5 76t-72.5 113.5t-25 139q0 79 28 145.5t77.5 116t115 77t139.5 27.5q54 0 102 -13.5t89 -37.5l-14 -31q-24 14 -53 25t-59.5 17t-60.5 6q-70 0 -129.5 -25.5t-104.5 -70.5t-70 -105t-25 -129
q0 -68 23 -127t66 -103.5t103 -69t134 -24.5q43 0 92 10.5t84 31.5v212h-165v34h200v-267z" />
    <glyph glyph-name="Gbreve" unicode="&#x11e;" horiz-adv-x="738" 
d="M643 47q-19 -12 -44 -22t-53 -17.5t-57 -11.5t-56 -4q-83 0 -150 27.5t-114.5 76t-72.5 113.5t-25 139q0 79 28 145.5t77.5 116t115 77t139.5 27.5q54 0 102 -13.5t89 -37.5l-14 -31q-24 14 -53 25t-59.5 17t-60.5 6q-70 0 -129.5 -25.5t-104.5 -70.5t-70 -105t-25 -129
q0 -68 23 -127t66 -103.5t103 -69t134 -24.5q43 0 92 10.5t84 31.5v212h-165v34h200v-267zM404 756q-36 0 -64.5 20.5t-45.5 57.5t-20 84h26q2 -36 15.5 -67t36.5 -49.5t52 -18.5q30 0 52 18.5t35 49.5t15 67h26q-1 -48 -18.5 -84.5t-45.5 -57t-64 -20.5z" />
    <glyph glyph-name="Gcaron" unicode="&#x1e6;" horiz-adv-x="738" 
d="M643 47q-19 -12 -44 -22t-53 -17.5t-57 -11.5t-56 -4q-83 0 -150 27.5t-114.5 76t-72.5 113.5t-25 139q0 79 28 145.5t77.5 116t115 77t139.5 27.5q54 0 102 -13.5t89 -37.5l-14 -31q-24 14 -53 25t-59.5 17t-60.5 6q-70 0 -129.5 -25.5t-104.5 -70.5t-70 -105t-25 -129
q0 -68 23 -127t66 -103.5t103 -69t134 -24.5q43 0 92 10.5t84 31.5v212h-165v34h200v-267zM295 898l114 -130l-17 -2l115 132h35l-140 -155h-1l-140 155h34z" />
    <glyph glyph-name="Gcircumflex" unicode="&#x11c;" horiz-adv-x="738" 
d="M643 47q-19 -12 -44 -22t-53 -17.5t-57 -11.5t-56 -4q-83 0 -150 27.5t-114.5 76t-72.5 113.5t-25 139q0 79 28 145.5t77.5 116t115 77t139.5 27.5q54 0 102 -13.5t89 -37.5l-14 -31q-24 14 -53 25t-59.5 17t-60.5 6q-70 0 -129.5 -25.5t-104.5 -70.5t-70 -105t-25 -129
q0 -68 23 -127t66 -103.5t103 -69t134 -24.5q43 0 92 10.5t84 31.5v212h-165v34h200v-267zM508 768l-114 129l17 2l-115 -131h-34l139 156h1l140 -156h-34z" />
    <glyph glyph-name="uni0122" unicode="&#x122;" horiz-adv-x="738" 
d="M643 47q-19 -12 -44 -22t-53 -17.5t-57 -11.5t-56 -4q-83 0 -150 27.5t-114.5 76t-72.5 113.5t-25 139q0 79 28 145.5t77.5 116t115 77t139.5 27.5q54 0 102 -13.5t89 -37.5l-14 -31q-24 14 -53 25t-59.5 17t-60.5 6q-70 0 -129.5 -25.5t-104.5 -70.5t-70 -105t-25 -129
q0 -68 23 -127t66 -103.5t103 -69t134 -24.5q43 0 92 10.5t84 31.5v212h-165v34h200v-267zM345 -190l-17 14q27 20 38 54t6 76h34q2 -26 -2 -54t-18 -51.5t-41 -38.5z" />
    <glyph glyph-name="Gdotaccent" unicode="&#x120;" horiz-adv-x="738" 
d="M643 47q-19 -12 -44 -22t-53 -17.5t-57 -11.5t-56 -4q-83 0 -150 27.5t-114.5 76t-72.5 113.5t-25 139q0 79 28 145.5t77.5 116t115 77t139.5 27.5q54 0 102 -13.5t89 -37.5l-14 -31q-24 14 -53 25t-59.5 17t-60.5 6q-70 0 -129.5 -25.5t-104.5 -70.5t-70 -105t-25 -129
q0 -68 23 -127t66 -103.5t103 -69t134 -24.5q43 0 92 10.5t84 31.5v212h-165v34h200v-267zM373 790q0 11 9 19t21 8q11 0 19.5 -8t8.5 -19q0 -12 -8.5 -20t-19.5 -8q-12 0 -21 8t-9 20z" />
    <glyph glyph-name="H" unicode="H" horiz-adv-x="744" 
d="M628 706v-706h-35v339h-442v-339h-35v706h35v-334h442v334h35z" />
    <glyph glyph-name="Hbar" unicode="&#x126;" horiz-adv-x="903" 
d="M116 521h671v-28h-671v28zM683 706v-706h-34v339h-443v-339h-35v706h35v-334h443v334h34z" />
    <glyph glyph-name="Hcircumflex" unicode="&#x124;" horiz-adv-x="744" 
d="M628 706v-706h-35v339h-442v-339h-35v706h35v-334h442v334h35zM478 768l-114 129l17 2l-115 -131h-34l139 156h1l140 -156h-34z" />
    <glyph glyph-name="I" unicode="I" horiz-adv-x="267" 
d="M116 706h35v-706h-35v706z" />
    <glyph glyph-name="IJ" unicode="&#x132;" horiz-adv-x="586" 
d="M116 706h35v-706h-35v706zM471 100q0 -77 -27.5 -131t-73.5 -82.5t-102 -30.5v0v33q72 4 120 59.5t48 154.5v603h35v-606z" />
    <glyph glyph-name="Iacute" unicode="&#xcd;" horiz-adv-x="267" 
d="M116 706h35v-706h-35v706zM248 879l-99 -133h-27l88 133h38z" />
    <glyph glyph-name="Ibreve" unicode="&#x12c;" horiz-adv-x="267" 
d="M116 706h35v-706h-35v706zM135 759q-36 0 -64.5 20.5t-45.5 57.5t-20 84h26q2 -36 15.5 -67t36.5 -49.5t52 -18.5q30 0 52 18.5t35 49.5t15 67h26q-1 -48 -18.5 -84.5t-45.5 -57t-64 -20.5z" />
    <glyph glyph-name="Icircumflex" unicode="&#xce;" horiz-adv-x="267" 
d="M116 706h35v-706h-35v706zM240 771l-114 129l17 2l-115 -131h-34l139 156h1l140 -156h-34z" />
    <glyph glyph-name="uni0208" unicode="&#x208;" horiz-adv-x="267" 
d="M116 706h35v-706h-35v706zM-21 907h37l86 -133h-26zM84 907h37l86 -133h-26z" />
    <glyph glyph-name="Idieresis" unicode="&#xcf;" horiz-adv-x="267" 
d="M116 706h35v-706h-35v706zM19 794q0 11 8.5 19.5t19.5 8.5t19.5 -8.5t8.5 -20.5q0 -11 -8.5 -19.5t-19.5 -8.5t-19.5 8.5t-8.5 20.5v0zM190 794q0 11 8.5 19.5t19.5 8.5q10 0 19 -8.5t9 -20.5q0 -11 -9 -19.5t-19 -8.5q-11 0 -19.5 8.5t-8.5 20.5v0z" />
    <glyph glyph-name="Idotaccent" unicode="&#x130;" horiz-adv-x="267" 
d="M116 706h35v-706h-35v706zM105 792q0 11 9 19t21 8q11 0 19.5 -8t8.5 -19q0 -12 -8.5 -20t-19.5 -8q-12 0 -21 8t-9 20z" />
    <glyph glyph-name="uni1ECA" unicode="&#x1eca;" horiz-adv-x="267" 
d="M116 706h35v-706h-35v706zM104 -82q0 11 9 19t21 8q11 0 19.5 -8t8.5 -19q0 -12 -8.5 -20t-19.5 -8q-12 0 -21 8t-9 20z" />
    <glyph glyph-name="Igrave" unicode="&#xcc;" horiz-adv-x="267" 
d="M116 706h35v-706h-35v706zM28 889h37l86 -133h-26z" />
    <glyph glyph-name="uni1EC8" unicode="&#x1ec8;" horiz-adv-x="267" 
d="M116 706h35v-706h-35v706zM135 754q22 19 37 34.5t15 35.5q0 19 -10 30.5t-29 11.5q-18 0 -30 -8.5t-26 -27.5l-17 12q16 25 34.5 37t41.5 12q17 0 30.5 -7t22 -21t8.5 -37q0 -29 -18.5 -48.5t-44.5 -39.5z" />
    <glyph glyph-name="uni020A" unicode="&#x20a;" horiz-adv-x="267" 
d="M116 706h35v-706h-35v706zM131 902q36 0 64.5 -21t46 -57t19.5 -84h-25q-2 37 -16 67.5t-37 49t-52 18.5t-51.5 -18.5t-35.5 -49t-15 -67.5h-26q2 48 19 84t45 57t64 21z" />
    <glyph glyph-name="Imacron" unicode="&#x12a;" horiz-adv-x="267" 
d="M116 706h35v-706h-35v706zM17 788h233v-27h-233v27z" />
    <glyph glyph-name="Iogonek" unicode="&#x12e;" horiz-adv-x="259" 
d="M104 -193q-32 0 -56.5 22t-24.5 59q0 38 28.5 70t68.5 52l22 -4l6 -6q-45 -24 -69.5 -51t-24.5 -57q0 -27 16.5 -42.5t36.5 -15.5t35.5 13t27.5 33l17 -17q-12 -23 -34 -39.5t-49 -16.5zM116 706h35v-706h-35v706z" />
    <glyph glyph-name="Itilde" unicode="&#x128;" horiz-adv-x="267" 
d="M116 706h35v-706h-35v706zM206 775q-29 0 -46.5 14t-33.5 32q-13 14 -26.5 26t-33.5 12q-11 0 -23.5 -8t-21.5 -27.5t-10 -54.5l-23 2q0 39 11 64.5t29 38.5t39 13q28 0 45.5 -15t31.5 -31q13 -16 27.5 -28t34.5 -12t35 19.5t18 71.5l23 -2q0 -39 -10.5 -65t-27.5 -38
t-38 -12z" />
    <glyph glyph-name="J" unicode="J" horiz-adv-x="320" 
d="M204 100q0 -77 -27.5 -131t-73.5 -82.5t-102 -30.5v0v33q72 4 120 59.5t48 154.5v603h35v-606z" />
    <glyph glyph-name="Jcircumflex" unicode="&#x134;" horiz-adv-x="320" 
d="M204 100q0 -77 -27.5 -131t-73.5 -82.5t-102 -30.5v0v33q72 4 120 59.5t48 154.5v603h35v-606zM285 771l-114 129l17 2l-115 -131h-34l139 156h1l140 -156h-34z" />
    <glyph glyph-name="K" unicode="K" horiz-adv-x="648" 
d="M151 378l-1 -35v6l367 357h45l-293 -285l331 -421h-45l-311 399l-94 -89l1 -310h-35v706h35v-328z" />
    <glyph glyph-name="uni0136" unicode="&#x136;" horiz-adv-x="648" 
d="M151 378l-1 -35v6l367 357h45l-293 -285l331 -421h-45l-311 399l-94 -89l1 -310h-35v706h35v-328zM265 -190l-17 14q27 20 38 54t6 76h34q2 -26 -2 -54t-18 -51.5t-41 -38.5z" />
    <glyph glyph-name="L" unicode="L" horiz-adv-x="597" 
d="M116 706h35v-673h395v-33h-430v706z" />
    <glyph glyph-name="uni01C7" unicode="&#x1c7;" horiz-adv-x="917" 
d="M116 706h35v-673h395v-33h-430v706zM801 100q0 -77 -27.5 -131t-73.5 -82.5t-102 -30.5v0v33q72 4 120 59.5t48 154.5v603h35v-606z" />
    <glyph glyph-name="Lacute" unicode="&#x139;" horiz-adv-x="597" 
d="M116 706h35v-673h395v-33h-430v706zM247 879l-99 -133h-27l88 133h38z" />
    <glyph glyph-name="Lcaron" unicode="&#x13d;" horiz-adv-x="581" 
d="M116 706h35v-673h395v-33h-430v706zM297 570l-16 19q21 20 31 51.5t3 66.5l34 7q5 -27 0 -54t-18 -50t-34 -40v0z" />
    <glyph glyph-name="uni013B" unicode="&#x13b;" horiz-adv-x="597" 
d="M116 706h35v-673h395v-33h-430v706zM269 -190l-17 14q27 20 38 54t6 76h34q2 -26 -2 -54t-18 -51.5t-41 -38.5z" />
    <glyph glyph-name="Ldot" unicode="&#x13f;" horiz-adv-x="623" 
d="M116 706h35v-673h395v-33h-430v706zM524 374q0 12 8.5 20.5t19.5 8.5t19.5 -8.5t8.5 -20.5t-8.5 -20t-19.5 -8t-19.5 8t-8.5 20v0z" />
    <glyph glyph-name="uni01C8" unicode="&#x1c8;" horiz-adv-x="817" 
d="M116 706h35v-673h395v-33h-430v706zM665 -185l-23 21q26 27 41 66.5t15 89.5v393h35v-391q0 -61 -17.5 -105.5t-50.5 -73.5zM687 517q0 11 9 19t21 8q11 0 19.5 -8t8.5 -19q0 -12 -8.5 -20t-19.5 -8q-12 0 -21 8t-9 20z" />
    <glyph glyph-name="Lslash" unicode="&#x141;" horiz-adv-x="581" 
d="M357 422l5 -30l-328 -117l-5 30zM116 706h35v-673h395v-33h-430v706z" />
    <glyph glyph-name="M" unicode="M" horiz-adv-x="900" 
d="M116 0v720h1l341 -485l-15 2l341 483h1v-720h-35v639l3 -16l-302 -427h-2l-304 427l5 14v-637h-34z" />
    <glyph glyph-name="N" unicode="N" horiz-adv-x="818" 
d="M700 -15l-560 655l9 10l1 -650h-34v719h2l562 -661l-11 -1l-1 649h34v-721h-2z" />
    <glyph glyph-name="uni01CA" unicode="&#x1ca;" horiz-adv-x="1137" 
d="M700 -15l-560 655l9 10l1 -650h-34v719h2l562 -661l-11 -1l-1 649h34v-721h-2zM1022 100q0 -77 -27.5 -131t-73.5 -82.5t-102 -30.5v0v33q72 4 120 59.5t48 154.5v603h35v-606z" />
    <glyph glyph-name="Nacute" unicode="&#x143;" horiz-adv-x="818" 
d="M700 -15l-560 655l9 10l1 -650h-34v719h2l562 -661l-11 -1l-1 649h34v-721h-2zM520 876l-99 -133h-27l88 133h38z" />
    <glyph glyph-name="Ncaron" unicode="&#x147;" horiz-adv-x="818" 
d="M700 -15l-560 655l9 10l1 -650h-34v719h2l562 -661l-11 -1l-1 649h34v-721h-2zM299 898l114 -130l-17 -2l115 132h35l-140 -155h-1l-140 155h34z" />
    <glyph glyph-name="uni0145" unicode="&#x145;" horiz-adv-x="818" 
d="M700 -15l-560 655l9 10l1 -650h-34v719h2l562 -661l-11 -1l-1 649h34v-721h-2zM366 -190l-17 14q27 20 38 54t6 76h34q2 -26 -2 -54t-18 -51.5t-41 -38.5z" />
    <glyph glyph-name="Eng" unicode="&#x14a;" horiz-adv-x="810" 
d="M696 -15l-559 656l8 9l1 -650h-34v719h2l563 -663l-12 1l-1 649h34v-715zM698 57v-63q0 -59 -17.5 -104t-50.5 -75l-22 21q25 27 40.5 66.5t15.5 89.5v86z" />
    <glyph glyph-name="uni019D" unicode="&#x19d;" horiz-adv-x="814" 
d="M696 -15l-559 656l8 9l1 -650h-34v719h2l563 -661l-12 -1l-1 649h34v-715zM146 57v-63q0 -59 -17 -104t-49 -75l-24 21q25 27 40.5 66.5t15.5 89.5v86z" />
    <glyph glyph-name="uni01CB" unicode="&#x1cb;" horiz-adv-x="1038" 
d="M700 -15l-560 655l9 10l1 -650h-34v719h2l562 -661l-11 -1l-1 649h34v-721h-2zM886 -185l-23 21q26 27 41 66.5t15 89.5v393h35v-391q0 -61 -17.5 -105.5t-50.5 -73.5zM908 517q0 11 9 19t21 8q11 0 19.5 -8t8.5 -19q0 -12 -8.5 -20t-19.5 -8q-12 0 -21 8t-9 20z" />
    <glyph glyph-name="Ntilde" unicode="&#xd1;" horiz-adv-x="818" 
d="M700 -15l-560 655l9 10l1 -650h-34v719h2l562 -661l-11 -1l-1 649h34v-721h-2zM479 772q-29 0 -46.5 14t-33.5 32q-13 14 -26.5 26t-33.5 12q-11 0 -23.5 -8t-21.5 -27.5t-10 -54.5l-23 2q0 39 11 64.5t29 38.5t39 13q28 0 45.5 -15t31.5 -31q13 -16 27.5 -28t34.5 -12
t35 19.5t18 71.5l23 -2q0 -39 -10.5 -65t-27.5 -38t-38 -12z" />
    <glyph glyph-name="O" unicode="O" horiz-adv-x="863" 
d="M71 352q0 75 28 140.5t77.5 115.5t115 78t139.5 28t139.5 -28.5t115.5 -78t78.5 -115t28.5 -140.5q0 -74 -28.5 -139.5t-78 -115t-115 -77.5t-140.5 -28t-140 27t-114.5 75.5t-77.5 114t-28 143.5zM106 351q0 -67 25 -126.5t69.5 -104t103.5 -70t125 -25.5
q68 0 127.5 25.5t104.5 70t71 104t26 127.5q0 67 -26 126.5t-70.5 105t-104 71.5t-126.5 26q-69 0 -128.5 -26.5t-103.5 -72.5t-68.5 -105.5t-24.5 -125.5z" />
    <glyph glyph-name="Oacute" unicode="&#xd3;" horiz-adv-x="863" 
d="M71 352q0 75 28 140.5t77.5 115.5t115 78t139.5 28t139.5 -28.5t115.5 -78t78.5 -115t28.5 -140.5q0 -74 -28.5 -139.5t-78 -115t-115 -77.5t-140.5 -28t-140 27t-114.5 75.5t-77.5 114t-28 143.5zM106 351q0 -67 25 -126.5t69.5 -104t103.5 -70t125 -25.5
q68 0 127.5 25.5t104.5 70t71 104t26 127.5q0 67 -26 126.5t-70.5 105t-104 71.5t-126.5 26q-69 0 -128.5 -26.5t-103.5 -72.5t-68.5 -105.5t-24.5 -125.5zM546 877l-99 -133h-27l88 133h38z" />
    <glyph glyph-name="Obreve" unicode="&#x14e;" horiz-adv-x="863" 
d="M71 352q0 75 28 140.5t77.5 115.5t115 78t139.5 28t139.5 -28.5t115.5 -78t78.5 -115t28.5 -140.5q0 -74 -28.5 -139.5t-78 -115t-115 -77.5t-140.5 -28t-140 27t-114.5 75.5t-77.5 114t-28 143.5zM106 351q0 -67 25 -126.5t69.5 -104t103.5 -70t125 -25.5
q68 0 127.5 25.5t104.5 70t71 104t26 127.5q0 67 -26 126.5t-70.5 105t-104 71.5t-126.5 26q-69 0 -128.5 -26.5t-103.5 -72.5t-68.5 -105.5t-24.5 -125.5zM434 757q-36 0 -64.5 20.5t-45.5 57.5t-20 84h26q2 -36 15.5 -67t36.5 -49.5t52 -18.5q30 0 52 18.5t35 49.5t15 67
h26q-1 -48 -18.5 -84.5t-45.5 -57t-64 -20.5z" />
    <glyph glyph-name="Ocircumflex" unicode="&#xd4;" horiz-adv-x="863" 
d="M71 352q0 75 28 140.5t77.5 115.5t115 78t139.5 28t139.5 -28.5t115.5 -78t78.5 -115t28.5 -140.5q0 -74 -28.5 -139.5t-78 -115t-115 -77.5t-140.5 -28t-140 27t-114.5 75.5t-77.5 114t-28 143.5zM106 351q0 -67 25 -126.5t69.5 -104t103.5 -70t125 -25.5
q68 0 127.5 25.5t104.5 70t71 104t26 127.5q0 67 -26 126.5t-70.5 105t-104 71.5t-126.5 26q-69 0 -128.5 -26.5t-103.5 -72.5t-68.5 -105.5t-24.5 -125.5zM538 769l-114 129l17 2l-115 -131h-34l139 156h1l140 -156h-34z" />
    <glyph glyph-name="uni1ED0" unicode="&#x1ed0;" horiz-adv-x="863" 
d="M71 352q0 75 28 140.5t77.5 115.5t115 78t139.5 28t139.5 -28.5t115.5 -78t78.5 -115t28.5 -140.5q0 -74 -28.5 -139.5t-78 -115t-115 -77.5t-140.5 -28t-140 27t-114.5 75.5t-77.5 114t-28 143.5zM106 351q0 -67 25 -126.5t69.5 -104t103.5 -70t125 -25.5
q68 0 127.5 25.5t104.5 70t71 104t26 127.5q0 67 -26 126.5t-70.5 105t-104 71.5t-126.5 26q-69 0 -128.5 -26.5t-103.5 -72.5t-68.5 -105.5t-24.5 -125.5zM536 791l-114 129l17 2l-115 -131h-34l139 156h1l140 -156h-34zM649 1011l-99 -133h-27l88 133h38z" />
    <glyph glyph-name="uni1ED8" unicode="&#x1ed8;" horiz-adv-x="863" 
d="M71 352q0 75 28 140.5t77.5 115.5t115 78t139.5 28t139.5 -28.5t115.5 -78t78.5 -115t28.5 -140.5q0 -74 -28.5 -139.5t-78 -115t-115 -77.5t-140.5 -28t-140 27t-114.5 75.5t-77.5 114t-28 143.5zM106 351q0 -67 25 -126.5t69.5 -104t103.5 -70t125 -25.5
q68 0 127.5 25.5t104.5 70t71 104t26 127.5q0 67 -26 126.5t-70.5 105t-104 71.5t-126.5 26q-69 0 -128.5 -26.5t-103.5 -72.5t-68.5 -105.5t-24.5 -125.5zM402 -82q0 11 9 19t21 8q11 0 19.5 -8t8.5 -19q0 -12 -8.5 -20t-19.5 -8q-12 0 -21 8t-9 20zM538 769l-114 129l17 2
l-115 -131h-34l139 156h1l140 -156h-34z" />
    <glyph glyph-name="uni1ED2" unicode="&#x1ed2;" horiz-adv-x="863" 
d="M71 352q0 75 28 140.5t77.5 115.5t115 78t139.5 28t139.5 -28.5t115.5 -78t78.5 -115t28.5 -140.5q0 -74 -28.5 -139.5t-78 -115t-115 -77.5t-140.5 -28t-140 27t-114.5 75.5t-77.5 114t-28 143.5zM106 351q0 -67 25 -126.5t69.5 -104t103.5 -70t125 -25.5
q68 0 127.5 25.5t104.5 70t71 104t26 127.5q0 67 -26 126.5t-70.5 105t-104 71.5t-126.5 26q-69 0 -128.5 -26.5t-103.5 -72.5t-68.5 -105.5t-24.5 -125.5zM531 785l-114 129l17 2l-115 -131h-34l139 156h1l140 -156h-34zM190 1020h37l86 -133h-26z" />
    <glyph glyph-name="uni1ED4" unicode="&#x1ed4;" horiz-adv-x="863" 
d="M71 352q0 75 28 140.5t77.5 115.5t115 78t139.5 28t139.5 -28.5t115.5 -78t78.5 -115t28.5 -140.5q0 -74 -28.5 -139.5t-78 -115t-115 -77.5t-140.5 -28t-140 27t-114.5 75.5t-77.5 114t-28 143.5zM106 351q0 -67 25 -126.5t69.5 -104t103.5 -70t125 -25.5
q68 0 127.5 25.5t104.5 70t71 104t26 127.5q0 67 -26 126.5t-70.5 105t-104 71.5t-126.5 26q-69 0 -128.5 -26.5t-103.5 -72.5t-68.5 -105.5t-24.5 -125.5zM532 792l-114 129l17 2l-115 -131h-34l139 156h1l140 -156h-34zM541 885q22 19 37 34.5t15 35.5q0 19 -10 30.5
t-29 11.5q-18 0 -30 -8.5t-26 -27.5l-17 12q16 25 34.5 37t41.5 12q17 0 30.5 -7t22 -21t8.5 -37q0 -29 -18.5 -48.5t-44.5 -39.5z" />
    <glyph glyph-name="uni1ED6" unicode="&#x1ed6;" horiz-adv-x="863" 
d="M71 352q0 75 28 140.5t77.5 115.5t115 78t139.5 28t139.5 -28.5t115.5 -78t78.5 -115t28.5 -140.5q0 -74 -28.5 -139.5t-78 -115t-115 -77.5t-140.5 -28t-140 27t-114.5 75.5t-77.5 114t-28 143.5zM106 351q0 -67 25 -126.5t69.5 -104t103.5 -70t125 -25.5
q68 0 127.5 25.5t104.5 70t71 104t26 127.5q0 67 -26 126.5t-70.5 105t-104 71.5t-126.5 26q-69 0 -128.5 -26.5t-103.5 -72.5t-68.5 -105.5t-24.5 -125.5zM535 776l-114 129l17 2l-115 -131h-34l139 156h1l140 -156h-34zM501 951q-29 0 -47 14.5t-33 31.5q-13 14 -27 26
t-33 12q-12 0 -24 -8t-21 -27t-11 -54l-23 1q0 39 11.5 65t29.5 38.5t39 12.5q27 0 44.5 -14.5t32.5 -31.5q13 -15 27.5 -27t34.5 -12t35 19t17 71l23 -1q0 -39 -10 -65t-27 -38.5t-38 -12.5z" />
    <glyph glyph-name="uni020C" unicode="&#x20c;" horiz-adv-x="863" 
d="M71 352q0 75 28 140.5t77.5 115.5t115 78t139.5 28t139.5 -28.5t115.5 -78t78.5 -115t28.5 -140.5q0 -74 -28.5 -139.5t-78 -115t-115 -77.5t-140.5 -28t-140 27t-114.5 75.5t-77.5 114t-28 143.5zM106 351q0 -67 25 -126.5t69.5 -104t103.5 -70t125 -25.5
q68 0 127.5 25.5t104.5 70t71 104t26 127.5q0 67 -26 126.5t-70.5 105t-104 71.5t-126.5 26q-69 0 -128.5 -26.5t-103.5 -72.5t-68.5 -105.5t-24.5 -125.5zM278 905h37l86 -133h-26zM383 905h37l86 -133h-26z" />
    <glyph glyph-name="Odieresis" unicode="&#xd6;" horiz-adv-x="863" 
d="M71 352q0 75 28 140.5t77.5 115.5t115 78t139.5 28t139.5 -28.5t115.5 -78t78.5 -115t28.5 -140.5q0 -74 -28.5 -139.5t-78 -115t-115 -77.5t-140.5 -28t-140 27t-114.5 75.5t-77.5 114t-28 143.5zM106 351q0 -67 25 -126.5t69.5 -104t103.5 -70t125 -25.5
q68 0 127.5 25.5t104.5 70t71 104t26 127.5q0 67 -26 126.5t-70.5 105t-104 71.5t-126.5 26q-69 0 -128.5 -26.5t-103.5 -72.5t-68.5 -105.5t-24.5 -125.5zM317 792q0 11 8.5 19.5t19.5 8.5t19.5 -8.5t8.5 -20.5q0 -11 -8.5 -19.5t-19.5 -8.5t-19.5 8.5t-8.5 20.5v0z
M488 792q0 11 8.5 19.5t19.5 8.5q10 0 19 -8.5t9 -20.5q0 -11 -9 -19.5t-19 -8.5q-11 0 -19.5 8.5t-8.5 20.5v0z" />
    <glyph glyph-name="uni022A" unicode="&#x22a;" horiz-adv-x="863" 
d="M71 352q0 75 28 140.5t77.5 115.5t115 78t139.5 28t139.5 -28.5t115.5 -78t78.5 -115t28.5 -140.5q0 -74 -28.5 -139.5t-78 -115t-115 -77.5t-140.5 -28t-140 27t-114.5 75.5t-77.5 114t-28 143.5zM106 351q0 -67 25 -126.5t69.5 -104t103.5 -70t125 -25.5
q68 0 127.5 25.5t104.5 70t71 104t26 127.5q0 67 -26 126.5t-70.5 105t-104 71.5t-126.5 26q-69 0 -128.5 -26.5t-103.5 -72.5t-68.5 -105.5t-24.5 -125.5zM317 792q0 11 8.5 19.5t19.5 8.5t19.5 -8.5t8.5 -20.5q0 -11 -8.5 -19.5t-19.5 -8.5t-19.5 8.5t-8.5 20.5v0z
M488 792q0 11 8.5 19.5t19.5 8.5q10 0 19 -8.5t9 -20.5q0 -11 -9 -19.5t-19 -8.5q-11 0 -19.5 8.5t-8.5 20.5v0zM315 899h233v-27h-233v27z" />
    <glyph glyph-name="uni0230" unicode="&#x230;" horiz-adv-x="863" 
d="M71 352q0 75 28 140.5t77.5 115.5t115 78t139.5 28t139.5 -28.5t115.5 -78t78.5 -115t28.5 -140.5q0 -74 -28.5 -139.5t-78 -115t-115 -77.5t-140.5 -28t-140 27t-114.5 75.5t-77.5 114t-28 143.5zM106 351q0 -67 25 -126.5t69.5 -104t103.5 -70t125 -25.5
q68 0 127.5 25.5t104.5 70t71 104t26 127.5q0 67 -26 126.5t-70.5 105t-104 71.5t-126.5 26q-69 0 -128.5 -26.5t-103.5 -72.5t-68.5 -105.5t-24.5 -125.5zM403 791q0 11 9 19t21 8q11 0 19.5 -8t8.5 -19q0 -12 -8.5 -20t-19.5 -8q-12 0 -21 8t-9 20zM315 897h233v-27h-233
v27z" />
    <glyph glyph-name="uni1ECC" unicode="&#x1ecc;" horiz-adv-x="863" 
d="M71 352q0 75 28 140.5t77.5 115.5t115 78t139.5 28t139.5 -28.5t115.5 -78t78.5 -115t28.5 -140.5q0 -74 -28.5 -139.5t-78 -115t-115 -77.5t-140.5 -28t-140 27t-114.5 75.5t-77.5 114t-28 143.5zM106 351q0 -67 25 -126.5t69.5 -104t103.5 -70t125 -25.5
q68 0 127.5 25.5t104.5 70t71 104t26 127.5q0 67 -26 126.5t-70.5 105t-104 71.5t-126.5 26q-69 0 -128.5 -26.5t-103.5 -72.5t-68.5 -105.5t-24.5 -125.5zM402 -82q0 11 9 19t21 8q11 0 19.5 -8t8.5 -19q0 -12 -8.5 -20t-19.5 -8q-12 0 -21 8t-9 20z" />
    <glyph glyph-name="Ograve" unicode="&#xd2;" horiz-adv-x="863" 
d="M71 352q0 75 28 140.5t77.5 115.5t115 78t139.5 28t139.5 -28.5t115.5 -78t78.5 -115t28.5 -140.5q0 -74 -28.5 -139.5t-78 -115t-115 -77.5t-140.5 -28t-140 27t-114.5 75.5t-77.5 114t-28 143.5zM106 351q0 -67 25 -126.5t69.5 -104t103.5 -70t125 -25.5
q68 0 127.5 25.5t104.5 70t71 104t26 127.5q0 67 -26 126.5t-70.5 105t-104 71.5t-126.5 26q-69 0 -128.5 -26.5t-103.5 -72.5t-68.5 -105.5t-24.5 -125.5zM326 887h37l86 -133h-26z" />
    <glyph glyph-name="uni1ECE" unicode="&#x1ece;" horiz-adv-x="863" 
d="M71 352q0 75 28 140.5t77.5 115.5t115 78t139.5 28t139.5 -28.5t115.5 -78t78.5 -115t28.5 -140.5q0 -74 -28.5 -139.5t-78 -115t-115 -77.5t-140.5 -28t-140 27t-114.5 75.5t-77.5 114t-28 143.5zM106 351q0 -67 25 -126.5t69.5 -104t103.5 -70t125 -25.5
q68 0 127.5 25.5t104.5 70t71 104t26 127.5q0 67 -26 126.5t-70.5 105t-104 71.5t-126.5 26q-69 0 -128.5 -26.5t-103.5 -72.5t-68.5 -105.5t-24.5 -125.5zM434 752q22 19 37 34.5t15 35.5q0 19 -10 30.5t-29 11.5q-18 0 -30 -8.5t-26 -27.5l-17 12q16 25 34.5 37t41.5 12
q17 0 30.5 -7t22 -21t8.5 -37q0 -29 -18.5 -48.5t-44.5 -39.5z" />
    <glyph glyph-name="Ohorn" unicode="&#x1a0;" horiz-adv-x="863" 
d="M71 352q0 75 28 140.5t77.5 115.5t115 78t139.5 28t139.5 -28.5t115.5 -78t78.5 -115t28.5 -140.5q0 -74 -28.5 -139.5t-78 -115t-115 -77.5t-140.5 -28t-140 27t-114.5 75.5t-77.5 114t-28 143.5zM106 351q0 -67 25 -126.5t69.5 -104t103.5 -70t125 -25.5
q68 0 127.5 25.5t104.5 70t71 104t26 127.5q0 67 -26 126.5t-70.5 105t-104 71.5t-126.5 26q-69 0 -128.5 -26.5t-103.5 -72.5t-68.5 -105.5t-24.5 -125.5zM504 706q50 0 73.5 24.5t25.5 88.5h27q-1 -60 -17.5 -89t-44 -38.5t-64.5 -9.5v24z" />
    <glyph glyph-name="uni1EDA" unicode="&#x1eda;" horiz-adv-x="863" 
d="M71 352q0 75 28 140.5t77.5 115.5t115 78t139.5 28t139.5 -28.5t115.5 -78t78.5 -115t28.5 -140.5q0 -74 -28.5 -139.5t-78 -115t-115 -77.5t-140.5 -28t-140 27t-114.5 75.5t-77.5 114t-28 143.5zM106 351q0 -67 25 -126.5t69.5 -104t103.5 -70t125 -25.5
q68 0 127.5 25.5t104.5 70t71 104t26 127.5q0 67 -26 126.5t-70.5 105t-104 71.5t-126.5 26q-69 0 -128.5 -26.5t-103.5 -72.5t-68.5 -105.5t-24.5 -125.5zM504 706q50 0 73.5 24.5t25.5 88.5h27q-1 -60 -17.5 -89t-44 -38.5t-64.5 -9.5v24zM546 877l-99 -133h-27l88 133h38
z" />
    <glyph glyph-name="uni1EE2" unicode="&#x1ee2;" horiz-adv-x="863" 
d="M71 352q0 75 28 140.5t77.5 115.5t115 78t139.5 28t139.5 -28.5t115.5 -78t78.5 -115t28.5 -140.5q0 -74 -28.5 -139.5t-78 -115t-115 -77.5t-140.5 -28t-140 27t-114.5 75.5t-77.5 114t-28 143.5zM106 351q0 -67 25 -126.5t69.5 -104t103.5 -70t125 -25.5
q68 0 127.5 25.5t104.5 70t71 104t26 127.5q0 67 -26 126.5t-70.5 105t-104 71.5t-126.5 26q-69 0 -128.5 -26.5t-103.5 -72.5t-68.5 -105.5t-24.5 -125.5zM504 706q50 0 73.5 24.5t25.5 88.5h27q-1 -60 -17.5 -89t-44 -38.5t-64.5 -9.5v24zM402 -82q0 11 9 19t21 8
q11 0 19.5 -8t8.5 -19q0 -12 -8.5 -20t-19.5 -8q-12 0 -21 8t-9 20z" />
    <glyph glyph-name="uni1EDC" unicode="&#x1edc;" horiz-adv-x="863" 
d="M71 352q0 75 28 140.5t77.5 115.5t115 78t139.5 28t139.5 -28.5t115.5 -78t78.5 -115t28.5 -140.5q0 -74 -28.5 -139.5t-78 -115t-115 -77.5t-140.5 -28t-140 27t-114.5 75.5t-77.5 114t-28 143.5zM106 351q0 -67 25 -126.5t69.5 -104t103.5 -70t125 -25.5
q68 0 127.5 25.5t104.5 70t71 104t26 127.5q0 67 -26 126.5t-70.5 105t-104 71.5t-126.5 26q-69 0 -128.5 -26.5t-103.5 -72.5t-68.5 -105.5t-24.5 -125.5zM504 706q50 0 73.5 24.5t25.5 88.5h27q-1 -60 -17.5 -89t-44 -38.5t-64.5 -9.5v24zM326 887h37l86 -133h-26z" />
    <glyph glyph-name="uni1EDE" unicode="&#x1ede;" horiz-adv-x="863" 
d="M71 352q0 75 28 140.5t77.5 115.5t115 78t139.5 28t139.5 -28.5t115.5 -78t78.5 -115t28.5 -140.5q0 -74 -28.5 -139.5t-78 -115t-115 -77.5t-140.5 -28t-140 27t-114.5 75.5t-77.5 114t-28 143.5zM106 351q0 -67 25 -126.5t69.5 -104t103.5 -70t125 -25.5
q68 0 127.5 25.5t104.5 70t71 104t26 127.5q0 67 -26 126.5t-70.5 105t-104 71.5t-126.5 26q-69 0 -128.5 -26.5t-103.5 -72.5t-68.5 -105.5t-24.5 -125.5zM504 706q50 0 73.5 24.5t25.5 88.5h27q-1 -60 -17.5 -89t-44 -38.5t-64.5 -9.5v24zM434 752q22 19 37 34.5t15 35.5
q0 19 -10 30.5t-29 11.5q-18 0 -30 -8.5t-26 -27.5l-17 12q16 25 34.5 37t41.5 12q17 0 30.5 -7t22 -21t8.5 -37q0 -29 -18.5 -48.5t-44.5 -39.5z" />
    <glyph glyph-name="uni1EE0" unicode="&#x1ee0;" horiz-adv-x="863" 
d="M71 352q0 75 28 140.5t77.5 115.5t115 78t139.5 28t139.5 -28.5t115.5 -78t78.5 -115t28.5 -140.5q0 -74 -28.5 -139.5t-78 -115t-115 -77.5t-140.5 -28t-140 27t-114.5 75.5t-77.5 114t-28 143.5zM106 351q0 -67 25 -126.5t69.5 -104t103.5 -70t125 -25.5
q68 0 127.5 25.5t104.5 70t71 104t26 127.5q0 67 -26 126.5t-70.5 105t-104 71.5t-126.5 26q-69 0 -128.5 -26.5t-103.5 -72.5t-68.5 -105.5t-24.5 -125.5zM504 706q50 0 73.5 24.5t25.5 88.5h27q-1 -60 -17.5 -89t-44 -38.5t-64.5 -9.5v24zM505 774q-29 0 -46.5 14
t-33.5 32q-13 14 -26.5 26t-33.5 12q-11 0 -23.5 -8t-21.5 -27.5t-10 -54.5l-23 2q0 39 11 64.5t29 38.5t39 13q28 0 45.5 -15t31.5 -31q13 -16 27.5 -28t34.5 -12t35 19.5t18 71.5l23 -2q0 -39 -10.5 -65t-27.5 -38t-38 -12z" />
    <glyph glyph-name="Ohungarumlaut" unicode="&#x150;" horiz-adv-x="863" 
d="M71 352q0 75 28 140.5t77.5 115.5t115 78t139.5 28t139.5 -28.5t115.5 -78t78.5 -115t28.5 -140.5q0 -74 -28.5 -139.5t-78 -115t-115 -77.5t-140.5 -28t-140 27t-114.5 75.5t-77.5 114t-28 143.5zM106 351q0 -67 25 -126.5t69.5 -104t103.5 -70t125 -25.5
q68 0 127.5 25.5t104.5 70t71 104t26 127.5q0 67 -26 126.5t-70.5 105t-104 71.5t-126.5 26q-69 0 -128.5 -26.5t-103.5 -72.5t-68.5 -105.5t-24.5 -125.5zM496 898l-99 -133h-27l88 133h38zM602 897l-99 -133h-27l88 133h38z" />
    <glyph glyph-name="uni020E" unicode="&#x20e;" horiz-adv-x="863" 
d="M71 352q0 75 28 140.5t77.5 115.5t115 78t139.5 28t139.5 -28.5t115.5 -78t78.5 -115t28.5 -140.5q0 -74 -28.5 -139.5t-78 -115t-115 -77.5t-140.5 -28t-140 27t-114.5 75.5t-77.5 114t-28 143.5zM106 351q0 -67 25 -126.5t69.5 -104t103.5 -70t125 -25.5
q68 0 127.5 25.5t104.5 70t71 104t26 127.5q0 67 -26 126.5t-70.5 105t-104 71.5t-126.5 26q-69 0 -128.5 -26.5t-103.5 -72.5t-68.5 -105.5t-24.5 -125.5zM430 900q36 0 64.5 -21t46 -57t19.5 -84h-25q-2 37 -16 67.5t-37 49t-52 18.5t-51.5 -18.5t-35.5 -49t-15 -67.5h-26
q2 48 19 84t45 57t64 21z" />
    <glyph glyph-name="Omacron" unicode="&#x14c;" horiz-adv-x="863" 
d="M71 352q0 75 28 140.5t77.5 115.5t115 78t139.5 28t139.5 -28.5t115.5 -78t78.5 -115t28.5 -140.5q0 -74 -28.5 -139.5t-78 -115t-115 -77.5t-140.5 -28t-140 27t-114.5 75.5t-77.5 114t-28 143.5zM106 351q0 -67 25 -126.5t69.5 -104t103.5 -70t125 -25.5
q68 0 127.5 25.5t104.5 70t71 104t26 127.5q0 67 -26 126.5t-70.5 105t-104 71.5t-126.5 26q-69 0 -128.5 -26.5t-103.5 -72.5t-68.5 -105.5t-24.5 -125.5zM315 786h233v-27h-233v27z" />
    <glyph glyph-name="uni01EA" unicode="&#x1ea;" horiz-adv-x="863" 
d="M431 -8q-74 0 -139.5 27t-115 75.5t-77.5 114t-28 143.5q0 75 28 140.5t77.5 115.5t115 78t139.5 28t139.5 -28.5t115.5 -78t78.5 -115t28.5 -140.5q0 -71 -20.5 -125t-53 -94t-69.5 -68q-35 -26 -68.5 -44.5t-61 -36t-44 -39t-16.5 -52.5q0 -28 16.5 -43.5t36.5 -15.5
t35.5 13t27.5 33l16 -17q-11 -23 -33 -39.5t-49 -16.5q-32 0 -56.5 22t-24.5 59q0 35 17 59t43 41.5t53 28.5l17 1q-23 -11 -60 -18.5t-68 -7.5zM432 25q67 0 126 25.5t103.5 70t70.5 104t26 127.5q0 67 -26 126.5t-70.5 105t-104 71t-126.5 25.5q-69 0 -128.5 -26
t-103.5 -72.5t-68.5 -105.5t-24.5 -125q0 -67 25 -126.5t70 -104t104 -70t127 -25.5z" />
    <glyph glyph-name="Oslash" unicode="&#xd8;" horiz-adv-x="857" 
d="M730 703l-594 -707l-21 20l594 707zM71 352q0 75 28 140.5t77.5 115.5t115 78t139.5 28t139.5 -28.5t115.5 -78t78.5 -115t28.5 -140.5q0 -74 -28.5 -139.5t-78 -115t-115 -77.5t-140.5 -28t-140 27t-114.5 75.5t-77.5 114t-28 143.5zM106 351q0 -67 25 -126.5t69.5 -104
t103.5 -70t125 -25.5q68 0 127.5 25.5t104.5 70t71 104t26 127.5q0 67 -26 126.5t-70.5 105t-104 71.5t-126.5 26q-69 0 -128.5 -26.5t-103.5 -72.5t-68.5 -105.5t-24.5 -125.5z" />
    <glyph glyph-name="Oslashacute" unicode="&#x1fe;" horiz-adv-x="857" 
d="M730 703l-594 -707l-21 20l594 707zM71 352q0 75 28 140.5t77.5 115.5t115 78t139.5 28t139.5 -28.5t115.5 -78t78.5 -115t28.5 -140.5q0 -74 -28.5 -139.5t-78 -115t-115 -77.5t-140.5 -28t-140 27t-114.5 75.5t-77.5 114t-28 143.5zM106 351q0 -67 25 -126.5t69.5 -104
t103.5 -70t125 -25.5q68 0 127.5 25.5t104.5 70t71 104t26 127.5q0 67 -26 126.5t-70.5 105t-104 71.5t-126.5 26q-69 0 -128.5 -26.5t-103.5 -72.5t-68.5 -105.5t-24.5 -125.5zM542 876l-99 -133h-27l88 133h38z" />
    <glyph glyph-name="Otilde" unicode="&#xd5;" horiz-adv-x="863" 
d="M71 352q0 75 28 140.5t77.5 115.5t115 78t139.5 28t139.5 -28.5t115.5 -78t78.5 -115t28.5 -140.5q0 -74 -28.5 -139.5t-78 -115t-115 -77.5t-140.5 -28t-140 27t-114.5 75.5t-77.5 114t-28 143.5zM106 351q0 -67 25 -126.5t69.5 -104t103.5 -70t125 -25.5
q68 0 127.5 25.5t104.5 70t71 104t26 127.5q0 67 -26 126.5t-70.5 105t-104 71.5t-126.5 26q-69 0 -128.5 -26.5t-103.5 -72.5t-68.5 -105.5t-24.5 -125.5zM505 774q-29 0 -46.5 14t-33.5 32q-13 14 -26.5 26t-33.5 12q-11 0 -23.5 -8t-21.5 -27.5t-10 -54.5l-23 2
q0 39 11 64.5t29 38.5t39 13q28 0 45.5 -15t31.5 -31q13 -16 27.5 -28t34.5 -12t35 19.5t18 71.5l23 -2q0 -39 -10.5 -65t-27.5 -38t-38 -12z" />
    <glyph glyph-name="uni022C" unicode="&#x22c;" horiz-adv-x="863" 
d="M71 352q0 75 28 140.5t77.5 115.5t115 78t139.5 28t139.5 -28.5t115.5 -78t78.5 -115t28.5 -140.5q0 -74 -28.5 -139.5t-78 -115t-115 -77.5t-140.5 -28t-140 27t-114.5 75.5t-77.5 114t-28 143.5zM106 351q0 -67 25 -126.5t69.5 -104t103.5 -70t125 -25.5
q68 0 127.5 25.5t104.5 70t71 104t26 127.5q0 67 -26 126.5t-70.5 105t-104 71.5t-126.5 26q-69 0 -128.5 -26.5t-103.5 -72.5t-68.5 -105.5t-24.5 -125.5zM505 774q-29 0 -46.5 14t-33.5 32q-13 14 -26.5 26t-33.5 12q-11 0 -23.5 -8t-21.5 -27.5t-10 -54.5l-23 2
q0 39 11 64.5t29 38.5t39 13q28 0 45.5 -15t31.5 -31q13 -16 27.5 -28t34.5 -12t35 19.5t18 71.5l23 -2q0 -39 -10.5 -65t-27.5 -38t-38 -12zM315 974h233v-27h-233v27z" />
    <glyph glyph-name="OE" unicode="&#x152;" horiz-adv-x="1010" 
d="M508 672q-17 4 -35 6t-37 2q-66 0 -125 -26t-104 -71t-70 -105t-25 -127t25 -126.5t70 -104t104 -70t127 -25.5q33 0 69 9l19 -31q-22 -5 -44.5 -8t-45.5 -3q-74 0 -139.5 28t-115 77.5t-77.5 115t-28 139.5q0 75 28 140.5t77.5 115.5t115 78t139.5 28q24 0 47 -3t45 -9z
M501 706h399v-33h-363v-301h324v-33h-324v-305h377v-34h-413v706z" />
    <glyph glyph-name="P" unicode="P" horiz-adv-x="542" 
d="M271 706q62 0 109.5 -21t74.5 -64.5t27 -108.5q0 -39 -12.5 -75.5t-39.5 -65.5t-68.5 -46.5t-100.5 -17.5h-110v-307h-35v706h155zM261 341q55 0 91.5 17t57 44t29.5 56t9 55q0 37 -12 66.5t-35 50t-55.5 32t-72.5 11.5h-122v-332h110z" />
    <glyph glyph-name="Thorn" unicode="&#xde;" horiz-adv-x="542" 
d="M274 548q34 0 71 -11t68 -34t50 -59.5t19 -89.5q0 -39 -12.5 -75.5t-38.5 -65.5t-68 -46.5t-100 -17.5h-112v-149h-35v703h35v-155h123zM263 183q54 0 89.5 16.5t56 43.5t29.5 56.5t9 55.5q0 46 -23.5 82t-64.5 56.5t-95 20.5h-113v-331h112z" />
    <glyph glyph-name="Q" unicode="Q" horiz-adv-x="881" 
d="M536 33h274v-33h-325zM71 352q0 75 28 140.5t77.5 115.5t115 78t139.5 28t139.5 -28.5t115.5 -78t78.5 -115t28.5 -140.5q0 -74 -28.5 -139.5t-78 -115t-115 -77.5t-140.5 -28t-140 27t-114.5 75.5t-77.5 114t-28 143.5zM106 351q0 -67 25 -126.5t69.5 -104t103.5 -70
t125 -25.5q68 0 127.5 25.5t104.5 70t71 104t26 127.5q0 67 -26 126.5t-70.5 105t-104 71t-126.5 25.5q-69 0 -128.5 -26t-103.5 -72.5t-68.5 -105.5t-24.5 -125z" />
    <glyph glyph-name="R" unicode="R" horiz-adv-x="625" 
d="M269 706q35 0 72.5 -10.5t69.5 -34t52 -60.5t20 -89q0 -39 -12 -75.5t-38 -65.5t-68 -46.5t-104 -17.5h-110v-307h-35v706h153zM258 341q57 0 93.5 15.5t57.5 40.5t30 54.5t9 58.5q0 35 -13 64.5t-36.5 51.5t-55.5 34.5t-70 12.5h-122v-332h107zM355 329l199 -329h-40
l-200 328z" />
    <glyph glyph-name="Racute" unicode="&#x154;" horiz-adv-x="625" 
d="M269 706q35 0 72.5 -10.5t69.5 -34t52 -60.5t20 -89q0 -39 -12 -75.5t-38 -65.5t-68 -46.5t-104 -17.5h-110v-307h-35v706h153zM258 341q57 0 93.5 15.5t57.5 40.5t30 54.5t9 58.5q0 35 -13 64.5t-36.5 51.5t-55.5 34.5t-70 12.5h-122v-332h107zM355 329l199 -329h-40
l-200 328zM384 879l-99 -133h-27l88 133h38z" />
    <glyph glyph-name="Rcaron" unicode="&#x158;" horiz-adv-x="625" 
d="M269 706q35 0 72.5 -10.5t69.5 -34t52 -60.5t20 -89q0 -39 -12 -75.5t-38 -65.5t-68 -46.5t-104 -17.5h-110v-307h-35v706h153zM258 341q57 0 93.5 15.5t57.5 40.5t30 54.5t9 58.5q0 35 -13 64.5t-36.5 51.5t-55.5 34.5t-70 12.5h-122v-332h107zM355 329l199 -329h-40
l-200 328zM163 901l114 -130l-17 -2l115 132h35l-140 -155h-1l-140 155h34z" />
    <glyph glyph-name="uni0156" unicode="&#x156;" horiz-adv-x="625" 
d="M269 706q35 0 72.5 -10.5t69.5 -34t52 -60.5t20 -89q0 -39 -12 -75.5t-38 -65.5t-68 -46.5t-104 -17.5h-110v-307h-35v706h153zM258 341q57 0 93.5 15.5t57.5 40.5t30 54.5t9 58.5q0 35 -13 64.5t-36.5 51.5t-55.5 34.5t-70 12.5h-122v-332h107zM355 329l199 -329h-40
l-200 328zM233 -190l-17 14q27 20 38 54t6 76h34q2 -26 -2 -54t-18 -51.5t-41 -38.5z" />
    <glyph glyph-name="uni0210" unicode="&#x210;" horiz-adv-x="625" 
d="M269 706q35 0 72.5 -10.5t69.5 -34t52 -60.5t20 -89q0 -39 -12 -75.5t-38 -65.5t-68 -46.5t-104 -17.5h-110v-307h-35v706h153zM258 341q57 0 93.5 15.5t57.5 40.5t30 54.5t9 58.5q0 35 -13 64.5t-36.5 51.5t-55.5 34.5t-70 12.5h-122v-332h107zM355 329l199 -329h-40
l-200 328zM116 907h37l86 -133h-26zM221 907h37l86 -133h-26z" />
    <glyph glyph-name="uni0212" unicode="&#x212;" horiz-adv-x="625" 
d="M269 706q35 0 72.5 -10.5t69.5 -34t52 -60.5t20 -89q0 -39 -12 -75.5t-38 -65.5t-68 -46.5t-104 -17.5h-110v-307h-35v706h153zM258 341q57 0 93.5 15.5t57.5 40.5t30 54.5t9 58.5q0 35 -13 64.5t-36.5 51.5t-55.5 34.5t-70 12.5h-122v-332h107zM355 329l199 -329h-40
l-200 328zM268 902q36 0 64.5 -21t46 -57t19.5 -84h-25q-2 37 -16 67.5t-37 49t-52 18.5t-51.5 -18.5t-35.5 -49t-15 -67.5h-26q2 48 19 84t45 57t64 21z" />
    <glyph glyph-name="S" unicode="S" horiz-adv-x="566" 
d="M458 641q-30 13 -75 26t-91 13q-73 0 -117.5 -37.5t-44.5 -92.5q0 -42 25 -69.5t64.5 -46.5t85.5 -36q35 -13 70 -29t63.5 -39t45 -56.5t16.5 -82.5q0 -60 -28 -105t-77 -69.5t-112 -24.5q-55 0 -98.5 13.5t-74.5 31t-47 27.5l17 29q21 -15 53 -31.5t69.5 -27.5t76.5 -11
q46 0 88.5 18t70 55t27.5 94q0 54 -26.5 87.5t-67.5 54.5t-87 38q-35 12 -68.5 26.5t-60.5 34.5t-43.5 48t-16.5 67q0 49 25.5 85.5t69 57.5t98.5 21q44 0 95 -12t88 -30z" />
    <glyph glyph-name="Sacute" unicode="&#x15a;" horiz-adv-x="566" 
d="M458 641q-30 13 -75 26t-91 13q-73 0 -117.5 -37.5t-44.5 -92.5q0 -42 25 -69.5t64.5 -46.5t85.5 -36q35 -13 70 -29t63.5 -39t45 -56.5t16.5 -82.5q0 -60 -28 -105t-77 -69.5t-112 -24.5q-55 0 -98.5 13.5t-74.5 31t-47 27.5l17 29q21 -15 53 -31.5t69.5 -27.5t76.5 -11
q46 0 88.5 18t70 55t27.5 94q0 54 -26.5 87.5t-67.5 54.5t-87 38q-35 12 -68.5 26.5t-60.5 34.5t-43.5 48t-16.5 67q0 49 25.5 85.5t69 57.5t98.5 21q44 0 95 -12t88 -30zM398 893l-99 -133h-27l88 133h38z" />
    <glyph glyph-name="Scaron" unicode="&#x160;" horiz-adv-x="566" 
d="M458 641q-30 13 -75 26t-91 13q-73 0 -117.5 -37.5t-44.5 -92.5q0 -42 25 -69.5t64.5 -46.5t85.5 -36q35 -13 70 -29t63.5 -39t45 -56.5t16.5 -82.5q0 -60 -28 -105t-77 -69.5t-112 -24.5q-55 0 -98.5 13.5t-74.5 31t-47 27.5l17 29q21 -15 53 -31.5t69.5 -27.5t76.5 -11
q46 0 88.5 18t70 55t27.5 94q0 54 -26.5 87.5t-67.5 54.5t-87 38q-35 12 -68.5 26.5t-60.5 34.5t-43.5 48t-16.5 67q0 49 25.5 85.5t69 57.5t98.5 21q44 0 95 -12t88 -30zM177 914l114 -130l-17 -2l115 132h35l-140 -155h-1l-140 155h34z" />
    <glyph glyph-name="Scedilla" unicode="&#x15e;" horiz-adv-x="566" 
d="M458 641q-30 13 -75 26t-91 13q-73 0 -117.5 -37.5t-44.5 -92.5q0 -42 25 -69.5t64.5 -46.5t85.5 -36q35 -13 70 -29t63.5 -39t45 -56.5t16.5 -82.5q0 -60 -28 -105t-77 -69.5t-112 -24.5q-55 0 -98.5 13.5t-74.5 31t-47 27.5l17 29q21 -15 53 -31.5t69.5 -27.5t76.5 -11
q46 0 88.5 18t70 55t27.5 94q0 54 -26.5 87.5t-67.5 54.5t-87 38q-35 12 -68.5 26.5t-60.5 34.5t-43.5 48t-16.5 67q0 49 25.5 85.5t69 57.5t98.5 21q44 0 95 -12t88 -30zM206 -178q11 -11 30 -18.5t45 -7.5q38 0 61.5 15t23.5 43q0 25 -19 42.5t-60 17.5q-16 0 -37.5 -4.5
t-33.5 -9.5l-15 19l72 83l26 -7l-67 -83l-16 7q11 7 33.5 12.5t42.5 5.5q50 0 78 -21t28 -61q0 -28 -15.5 -46t-41 -27t-57.5 -9q-29 0 -53 8.5t-39 21.5z" />
    <glyph glyph-name="Scircumflex" unicode="&#x15c;" horiz-adv-x="566" 
d="M458 641q-30 13 -75 26t-91 13q-73 0 -117.5 -37.5t-44.5 -92.5q0 -42 25 -69.5t64.5 -46.5t85.5 -36q35 -13 70 -29t63.5 -39t45 -56.5t16.5 -82.5q0 -60 -28 -105t-77 -69.5t-112 -24.5q-55 0 -98.5 13.5t-74.5 31t-47 27.5l17 29q21 -15 53 -31.5t69.5 -27.5t76.5 -11
q46 0 88.5 18t70 55t27.5 94q0 54 -26.5 87.5t-67.5 54.5t-87 38q-35 12 -68.5 26.5t-60.5 34.5t-43.5 48t-16.5 67q0 49 25.5 85.5t69 57.5t98.5 21q44 0 95 -12t88 -30zM390 784l-114 129l17 2l-115 -131h-34l139 156h1l140 -156h-34z" />
    <glyph glyph-name="uni0218" unicode="&#x218;" horiz-adv-x="566" 
d="M458 641q-30 13 -75 26t-91 13q-73 0 -117.5 -37.5t-44.5 -92.5q0 -42 25 -69.5t64.5 -46.5t85.5 -36q35 -13 70 -29t63.5 -39t45 -56.5t16.5 -82.5q0 -60 -28 -105t-77 -69.5t-112 -24.5q-55 0 -98.5 13.5t-74.5 31t-47 27.5l17 29q21 -15 53 -31.5t69.5 -27.5t76.5 -11
q46 0 88.5 18t70 55t27.5 94q0 54 -26.5 87.5t-67.5 54.5t-87 38q-35 12 -68.5 26.5t-60.5 34.5t-43.5 48t-16.5 67q0 49 25.5 85.5t69 57.5t98.5 21q44 0 95 -12t88 -30zM241 -192l-17 14q27 20 38 54t6 76h34q2 -26 -2 -54t-18 -51.5t-41 -38.5z" />
    <glyph glyph-name="uni1E9E" unicode="&#x1e9e;" horiz-adv-x="838" 
d="M578 -8q-63 0 -109.5 15.5t-77.5 34.5l14 28q35 -20 79.5 -33.5t93.5 -13.5q32 0 67 15t59 44t24 72q0 37 -21.5 61.5t-54.5 43t-68 39.5q-43 21 -82 46t-63.5 59t-24.5 80q0 41 17 77t54 60.5t96 27.5q36 0 54 -8.5t32 -16.5l-12 -15q-43 39 -104.5 61t-123.5 22
q-82 0 -144.5 -35.5t-97 -111t-34.5 -192.5v-352h-35v356q0 108 32.5 190t100.5 128.5t174 46.5q61 0 114.5 -16.5t94.5 -41.5t66 -53l-13 -25q-9 6 -35 21t-65 15q-36 0 -67 -17t-49.5 -46t-18.5 -66q0 -42 22.5 -71t57.5 -51.5t75 -43.5q29 -16 57.5 -32t51 -34.5
t36.5 -44t14 -60.5q0 -44 -23.5 -81t-65 -59.5t-97.5 -22.5z" />
    <glyph glyph-name="uni018F" unicode="&#x18f;" horiz-adv-x="808" 
d="M375 715q77 0 143 -28t115.5 -77.5t76.5 -115t27 -141.5q0 -75 -28 -140.5t-78 -114.5t-116 -77t-141 -28q-79 0 -141 30.5t-106.5 84.5t-69.5 124l631 250l10 -28l-611 -244l12 15q37 -90 109.5 -145t167.5 -55q67 0 126.5 25.5t104 70.5t70 104.5t25.5 126.5
q0 64 -24 123t-67.5 105t-104 73t-132.5 27q-42 0 -84.5 -12.5t-80 -33.5t-65.5 -48l-20 26q32 31 72.5 53.5t86.5 36t92 13.5z" />
    <glyph glyph-name="T" unicode="T" horiz-adv-x="576" 
d="M57 706h461v-33h-213v-673h-35v673h-213v33z" />
    <glyph glyph-name="Tbar" unicode="&#x166;" horiz-adv-x="576" 
d="M57 706h461v-33h-213v-673h-35v673h-213v33zM169 368h236v-32h-236v32z" />
    <glyph glyph-name="Tcaron" unicode="&#x164;" horiz-adv-x="576" 
d="M57 706h461v-33h-213v-673h-35v673h-213v33zM181 898l114 -130l-17 -2l115 132h35l-140 -155h-1l-140 155h34z" />
    <glyph glyph-name="uni0162" unicode="&#x162;" horiz-adv-x="576" 
d="M57 706h461v-33h-213v-673h-35v673h-213v33zM210 -176q11 -11 30 -18.5t45 -7.5q38 0 61.5 15t23.5 43q0 25 -19 42.5t-60 17.5q-16 0 -37.5 -4.5t-33.5 -9.5l-15 19l72 83l26 -7l-67 -83l-16 7q11 7 33.5 12.5t42.5 5.5q50 0 78 -21t28 -61q0 -28 -15.5 -46t-41 -27
t-57.5 -9q-29 0 -53 8.5t-39 21.5z" />
    <glyph glyph-name="uni021A" unicode="&#x21a;" horiz-adv-x="576" 
d="M57 706h461v-33h-213v-673h-35v673h-213v33zM245 -190l-17 14q27 20 38 54t6 76h34q2 -26 -2 -54t-18 -51.5t-41 -38.5z" />
    <glyph glyph-name="U" unicode="U" horiz-adv-x="700" 
d="M148 235q0 -66 26.5 -113t72 -72t103.5 -25t104 25t72 72t26 113v471h35v-473q0 -77 -31.5 -131t-85 -82t-120.5 -28v0q-67 0 -121 28t-85 82t-31 131v473h35v-471z" />
    <glyph glyph-name="Uacute" unicode="&#xda;" horiz-adv-x="700" 
d="M148 235q0 -66 26.5 -113t72 -72t103.5 -25t104 25t72 72t26 113v471h35v-473q0 -77 -31.5 -131t-85 -82t-120.5 -28v0q-67 0 -121 28t-85 82t-31 131v473h35v-471zM464 879l-99 -133h-27l88 133h38z" />
    <glyph glyph-name="Ubreve" unicode="&#x16c;" horiz-adv-x="700" 
d="M148 235q0 -66 26.5 -113t72 -72t103.5 -25t104 25t72 72t26 113v471h35v-473q0 -77 -31.5 -131t-85 -82t-120.5 -28v0q-67 0 -121 28t-85 82t-31 131v473h35v-471zM352 759q-36 0 -64.5 20.5t-45.5 57.5t-20 84h26q2 -36 15.5 -67t36.5 -49.5t52 -18.5q30 0 52 18.5
t35 49.5t15 67h26q-1 -48 -18.5 -84.5t-45.5 -57t-64 -20.5z" />
    <glyph glyph-name="uni01D3" unicode="&#x1d3;" horiz-adv-x="700" 
d="M148 235q0 -66 26.5 -113t72 -72t103.5 -25t104 25t72 72t26 113v471h35v-473q0 -77 -31.5 -131t-85 -82t-120.5 -28v0q-67 0 -121 28t-85 82t-31 131v473h35v-471zM243 901l114 -130l-17 -2l115 132h35l-140 -155h-1l-140 155h34z" />
    <glyph glyph-name="Ucircumflex" unicode="&#xdb;" horiz-adv-x="700" 
d="M148 235q0 -66 26.5 -113t72 -72t103.5 -25t104 25t72 72t26 113v471h35v-473q0 -77 -31.5 -131t-85 -82t-120.5 -28v0q-67 0 -121 28t-85 82t-31 131v473h35v-471zM457 771l-114 129l17 2l-115 -131h-34l139 156h1l140 -156h-34z" />
    <glyph glyph-name="uni0214" unicode="&#x214;" horiz-adv-x="700" 
d="M148 235q0 -66 26.5 -113t72 -72t103.5 -25t104 25t72 72t26 113v471h35v-473q0 -77 -31.5 -131t-85 -82t-120.5 -28v0q-67 0 -121 28t-85 82t-31 131v473h35v-471zM196 907h37l86 -133h-26zM301 907h37l86 -133h-26z" />
    <glyph glyph-name="Udieresis" unicode="&#xdc;" horiz-adv-x="700" 
d="M148 235q0 -66 26.5 -113t72 -72t103.5 -25t104 25t72 72t26 113v471h35v-473q0 -77 -31.5 -131t-85 -82t-120.5 -28v0q-67 0 -121 28t-85 82t-31 131v473h35v-471zM236 794q0 11 8.5 19.5t19.5 8.5t19.5 -8.5t8.5 -20.5q0 -11 -8.5 -19.5t-19.5 -8.5t-19.5 8.5
t-8.5 20.5v0zM407 794q0 11 8.5 19.5t19.5 8.5q10 0 19 -8.5t9 -20.5q0 -11 -9 -19.5t-19 -8.5q-11 0 -19.5 8.5t-8.5 20.5v0z" />
    <glyph glyph-name="uni1EE4" unicode="&#x1ee4;" horiz-adv-x="700" 
d="M148 235q0 -66 26.5 -113t72 -72t103.5 -25t104 25t72 72t26 113v471h35v-473q0 -77 -31.5 -131t-85 -82t-120.5 -28v0q-67 0 -121 28t-85 82t-31 131v473h35v-471zM321 -82q0 11 9 19t21 8q11 0 19.5 -8t8.5 -19q0 -12 -8.5 -20t-19.5 -8q-12 0 -21 8t-9 20z" />
    <glyph glyph-name="Ugrave" unicode="&#xd9;" horiz-adv-x="700" 
d="M148 235q0 -66 26.5 -113t72 -72t103.5 -25t104 25t72 72t26 113v471h35v-473q0 -77 -31.5 -131t-85 -82t-120.5 -28v0q-67 0 -121 28t-85 82t-31 131v473h35v-471zM244 889h37l86 -133h-26z" />
    <glyph glyph-name="uni1EE6" unicode="&#x1ee6;" horiz-adv-x="700" 
d="M148 235q0 -66 26.5 -113t72 -72t103.5 -25t104 25t72 72t26 113v471h35v-473q0 -77 -31.5 -131t-85 -82t-120.5 -28v0q-67 0 -121 28t-85 82t-31 131v473h35v-471zM352 754q22 19 37 34.5t15 35.5q0 19 -10 30.5t-29 11.5q-18 0 -30 -8.5t-26 -27.5l-17 12
q16 25 34.5 37t41.5 12q17 0 30.5 -7t22 -21t8.5 -37q0 -29 -18.5 -48.5t-44.5 -39.5z" />
    <glyph glyph-name="Uhorn" unicode="&#x1af;" horiz-adv-x="700" 
d="M148 235q0 -66 26.5 -113t72 -72t103.5 -25t104 25t72 72t26 113v471h35v-473q0 -77 -31.5 -131t-85 -82t-120.5 -28v0q-67 0 -121 28t-85 82t-31 131v473h35v-471zM573 694q50 0 73.5 24.5t25.5 88.5h27q-1 -60 -17.5 -89t-44 -38.5t-64.5 -9.5v24z" />
    <glyph glyph-name="uni1EE8" unicode="&#x1ee8;" horiz-adv-x="700" 
d="M148 235q0 -66 26.5 -113t72 -72t103.5 -25t104 25t72 72t26 113v471h35v-473q0 -77 -31.5 -131t-85 -82t-120.5 -28v0q-67 0 -121 28t-85 82t-31 131v473h35v-471zM573 694q50 0 73.5 24.5t25.5 88.5h27q-1 -60 -17.5 -89t-44 -38.5t-64.5 -9.5v24zM464 879l-99 -133
h-27l88 133h38z" />
    <glyph glyph-name="uni1EF0" unicode="&#x1ef0;" horiz-adv-x="700" 
d="M148 235q0 -66 26.5 -113t72 -72t103.5 -25t104 25t72 72t26 113v471h35v-473q0 -77 -31.5 -131t-85 -82t-120.5 -28v0q-67 0 -121 28t-85 82t-31 131v473h35v-471zM573 694q50 0 73.5 24.5t25.5 88.5h27q-1 -60 -17.5 -89t-44 -38.5t-64.5 -9.5v24zM321 -82q0 11 9 19
t21 8q11 0 19.5 -8t8.5 -19q0 -12 -8.5 -20t-19.5 -8q-12 0 -21 8t-9 20z" />
    <glyph glyph-name="uni1EEA" unicode="&#x1eea;" horiz-adv-x="700" 
d="M148 235q0 -66 26.5 -113t72 -72t103.5 -25t104 25t72 72t26 113v471h35v-473q0 -77 -31.5 -131t-85 -82t-120.5 -28v0q-67 0 -121 28t-85 82t-31 131v473h35v-471zM573 694q50 0 73.5 24.5t25.5 88.5h27q-1 -60 -17.5 -89t-44 -38.5t-64.5 -9.5v24zM244 889h37l86 -133
h-26z" />
    <glyph glyph-name="uni1EEC" unicode="&#x1eec;" horiz-adv-x="700" 
d="M148 235q0 -66 26.5 -113t72 -72t103.5 -25t104 25t72 72t26 113v471h35v-473q0 -77 -31.5 -131t-85 -82t-120.5 -28v0q-67 0 -121 28t-85 82t-31 131v473h35v-471zM573 694q50 0 73.5 24.5t25.5 88.5h27q-1 -60 -17.5 -89t-44 -38.5t-64.5 -9.5v24zM352 754
q22 19 37 34.5t15 35.5q0 19 -10 30.5t-29 11.5q-18 0 -30 -8.5t-26 -27.5l-17 12q16 25 34.5 37t41.5 12q17 0 30.5 -7t22 -21t8.5 -37q0 -29 -18.5 -48.5t-44.5 -39.5z" />
    <glyph glyph-name="uni1EEE" unicode="&#x1eee;" horiz-adv-x="700" 
d="M148 235q0 -66 26.5 -113t72 -72t103.5 -25t104 25t72 72t26 113v471h35v-473q0 -77 -31.5 -131t-85 -82t-120.5 -28v0q-67 0 -121 28t-85 82t-31 131v473h35v-471zM573 694q50 0 73.5 24.5t25.5 88.5h27q-1 -60 -17.5 -89t-44 -38.5t-64.5 -9.5v24zM423 775
q-29 0 -46.5 14t-33.5 32q-13 14 -26.5 26t-33.5 12q-11 0 -23.5 -8t-21.5 -27.5t-10 -54.5l-23 2q0 39 11 64.5t29 38.5t39 13q28 0 45.5 -15t31.5 -31q13 -16 27.5 -28t34.5 -12t35 19.5t18 71.5l23 -2q0 -39 -10.5 -65t-27.5 -38t-38 -12z" />
    <glyph glyph-name="Uhungarumlaut" unicode="&#x170;" horiz-adv-x="700" 
d="M148 235q0 -66 26.5 -113t72 -72t103.5 -25t104 25t72 72t26 113v471h35v-473q0 -77 -31.5 -131t-85 -82t-120.5 -28v0q-67 0 -121 28t-85 82t-31 131v473h35v-471zM415 900l-99 -133h-27l88 133h38zM521 899l-99 -133h-27l88 133h38z" />
    <glyph glyph-name="uni0216" unicode="&#x216;" horiz-adv-x="700" 
d="M148 235q0 -66 26.5 -113t72 -72t103.5 -25t104 25t72 72t26 113v471h35v-473q0 -77 -31.5 -131t-85 -82t-120.5 -28v0q-67 0 -121 28t-85 82t-31 131v473h35v-471zM348 902q36 0 64.5 -21t46 -57t19.5 -84h-25q-2 37 -16 67.5t-37 49t-52 18.5t-51.5 -18.5t-35.5 -49
t-15 -67.5h-26q2 48 19 84t45 57t64 21z" />
    <glyph glyph-name="Umacron" unicode="&#x16a;" horiz-adv-x="700" 
d="M148 235q0 -66 26.5 -113t72 -72t103.5 -25t104 25t72 72t26 113v471h35v-473q0 -77 -31.5 -131t-85 -82t-120.5 -28v0q-67 0 -121 28t-85 82t-31 131v473h35v-471zM233 788h233v-27h-233v27z" />
    <glyph glyph-name="Uogonek" unicode="&#x172;" horiz-adv-x="700" 
d="M445 -193q-32 0 -56.5 22.5t-24.5 60.5q0 33 18.5 66.5t48.5 54.5l12 10v-12q-40 -17 -93 -17q-68 0 -121.5 28t-84.5 82t-31 131v473h35v-471q0 -66 26.5 -113t72 -72t103.5 -25t104 25t72 72t26 113v471h35v-474q0 -49 -13.5 -87.5t-36 -67t-52.5 -49.5
q-42 -31 -66.5 -64.5t-24.5 -71.5q0 -27 17 -42.5t37 -15.5q19 0 35 13t27 33l18 -17q-12 -23 -34.5 -39.5t-48.5 -16.5z" />
    <glyph glyph-name="Uring" unicode="&#x16e;" horiz-adv-x="700" 
d="M148 235q0 -66 26.5 -113t72 -72t103.5 -25t104 25t72 72t26 113v471h35v-473q0 -77 -31.5 -131t-85 -82t-120.5 -28v0q-67 0 -121 28t-85 82t-31 131v473h35v-471zM281 841q0 30 20 50t50 20q31 0 50.5 -20t19.5 -50t-19.5 -49.5t-50.5 -19.5q-30 0 -50 19.5t-20 49.5z
M303 841q0 -19 14.5 -33.5t33.5 -14.5t33 14.5t14 33.5q0 20 -14 34t-32 14q-20 0 -34.5 -14t-14.5 -34z" />
    <glyph glyph-name="Utilde" unicode="&#x168;" horiz-adv-x="700" 
d="M148 235q0 -66 26.5 -113t72 -72t103.5 -25t104 25t72 72t26 113v471h35v-473q0 -77 -31.5 -131t-85 -82t-120.5 -28v0q-67 0 -121 28t-85 82t-31 131v473h35v-471zM423 775q-29 0 -46.5 14t-33.5 32q-13 14 -26.5 26t-33.5 12q-11 0 -23.5 -8t-21.5 -27.5t-10 -54.5
l-23 2q0 39 11 64.5t29 38.5t39 13q28 0 45.5 -15t31.5 -31q13 -16 27.5 -28t34.5 -12t35 19.5t18 71.5l23 -2q0 -39 -10.5 -65t-27.5 -38t-38 -12z" />
    <glyph glyph-name="V" unicode="V" horiz-adv-x="697" 
d="M91 706l269 -685l-19 2l265 683h40l-297 -739l-298 739h40z" />
    <glyph glyph-name="W" unicode="W" horiz-adv-x="989" 
d="M51 705h40l246 -669l-9 2l149 409l17 -43l-165 -437zM373 705h34l254 -672l-13 4l252 668h37l-285 -737z" />
    <glyph glyph-name="Wacute" unicode="&#x1e82;" horiz-adv-x="989" 
d="M51 705h40l246 -669l-9 2l149 409l17 -43l-165 -437zM373 705h34l254 -672l-13 4l252 668h37l-285 -737zM609 877l-99 -133h-27l88 133h38z" />
    <glyph glyph-name="Wcircumflex" unicode="&#x174;" horiz-adv-x="989" 
d="M51 705h40l246 -669l-9 2l149 409l17 -43l-165 -437zM373 705h34l254 -672l-13 4l252 668h37l-285 -737zM601 769l-114 129l17 2l-115 -131h-34l139 156h1l140 -156h-34z" />
    <glyph glyph-name="Wdieresis" unicode="&#x1e84;" horiz-adv-x="989" 
d="M51 705h40l246 -669l-9 2l149 409l17 -43l-165 -437zM373 705h34l254 -672l-13 4l252 668h37l-285 -737zM380 792q0 11 8.5 19.5t19.5 8.5t19.5 -8.5t8.5 -20.5q0 -11 -8.5 -19.5t-19.5 -8.5t-19.5 8.5t-8.5 20.5v0zM551 792q0 11 8.5 19.5t19.5 8.5q10 0 19 -8.5
t9 -20.5q0 -11 -9 -19.5t-19 -8.5q-11 0 -19.5 8.5t-8.5 20.5v0z" />
    <glyph glyph-name="Wgrave" unicode="&#x1e80;" horiz-adv-x="989" 
d="M51 705h40l246 -669l-9 2l149 409l17 -43l-165 -437zM373 705h34l254 -672l-13 4l252 668h37l-285 -737zM389 887h37l86 -133h-26z" />
    <glyph glyph-name="X" unicode="X" horiz-adv-x="604" 
d="M56 706h42l460 -706h-44zM46 0l236 370l20 -28l-214 -342h-42zM298 380l205 326h41l-226 -353z" />
    <glyph glyph-name="Y" unicode="Y" horiz-adv-x="652" 
d="M309 257l-264 449h42l247 -420l-13 -1l245 421h41l-263 -449v-257h-35v257z" />
    <glyph glyph-name="Yacute" unicode="&#xdd;" horiz-adv-x="652" 
d="M309 257l-264 449h42l247 -420l-13 -1l245 421h41l-263 -449v-257h-35v257zM444 876l-99 -133h-27l88 133h38z" />
    <glyph glyph-name="Ycircumflex" unicode="&#x176;" horiz-adv-x="652" 
d="M309 257l-264 449h42l247 -420l-13 -1l245 421h41l-263 -449v-257h-35v257zM436 768l-114 129l17 2l-115 -131h-34l139 156h1l140 -156h-34z" />
    <glyph glyph-name="Ydieresis" unicode="&#x178;" horiz-adv-x="652" 
d="M309 257l-264 449h42l247 -420l-13 -1l245 421h41l-263 -449v-257h-35v257zM215 791q0 11 8.5 19.5t19.5 8.5t19.5 -8.5t8.5 -20.5q0 -11 -8.5 -19.5t-19.5 -8.5t-19.5 8.5t-8.5 20.5v0zM386 791q0 11 8.5 19.5t19.5 8.5q10 0 19 -8.5t9 -20.5q0 -11 -9 -19.5t-19 -8.5
q-11 0 -19.5 8.5t-8.5 20.5v0z" />
    <glyph glyph-name="uni1EF4" unicode="&#x1ef4;" horiz-adv-x="652" 
d="M309 257l-264 449h42l247 -420l-13 -1l245 421h41l-263 -449v-257h-35v257zM297 -82q0 11 9 19t21 8q11 0 19.5 -8t8.5 -19q0 -12 -8.5 -20t-19.5 -8q-12 0 -21 8t-9 20z" />
    <glyph glyph-name="Ygrave" unicode="&#x1ef2;" horiz-adv-x="652" 
d="M309 257l-264 449h42l247 -420l-13 -1l245 421h41l-263 -449v-257h-35v257zM223 886h37l86 -133h-26z" />
    <glyph glyph-name="uni1EF6" unicode="&#x1ef6;" horiz-adv-x="652" 
d="M309 257l-264 449h42l247 -420l-13 -1l245 421h41l-263 -449v-257h-35v257zM332 751q22 19 37 34.5t15 35.5q0 19 -10 30.5t-29 11.5q-18 0 -30 -8.5t-26 -27.5l-17 12q16 25 34.5 37t41.5 12q17 0 30.5 -7t22 -21t8.5 -37q0 -29 -18.5 -48.5t-44.5 -39.5z" />
    <glyph glyph-name="uni0232" unicode="&#x232;" horiz-adv-x="652" 
d="M309 257l-264 449h42l247 -420l-13 -1l245 421h41l-263 -449v-257h-35v257zM212 785h233v-27h-233v27z" />
    <glyph glyph-name="uni1EF8" unicode="&#x1ef8;" horiz-adv-x="652" 
d="M309 257l-264 449h42l247 -420l-13 -1l245 421h41l-263 -449v-257h-35v257zM402 772q-29 0 -46.5 14t-33.5 32q-13 14 -26.5 26t-33.5 12q-11 0 -23.5 -8t-21.5 -27.5t-10 -54.5l-23 2q0 39 11 64.5t29 38.5t39 13q28 0 45.5 -15t31.5 -31q13 -16 27.5 -28t34.5 -12
t35 19.5t18 71.5l23 -2q0 -39 -10.5 -65t-27.5 -38t-38 -12z" />
    <glyph glyph-name="Z" unicode="Z" horiz-adv-x="700" 
d="M57 0q27 36 56.5 77t61.5 85.5t65.5 90.5t67.5 92t67.5 91.5t65.5 89t61.5 82.5t56.5 74l8 -9h-421q-18 0 -32 4t-21.5 14.5t-7.5 29.5v20h34v-12q0 -11 6.5 -17t23.5 -6h465l-501 -679l-3 6h532v-33h-585z" />
    <glyph glyph-name="Zacute" unicode="&#x179;" horiz-adv-x="700" 
d="M57 0q27 36 56.5 77t61.5 85.5t65.5 90.5t67.5 92t67.5 91.5t65.5 89t61.5 82.5t56.5 74l8 -9h-421q-18 0 -32 4t-21.5 14.5t-7.5 29.5v20h34v-12q0 -11 6.5 -17t23.5 -6h465l-501 -679l-3 6h532v-33h-585zM464 876l-99 -133h-27l88 133h38z" />
    <glyph glyph-name="Zcaron" unicode="&#x17d;" horiz-adv-x="700" 
d="M57 0q27 36 56.5 77t61.5 85.5t65.5 90.5t67.5 92t67.5 91.5t65.5 89t61.5 82.5t56.5 74l8 -9h-421q-18 0 -32 4t-21.5 14.5t-7.5 29.5v20h34v-12q0 -11 6.5 -17t23.5 -6h465l-501 -679l-3 6h532v-33h-585zM243 898l114 -130l-17 -2l115 132h35l-140 -155h-1l-140 155h34
z" />
    <glyph glyph-name="Zdotaccent" unicode="&#x17b;" horiz-adv-x="700" 
d="M57 0q27 36 56.5 77t61.5 85.5t65.5 90.5t67.5 92t67.5 91.5t65.5 89t61.5 82.5t56.5 74l8 -9h-421q-18 0 -32 4t-21.5 14.5t-7.5 29.5v20h34v-12q0 -11 6.5 -17t23.5 -6h465l-501 -679l-3 6h532v-33h-585zM321 790q0 11 9 19t21 8q11 0 19.5 -8t8.5 -19q0 -12 -8.5 -20
t-19.5 -8q-12 0 -21 8t-9 20z" />
    <glyph glyph-name="a" unicode="a" horiz-adv-x="551" 
d="M250 -7q-55 0 -100 25.5t-71.5 71t-26.5 103.5q0 64 27.5 109t74 69t104.5 24q56 0 103.5 -32.5t67.5 -82.5l-4 -13l5 118h29v-385h-33v125l7 -16q-9 -23 -26.5 -44t-41.5 -37.5t-53 -25.5t-62 -9zM256 22q47 0 84.5 20t60.5 56t25 81v49q-8 39 -32.5 70t-60 49.5
t-77.5 18.5q-47 0 -85.5 -21.5t-61.5 -60t-23 -90.5q0 -48 23 -87t62 -62t85 -23z" />
    <glyph glyph-name="aacute" unicode="&#xe1;" horiz-adv-x="551" 
d="M250 -7q-55 0 -100 25.5t-71.5 71t-26.5 103.5q0 64 27.5 109t74 69t104.5 24q56 0 103.5 -32.5t67.5 -82.5l-4 -13l5 118h29v-385h-33v125l7 -16q-9 -23 -26.5 -44t-41.5 -37.5t-53 -25.5t-62 -9zM256 22q47 0 84.5 20t60.5 56t25 81v49q-8 39 -32.5 70t-60 49.5
t-77.5 18.5q-47 0 -85.5 -21.5t-61.5 -60t-23 -90.5q0 -48 23 -87t62 -62t85 -23zM357 601l-99 -133h-27l88 133h38z" />
    <glyph glyph-name="abreve" unicode="&#x103;" horiz-adv-x="551" 
d="M250 -7q-55 0 -100 25.5t-71.5 71t-26.5 103.5q0 64 27.5 109t74 69t104.5 24q56 0 103.5 -32.5t67.5 -82.5l-4 -13l5 118h29v-385h-33v125l7 -16q-9 -23 -26.5 -44t-41.5 -37.5t-53 -25.5t-62 -9zM256 22q47 0 84.5 20t60.5 56t25 81v49q-8 39 -32.5 70t-60 49.5
t-77.5 18.5q-47 0 -85.5 -21.5t-61.5 -60t-23 -90.5q0 -48 23 -87t62 -62t85 -23zM275 465q-36 0 -64.5 20.5t-45.5 57.5t-20 84h26q2 -36 15.5 -67t36.5 -49.5t52 -18.5q30 0 52 18.5t35 49.5t15 67h26q-1 -48 -18.5 -84.5t-45.5 -57t-64 -20.5z" />
    <glyph glyph-name="uni1EAF" unicode="&#x1eaf;" horiz-adv-x="551" 
d="M250 -7q-55 0 -100 25.5t-71.5 71t-26.5 103.5q0 64 27.5 109t74 69t104.5 24q56 0 103.5 -32.5t67.5 -82.5l-4 -13l5 118h29v-385h-33v125l7 -16q-9 -23 -26.5 -44t-41.5 -37.5t-53 -25.5t-62 -9zM256 22q47 0 84.5 20t60.5 56t25 81v49q-8 39 -32.5 70t-60 49.5
t-77.5 18.5q-47 0 -85.5 -21.5t-61.5 -60t-23 -90.5q0 -48 23 -87t62 -62t85 -23zM275 465q-36 0 -64.5 20.5t-45.5 57.5t-20 84h26q2 -36 15.5 -67t36.5 -49.5t52 -18.5q30 0 52 18.5t35 49.5t15 67h26q-1 -48 -18.5 -84.5t-45.5 -57t-64 -20.5zM345 777l-99 -133h-27
l88 133h38z" />
    <glyph glyph-name="uni1EB7" unicode="&#x1eb7;" horiz-adv-x="551" 
d="M250 -7q-55 0 -100 25.5t-71.5 71t-26.5 103.5q0 64 27.5 109t74 69t104.5 24q56 0 103.5 -32.5t67.5 -82.5l-4 -13l5 118h29v-385h-33v125l7 -16q-9 -23 -26.5 -44t-41.5 -37.5t-53 -25.5t-62 -9zM256 22q47 0 84.5 20t60.5 56t25 81v49q-8 39 -32.5 70t-60 49.5
t-77.5 18.5q-47 0 -85.5 -21.5t-61.5 -60t-23 -90.5q0 -48 23 -87t62 -62t85 -23zM247 -99q0 11 8.5 19t20.5 8q10 0 18.5 -8t8.5 -19q0 -12 -8.5 -20t-19.5 -8q-10 0 -19 8.5t-9 19.5zM275 465q-36 0 -64.5 20.5t-45.5 57.5t-20 84h26q2 -36 15.5 -67t36.5 -49.5t52 -18.5
q30 0 52 18.5t35 49.5t15 67h26q-1 -48 -18.5 -84.5t-45.5 -57t-64 -20.5z" />
    <glyph glyph-name="uni1EB1" unicode="&#x1eb1;" horiz-adv-x="551" 
d="M250 -7q-55 0 -100 25.5t-71.5 71t-26.5 103.5q0 64 27.5 109t74 69t104.5 24q56 0 103.5 -32.5t67.5 -82.5l-4 -13l5 118h29v-385h-33v125l7 -16q-9 -23 -26.5 -44t-41.5 -37.5t-53 -25.5t-62 -9zM256 22q47 0 84.5 20t60.5 56t25 81v49q-8 39 -32.5 70t-60 49.5
t-77.5 18.5q-47 0 -85.5 -21.5t-61.5 -60t-23 -90.5q0 -48 23 -87t62 -62t85 -23zM275 465q-36 0 -64.5 20.5t-45.5 57.5t-20 84h26q2 -36 15.5 -67t36.5 -49.5t52 -18.5q30 0 52 18.5t35 49.5t15 67h26q-1 -48 -18.5 -84.5t-45.5 -57t-64 -20.5zM163 770h37l86 -133h-26z
" />
    <glyph glyph-name="uni1EB3" unicode="&#x1eb3;" horiz-adv-x="551" 
d="M250 -7q-55 0 -100 25.5t-71.5 71t-26.5 103.5q0 64 27.5 109t74 69t104.5 24q56 0 103.5 -32.5t67.5 -82.5l-4 -13l5 118h29v-385h-33v125l7 -16q-9 -23 -26.5 -44t-41.5 -37.5t-53 -25.5t-62 -9zM256 22q47 0 84.5 20t60.5 56t25 81v49q-8 39 -32.5 70t-60 49.5
t-77.5 18.5q-47 0 -85.5 -21.5t-61.5 -60t-23 -90.5q0 -48 23 -87t62 -62t85 -23zM275 465q-36 0 -64.5 20.5t-45.5 57.5t-20 84h26q2 -36 15.5 -67t36.5 -49.5t52 -18.5q30 0 52 18.5t35 49.5t15 67h26q-1 -48 -18.5 -84.5t-45.5 -57t-64 -20.5zM267 627q22 19 37 34.5
t15 35.5q0 19 -10 30.5t-29 11.5q-18 0 -30 -8.5t-26 -27.5l-17 12q16 25 34.5 37t41.5 12q17 0 30.5 -7t22 -21t8.5 -37q0 -29 -18.5 -48.5t-44.5 -39.5z" />
    <glyph glyph-name="uni1EB5" unicode="&#x1eb5;" horiz-adv-x="551" 
d="M250 -7q-55 0 -100 25.5t-71.5 71t-26.5 103.5q0 64 27.5 109t74 69t104.5 24q56 0 103.5 -32.5t67.5 -82.5l-4 -13l5 118h29v-385h-33v125l7 -16q-9 -23 -26.5 -44t-41.5 -37.5t-53 -25.5t-62 -9zM256 22q47 0 84.5 20t60.5 56t25 81v49q-8 39 -32.5 70t-60 49.5
t-77.5 18.5q-47 0 -85.5 -21.5t-61.5 -60t-23 -90.5q0 -48 23 -87t62 -62t85 -23zM276 465q-36 0 -64.5 20.5t-45.5 57.5t-20 84h26q2 -36 15.5 -67t36.5 -49.5t52 -18.5q30 0 52 18.5t35 49.5t15 67h26q-1 -48 -18.5 -84.5t-45.5 -57t-64 -20.5zM359 666q-29 0 -47 14.5
t-33 31.5q-13 14 -27 26t-33 12q-12 0 -24 -8t-21 -27t-11 -54l-23 1q0 39 11.5 65t29.5 38.5t39 12.5q27 0 44.5 -14.5t32.5 -31.5q13 -15 27.5 -27t34.5 -12t35 19t17 71l23 -1q0 -39 -10 -65t-27 -38.5t-38 -12.5z" />
    <glyph glyph-name="acircumflex" unicode="&#xe2;" horiz-adv-x="551" 
d="M250 -7q-55 0 -100 25.5t-71.5 71t-26.5 103.5q0 64 27.5 109t74 69t104.5 24q56 0 103.5 -32.5t67.5 -82.5l-4 -13l5 118h29v-385h-33v125l7 -16q-9 -23 -26.5 -44t-41.5 -37.5t-53 -25.5t-62 -9zM256 22q47 0 84.5 20t60.5 56t25 81v49q-8 39 -32.5 70t-60 49.5
t-77.5 18.5q-47 0 -85.5 -21.5t-61.5 -60t-23 -90.5q0 -48 23 -87t62 -62t85 -23zM386 484l-114 129l17 2l-115 -131h-34l139 156h1l140 -156h-34z" />
    <glyph glyph-name="uni1EA5" unicode="&#x1ea5;" horiz-adv-x="551" 
d="M250 -7q-55 0 -100 25.5t-71.5 71t-26.5 103.5q0 64 27.5 109t74 69t104.5 24q56 0 103.5 -32.5t67.5 -82.5l-4 -13l5 118h29v-385h-33v125l7 -16q-9 -23 -26.5 -44t-41.5 -37.5t-53 -25.5t-62 -9zM256 22q47 0 84.5 20t60.5 56t25 81v49q-8 39 -32.5 70t-60 49.5
t-77.5 18.5q-47 0 -85.5 -21.5t-61.5 -60t-23 -90.5q0 -48 23 -87t62 -62t85 -23zM383 473l-114 129l17 2l-115 -131h-34l139 156h1l140 -156h-34zM496 693l-99 -133h-27l88 133h38z" />
    <glyph glyph-name="uni1EAD" unicode="&#x1ead;" horiz-adv-x="551" 
d="M250 -7q-55 0 -100 25.5t-71.5 71t-26.5 103.5q0 64 27.5 109t74 69t104.5 24q56 0 103.5 -32.5t67.5 -82.5l-4 -13l5 118h29v-385h-33v125l7 -16q-9 -23 -26.5 -44t-41.5 -37.5t-53 -25.5t-62 -9zM256 22q47 0 84.5 20t60.5 56t25 81v49q-8 39 -32.5 70t-60 49.5
t-77.5 18.5q-47 0 -85.5 -21.5t-61.5 -60t-23 -90.5q0 -48 23 -87t62 -62t85 -23zM247 -99q0 11 8.5 19t20.5 8q10 0 18.5 -8t8.5 -19q0 -12 -8.5 -20t-19.5 -8q-10 0 -19 8.5t-9 19.5zM386 484l-114 129l17 2l-115 -131h-34l139 156h1l140 -156h-34z" />
    <glyph glyph-name="uni1EA7" unicode="&#x1ea7;" horiz-adv-x="551" 
d="M250 -7q-55 0 -100 25.5t-71.5 71t-26.5 103.5q0 64 27.5 109t74 69t104.5 24q56 0 103.5 -32.5t67.5 -82.5l-4 -13l5 118h29v-385h-33v125l7 -16q-9 -23 -26.5 -44t-41.5 -37.5t-53 -25.5t-62 -9zM256 22q47 0 84.5 20t60.5 56t25 81v49q-8 39 -32.5 70t-60 49.5
t-77.5 18.5q-47 0 -85.5 -21.5t-61.5 -60t-23 -90.5q0 -48 23 -87t62 -62t85 -23zM378 467l-114 129l17 2l-115 -131h-34l139 156h1l140 -156h-34zM37 702h37l86 -133h-26z" />
    <glyph glyph-name="uni1EA9" unicode="&#x1ea9;" horiz-adv-x="551" 
d="M250 -7q-55 0 -100 25.5t-71.5 71t-26.5 103.5q0 64 27.5 109t74 69t104.5 24q56 0 103.5 -32.5t67.5 -82.5l-4 -13l5 118h29v-385h-33v125l7 -16q-9 -23 -26.5 -44t-41.5 -37.5t-53 -25.5t-62 -9zM256 22q47 0 84.5 20t60.5 56t25 81v49q-8 39 -32.5 70t-60 49.5
t-77.5 18.5q-47 0 -85.5 -21.5t-61.5 -60t-23 -90.5q0 -48 23 -87t62 -62t85 -23zM379 474l-114 129l17 2l-115 -131h-34l139 156h1l140 -156h-34zM388 567q22 19 37 34.5t15 35.5q0 19 -10 30.5t-29 11.5q-18 0 -30 -8.5t-26 -27.5l-17 12q16 25 34.5 37t41.5 12
q17 0 30.5 -7t22 -21t8.5 -37q0 -29 -18.5 -48.5t-44.5 -39.5z" />
    <glyph glyph-name="uni1EAB" unicode="&#x1eab;" horiz-adv-x="551" 
d="M250 -7q-55 0 -100 25.5t-71.5 71t-26.5 103.5q0 64 27.5 109t74 69t104.5 24q56 0 103.5 -32.5t67.5 -82.5l-4 -13l5 118h29v-385h-33v125l7 -16q-9 -23 -26.5 -44t-41.5 -37.5t-53 -25.5t-62 -9zM256 22q47 0 84.5 20t60.5 56t25 81v49q-8 39 -32.5 70t-60 49.5
t-77.5 18.5q-47 0 -85.5 -21.5t-61.5 -60t-23 -90.5q0 -48 23 -87t62 -62t85 -23zM383 457l-114 129l17 2l-115 -131h-34l139 156h1l140 -156h-34zM349 632q-29 0 -47 14.5t-33 31.5q-13 14 -27 26t-33 12q-12 0 -24 -8t-21 -27t-11 -54l-23 1q0 39 11.5 65t29.5 38.5
t39 12.5q27 0 44.5 -14.5t32.5 -31.5q13 -15 27.5 -27t34.5 -12t35 19t17 71l23 -1q0 -39 -10 -65t-27 -38.5t-38 -12.5z" />
    <glyph glyph-name="uni0201" unicode="&#x201;" horiz-adv-x="551" 
d="M250 -7q-55 0 -100 25.5t-71.5 71t-26.5 103.5q0 64 27.5 109t74 69t104.5 24q56 0 103.5 -32.5t67.5 -82.5l-4 -13l5 118h29v-385h-33v125l7 -16q-9 -23 -26.5 -44t-41.5 -37.5t-53 -25.5t-62 -9zM256 22q47 0 84.5 20t60.5 56t25 81v49q-8 39 -32.5 70t-60 49.5
t-77.5 18.5q-47 0 -85.5 -21.5t-61.5 -60t-23 -90.5q0 -48 23 -87t62 -62t85 -23zM123 618h37l86 -133h-26zM228 618h37l86 -133h-26z" />
    <glyph glyph-name="adieresis" unicode="&#xe4;" horiz-adv-x="551" 
d="M250 -7q-55 0 -100 25.5t-71.5 71t-26.5 103.5q0 64 27.5 109t74 69t104.5 24q56 0 103.5 -32.5t67.5 -82.5l-4 -13l5 118h29v-385h-33v125l7 -16q-9 -23 -26.5 -44t-41.5 -37.5t-53 -25.5t-62 -9zM256 22q47 0 84.5 20t60.5 56t25 81v49q-8 39 -32.5 70t-60 49.5
t-77.5 18.5q-47 0 -85.5 -21.5t-61.5 -60t-23 -90.5q0 -48 23 -87t62 -62t85 -23zM165 511q0 11 8.5 19.5t19.5 8.5t19.5 -8.5t8.5 -20.5q0 -11 -8.5 -19.5t-19.5 -8.5t-19.5 8.5t-8.5 20.5v0zM336 511q0 11 8.5 19.5t19.5 8.5q10 0 19 -8.5t9 -20.5q0 -11 -9 -19.5
t-19 -8.5q-11 0 -19.5 8.5t-8.5 20.5v0z" />
    <glyph glyph-name="uni1EA1" unicode="&#x1ea1;" horiz-adv-x="551" 
d="M250 -7q-55 0 -100 25.5t-71.5 71t-26.5 103.5q0 64 27.5 109t74 69t104.5 24q56 0 103.5 -32.5t67.5 -82.5l-4 -13l5 118h29v-385h-33v125l7 -16q-9 -23 -26.5 -44t-41.5 -37.5t-53 -25.5t-62 -9zM256 22q47 0 84.5 20t60.5 56t25 81v49q-8 39 -32.5 70t-60 49.5
t-77.5 18.5q-47 0 -85.5 -21.5t-61.5 -60t-23 -90.5q0 -48 23 -87t62 -62t85 -23zM247 -99q0 11 8.5 19t20.5 8q10 0 18.5 -8t8.5 -19q0 -12 -8.5 -20t-19.5 -8q-10 0 -19 8.5t-9 19.5z" />
    <glyph glyph-name="agrave" unicode="&#xe0;" horiz-adv-x="551" 
d="M250 -7q-55 0 -100 25.5t-71.5 71t-26.5 103.5q0 64 27.5 109t74 69t104.5 24q56 0 103.5 -32.5t67.5 -82.5l-4 -13l5 118h29v-385h-33v125l7 -16q-9 -23 -26.5 -44t-41.5 -37.5t-53 -25.5t-62 -9zM256 22q47 0 84.5 20t60.5 56t25 81v49q-8 39 -32.5 70t-60 49.5
t-77.5 18.5q-47 0 -85.5 -21.5t-61.5 -60t-23 -90.5q0 -48 23 -87t62 -62t85 -23zM173 618h37l86 -133h-26z" />
    <glyph glyph-name="uni1EA3" unicode="&#x1ea3;" horiz-adv-x="551" 
d="M250 -7q-55 0 -100 25.5t-71.5 71t-26.5 103.5q0 64 27.5 109t74 69t104.5 24q56 0 103.5 -32.5t67.5 -82.5l-4 -13l5 118h29v-385h-33v125l7 -16q-9 -23 -26.5 -44t-41.5 -37.5t-53 -25.5t-62 -9zM256 22q47 0 84.5 20t60.5 56t25 81v49q-8 39 -32.5 70t-60 49.5
t-77.5 18.5q-47 0 -85.5 -21.5t-61.5 -60t-23 -90.5q0 -48 23 -87t62 -62t85 -23zM273 455q22 19 37 34.5t15 35.5q0 19 -10 30.5t-29 11.5q-18 0 -30 -8.5t-26 -27.5l-17 12q16 25 34.5 37t41.5 12q17 0 30.5 -7t22 -21t8.5 -37q0 -29 -18.5 -48.5t-44.5 -39.5z" />
    <glyph glyph-name="uni0203" unicode="&#x203;" horiz-adv-x="551" 
d="M250 -7q-55 0 -100 25.5t-71.5 71t-26.5 103.5q0 64 27.5 109t74 69t104.5 24q56 0 103.5 -32.5t67.5 -82.5l-4 -13l5 118h29v-385h-33v125l7 -16q-9 -23 -26.5 -44t-41.5 -37.5t-53 -25.5t-62 -9zM256 22q47 0 84.5 20t60.5 56t25 81v49q-8 39 -32.5 70t-60 49.5
t-77.5 18.5q-47 0 -85.5 -21.5t-61.5 -60t-23 -90.5q0 -48 23 -87t62 -62t85 -23zM282 610q37 0 65 -20.5t45.5 -57t19.5 -84.5h-25q-2 37 -16 67.5t-36.5 49t-52.5 18.5q-29 0 -51.5 -18.5t-35.5 -49t-14 -67.5h-27q2 48 19 84.5t45.5 57t63.5 20.5z" />
    <glyph glyph-name="amacron" unicode="&#x101;" horiz-adv-x="551" 
d="M250 -7q-55 0 -100 25.5t-71.5 71t-26.5 103.5q0 64 27.5 109t74 69t104.5 24q56 0 103.5 -32.5t67.5 -82.5l-4 -13l5 118h29v-385h-33v125l7 -16q-9 -23 -26.5 -44t-41.5 -37.5t-53 -25.5t-62 -9zM256 22q47 0 84.5 20t60.5 56t25 81v49q-8 39 -32.5 70t-60 49.5
t-77.5 18.5q-47 0 -85.5 -21.5t-61.5 -60t-23 -90.5q0 -48 23 -87t62 -62t85 -23zM163 519h233v-27h-233v27z" />
    <glyph glyph-name="aogonek" unicode="&#x105;" horiz-adv-x="552" 
d="M250 -7q-54 0 -99 25.5t-71.5 71t-26.5 103.5q0 64 27 109t72 69t98 24q42 0 76 -15t60 -40.5t40 -59.5l5 105h29v-384q-43 -24 -67.5 -51.5t-24.5 -57.5q0 -27 16 -42.5t37 -15.5q20 0 35.5 13t27.5 33l17 -17q-12 -23 -34.5 -39.5t-48.5 -16.5q-32 0 -57 22.5t-25 60.5
q0 37 28 69t65 51l4 -10l-7 -3v125l2 -13q-13 -32 -39 -58t-61 -42t-78 -16zM256 22q47 0 84.5 20t61 56t24.5 81v49q-8 39 -32.5 70t-60 49.5t-77.5 18.5q-46 0 -84.5 -21.5t-61.5 -60t-23 -90.5q0 -48 23 -87t61.5 -62t84.5 -23z" />
    <glyph glyph-name="aring" unicode="&#xe5;" horiz-adv-x="551" 
d="M250 -7q-55 0 -100 25.5t-71.5 71t-26.5 103.5q0 64 27.5 109t74 69t104.5 24q56 0 103.5 -32.5t67.5 -82.5l-4 -13l5 118h29v-385h-33v125l7 -16q-9 -23 -26.5 -44t-41.5 -37.5t-53 -25.5t-62 -9zM256 22q47 0 84.5 20t60.5 56t25 81v49q-8 39 -32.5 70t-60 49.5
t-77.5 18.5q-47 0 -85.5 -21.5t-61.5 -60t-23 -90.5q0 -48 23 -87t62 -62t85 -23zM207 513q0 30 20 50t50 20q31 0 50.5 -20t19.5 -50t-19.5 -49.5t-50.5 -19.5q-30 0 -50 19.5t-20 49.5zM229 513q0 -19 14.5 -33.5t33.5 -14.5t33 14.5t14 33.5q0 20 -14 34t-32 14
q-20 0 -34.5 -14t-14.5 -34z" />
    <glyph glyph-name="aringacute" unicode="&#x1fb;" horiz-adv-x="551" 
d="M250 -7q-55 0 -100 25.5t-71.5 71t-26.5 103.5q0 64 27.5 109t74 69t104.5 24q56 0 103.5 -32.5t67.5 -82.5l-4 -13l5 118h29v-385h-33v125l7 -16q-9 -23 -26.5 -44t-41.5 -37.5t-53 -25.5t-62 -9zM256 22q47 0 84.5 20t60.5 56t25 81v49q-8 39 -32.5 70t-60 49.5
t-77.5 18.5q-47 0 -85.5 -21.5t-61.5 -60t-23 -90.5q0 -48 23 -87t62 -62t85 -23zM207 513q0 30 20 50t50 20q31 0 50.5 -20t19.5 -50t-19.5 -49.5t-50.5 -19.5q-30 0 -50 19.5t-20 49.5zM229 513q0 -19 14.5 -33.5t33.5 -14.5t33 14.5t14 33.5q0 20 -14 34t-32 14
q-20 0 -34.5 -14t-14.5 -34zM357 795l-99 -133h-27l88 133h38z" />
    <glyph glyph-name="atilde" unicode="&#xe3;" horiz-adv-x="551" 
d="M250 -7q-55 0 -100 25.5t-71.5 71t-26.5 103.5q0 64 27.5 109t74 69t104.5 24q56 0 103.5 -32.5t67.5 -82.5l-4 -13l5 118h29v-385h-33v125l7 -16q-9 -23 -26.5 -44t-41.5 -37.5t-53 -25.5t-62 -9zM256 22q47 0 84.5 20t60.5 56t25 81v49q-8 39 -32.5 70t-60 49.5
t-77.5 18.5q-47 0 -85.5 -21.5t-61.5 -60t-23 -90.5q0 -48 23 -87t62 -62t85 -23zM352 454q-29 0 -47 14.5t-33 31.5q-13 14 -27 26t-33 12q-12 0 -24 -8t-21 -27t-11 -54l-23 1q0 39 11.5 65t29.5 38.5t39 12.5q27 0 44.5 -14.5t32.5 -31.5q13 -15 27.5 -27t34.5 -12t35 19
t17 71l23 -1q0 -39 -10 -65t-27 -38.5t-38 -12.5z" />
    <glyph glyph-name="ae" unicode="&#xe6;" horiz-adv-x="770" 
d="M203 -11q-53 0 -86.5 16.5t-49 42.5t-15.5 55q0 39 20.5 65.5t52.5 40t68 13.5q52 0 99 -23.5t73 -64.5l-8 -20q-33 39 -72.5 60t-85.5 21q-25 0 -50.5 -9.5t-42 -28.5t-16.5 -51q0 -37 28.5 -63t91.5 -26q19 0 44.5 4.5t50 15t39.5 28.5v107l24 -11l1 -108
q-21 -27 -53.5 -40.5t-63.5 -18.5t-49 -5zM345 176v87q0 42 -14.5 63.5t-38 29t-50.5 7.5q-39 0 -74.5 -14.5t-71.5 -51.5l-19 24q31 32 72.5 52.5t95.5 20.5q48 0 77 -14.5t43 -42t14 -64.5v-35zM548 -7q-58 0 -104 26.5t-72.5 72t-26.5 102.5q0 55 27.5 101t73.5 73.5
t102 27.5q67 0 112.5 -39t66.5 -100l-342 -135l-10 26l322 128l-8 -12q-19 42 -55 72t-87 30q-48 0 -86 -23t-60.5 -61.5t-22.5 -86.5q0 -45 21.5 -84.5t60 -64t88.5 -24.5q34 0 64.5 12.5t53.5 33.5l19 -25q-28 -22 -63.5 -36t-73.5 -14z" />
    <glyph glyph-name="aeacute" unicode="&#x1fd;" horiz-adv-x="770" 
d="M203 -11q-53 0 -86.5 16.5t-49 42.5t-15.5 55q0 39 20.5 65.5t52.5 40t68 13.5q52 0 99 -23.5t73 -64.5l-8 -20q-33 39 -72.5 60t-85.5 21q-25 0 -50.5 -9.5t-42 -28.5t-16.5 -51q0 -37 28.5 -63t91.5 -26q19 0 44.5 4.5t50 15t39.5 28.5v107l24 -11l1 -108
q-21 -27 -53.5 -40.5t-63.5 -18.5t-49 -5zM345 176v87q0 42 -14.5 63.5t-38 29t-50.5 7.5q-39 0 -74.5 -14.5t-71.5 -51.5l-19 24q31 32 72.5 52.5t95.5 20.5q48 0 77 -14.5t43 -42t14 -64.5v-35zM548 -7q-58 0 -104 26.5t-72.5 72t-26.5 102.5q0 55 27.5 101t73.5 73.5
t102 27.5q67 0 112.5 -39t66.5 -100l-342 -135l-10 26l322 128l-8 -12q-19 42 -55 72t-87 30q-48 0 -86 -23t-60.5 -61.5t-22.5 -86.5q0 -45 21.5 -84.5t60 -64t88.5 -24.5q34 0 64.5 12.5t53.5 33.5l19 -25q-28 -22 -63.5 -36t-73.5 -14zM462 597l-99 -133h-27l88 133h38z
" />
    <glyph glyph-name="b" unicode="b" horiz-adv-x="553" 
d="M301 -7q-61 0 -111 33.5t-72 83.5l7 24v-134h-34v756h34v-493l-3 22q22 49 71.5 79.5t110.5 30.5q54 0 98.5 -26.5t71 -71.5t26.5 -102q0 -65 -27.5 -110.5t-72.5 -68.5t-99 -23zM296 22q53 0 91 22.5t58.5 61.5t20.5 89q0 46 -21.5 85t-59 62.5t-89.5 23.5
q-43 0 -79.5 -18t-60 -49t-31.5 -71v-55q2 -39 25 -73.5t61.5 -56t84.5 -21.5z" />
    <glyph glyph-name="c" unicode="c" horiz-adv-x="427" 
d="M383 38q-26 -22 -59 -33.5t-69 -11.5q-57 0 -103 26t-73 71.5t-27 102.5t27.5 102t73 71.5t100.5 26.5q38 0 71.5 -11.5t59.5 -33.5l-18 -23q-22 17 -50.5 28.5t-60.5 11.5q-47 0 -85.5 -23.5t-61 -62t-22.5 -86.5q0 -47 22.5 -86t61.5 -62t87 -23q31 0 58 10t49 27z" />
    <glyph glyph-name="cacute" unicode="&#x107;" horiz-adv-x="427" 
d="M383 38q-26 -22 -59 -33.5t-69 -11.5q-57 0 -103 26t-73 71.5t-27 102.5t27.5 102t73 71.5t100.5 26.5q38 0 71.5 -11.5t59.5 -33.5l-18 -23q-22 17 -50.5 28.5t-60.5 11.5q-47 0 -85.5 -23.5t-61 -62t-22.5 -86.5q0 -47 22.5 -86t61.5 -62t87 -23q31 0 58 10t49 27z
M328 599l-99 -133h-27l88 133h38z" />
    <glyph glyph-name="ccaron" unicode="&#x10d;" horiz-adv-x="427" 
d="M383 38q-26 -22 -59 -33.5t-69 -11.5q-57 0 -103 26t-73 71.5t-27 102.5t27.5 102t73 71.5t100.5 26.5q38 0 71.5 -11.5t59.5 -33.5l-18 -23q-22 17 -50.5 28.5t-60.5 11.5q-47 0 -85.5 -23.5t-61 -62t-22.5 -86.5q0 -47 22.5 -86t61.5 -62t87 -23q31 0 58 10t49 27z
M146 592l114 -130l-17 -2l115 132h35l-140 -155h-1l-140 155h34z" />
    <glyph glyph-name="ccedilla" unicode="&#xe7;" horiz-adv-x="427" 
d="M383 38q-26 -22 -59 -33.5t-69 -11.5q-57 0 -103 26t-73 71.5t-27 102.5t27.5 102t73 71.5t100.5 26.5q38 0 71.5 -11.5t59.5 -33.5l-18 -23q-22 17 -50.5 28.5t-60.5 11.5q-47 0 -85.5 -23.5t-61 -62t-22.5 -86.5q0 -47 22.5 -86t61.5 -62t87 -23q31 0 58 10t49 27z
M143 -173q11 -11 30 -18.5t45 -7.5q38 0 61.5 15t23.5 43q0 25 -19 42.5t-60 17.5q-16 0 -37.5 -4.5t-33.5 -9.5l-15 19l72 83l26 -7l-67 -83l-16 7q11 7 33.5 12.5t42.5 5.5q50 0 78 -21t28 -61q0 -28 -15.5 -46t-41 -27t-57.5 -9q-29 0 -53 8.5t-39 21.5z" />
    <glyph glyph-name="ccircumflex" unicode="&#x109;" horiz-adv-x="427" 
d="M383 38q-26 -22 -59 -33.5t-69 -11.5q-57 0 -103 26t-73 71.5t-27 102.5t27.5 102t73 71.5t100.5 26.5q38 0 71.5 -11.5t59.5 -33.5l-18 -23q-22 17 -50.5 28.5t-60.5 11.5q-47 0 -85.5 -23.5t-61 -62t-22.5 -86.5q0 -47 22.5 -86t61.5 -62t87 -23q31 0 58 10t49 27z
M358 483l-114 129l17 2l-115 -131h-34l139 156h1l140 -156h-34z" />
    <glyph glyph-name="cdotaccent" unicode="&#x10b;" horiz-adv-x="427" 
d="M383 38q-26 -22 -59 -33.5t-69 -11.5q-57 0 -103 26t-73 71.5t-27 102.5t27.5 102t73 71.5t100.5 26.5q38 0 71.5 -11.5t59.5 -33.5l-18 -23q-22 17 -50.5 28.5t-60.5 11.5q-47 0 -85.5 -23.5t-61 -62t-22.5 -86.5q0 -47 22.5 -86t61.5 -62t87 -23q31 0 58 10t49 27z
M221 519q0 11 9 19t21 8q11 0 19.5 -8t8.5 -19q0 -12 -8.5 -20t-19.5 -8q-12 0 -21 8t-9 20z" />
    <glyph glyph-name="d" unicode="d" horiz-adv-x="553" 
d="M249 -7q-55 0 -99.5 26t-71 72t-26.5 103q0 61 27 106t72.5 70t100.5 25q58 0 108.5 -32.5t73.5 -82.5l-7 -17v493h34v-756h-34v125l7 -19q-24 -50 -74 -81.5t-111 -31.5zM256 22q47 0 85 21.5t61 57.5t25 81v42q-7 40 -32 72.5t-60.5 51t-78.5 18.5q-47 0 -85.5 -21.5
t-61.5 -60t-23 -89.5q0 -48 23 -87t62 -62.5t85 -23.5z" />
    <glyph glyph-name="eth" unicode="&#xf0;" horiz-adv-x="511" 
d="M253 -7q-56 0 -101.5 26t-72.5 71.5t-27 103.5q0 56 26.5 102t71.5 73t100 27q34 0 62.5 -11t52 -29.5t40 -41.5t25.5 -47l-9 -14q-6 60 -32.5 125.5t-66.5 128t-88 116.5t-98 91l21 22q57 -42 111.5 -103t97 -133t68 -147t25.5 -144q0 -45 -16 -83.5t-44 -68.5
t-65.5 -47t-80.5 -17zM255 22q47 0 85 23t61 62t23 87q0 47 -23 86t-61 62.5t-85 23.5q-48 0 -86.5 -25t-60.5 -64t-22 -83q0 -48 22.5 -87t61 -62t85.5 -23zM338 684l-181 -118l-14 22l181 116z" />
    <glyph glyph-name="dcaron" unicode="&#x10f;" horiz-adv-x="633" 
d="M249 -7q-55 0 -99.5 26t-71 72t-26.5 103q0 61 27 106t72.5 70t100.5 25q58 0 108.5 -32.5t73.5 -82.5l-7 -17v493h34v-756h-34v125l7 -19q-24 -50 -74 -81.5t-111 -31.5zM256 22q47 0 85 21.5t61 57.5t25 81v42q-7 40 -32 72.5t-60.5 51t-78.5 18.5q-47 0 -85.5 -21.5
t-61.5 -60t-23 -89.5q0 -48 23 -87t62 -62.5t85 -23.5zM566 581l-16 19q21 20 31 51.5t3 66.5l34 7q5 -27 0 -54t-18 -50t-34 -40v0z" />
    <glyph glyph-name="dcroat" unicode="&#x111;" horiz-adv-x="553" 
d="M249 -7q-55 0 -99.5 26t-71 72t-26.5 103q0 61 27 106t72.5 70t100.5 25q58 0 108.5 -32.5t73.5 -82.5l-7 -17v493h34v-756h-34v125l7 -19q-24 -50 -74 -81.5t-111 -31.5zM256 22q47 0 85 21.5t61 57.5t25 81v42q-7 40 -32 72.5t-60.5 51t-78.5 18.5q-47 0 -85.5 -21.5
t-61.5 -60t-23 -89.5q0 -48 23 -87t62 -62.5t85 -23.5zM323 643h236v-32h-236v32z" />
    <glyph glyph-name="uni01F3" unicode="&#x1f3;" horiz-adv-x="939" 
d="M249 -7q-55 0 -99.5 26t-71 72t-26.5 103q0 61 27 106t72.5 70t100.5 25q58 0 108.5 -32.5t73.5 -82.5l-7 -17v493h34v-756h-34v125l7 -19q-24 -50 -74 -81.5t-111 -31.5zM256 22q47 0 85 21.5t61 57.5t25 81v42q-7 40 -32 72.5t-60.5 51t-78.5 18.5q-47 0 -85.5 -21.5
t-61.5 -60t-23 -89.5q0 -48 23 -87t62 -62.5t85 -23.5zM646 356q-25 0 -40 10.5t-15 41.5v13h27v-12q0 -11 8 -17.5t25 -6.5h250l-256 -363l-8 7h259v-29h-305l259 365l8 -9h-212z" />
    <glyph glyph-name="uni01C6" unicode="&#x1c6;" horiz-adv-x="939" 
d="M249 -7q-55 0 -99.5 26t-71 72t-26.5 103q0 61 27 106t72.5 70t100.5 25q58 0 108.5 -32.5t73.5 -82.5l-7 -17v493h34v-756h-34v125l7 -19q-24 -50 -74 -81.5t-111 -31.5zM256 22q47 0 85 21.5t61 57.5t25 81v42q-7 40 -32 72.5t-60.5 51t-78.5 18.5q-47 0 -85.5 -21.5
t-61.5 -60t-23 -89.5q0 -48 23 -87t62 -62.5t85 -23.5zM646 356q-25 0 -40 10.5t-15 41.5v13h27v-12q0 -11 8 -17.5t25 -6.5h250l-256 -363l-8 7h259v-29h-305l259 365l8 -9h-212zM649 590l114 -130l-17 -2l115 132h35l-140 -155h-1l-140 155h34z" />
    <glyph glyph-name="e" unicode="e" horiz-adv-x="477" 
d="M255 -7q-58 0 -104 26.5t-72.5 72t-26.5 102.5q0 55 27.5 101t73.5 73.5t103 27.5q66 0 111.5 -39t67.5 -100l-343 -135l-10 26l322 128l-7 -12q-19 42 -55.5 72t-87.5 30q-47 0 -85 -23t-60.5 -61.5t-22.5 -86.5q0 -45 21 -84.5t59.5 -64t89.5 -24.5q33 0 63.5 12.5
t54.5 33.5l18 -25q-27 -22 -62.5 -36t-74.5 -14z" />
    <glyph glyph-name="eacute" unicode="&#xe9;" horiz-adv-x="477" 
d="M255 -7q-58 0 -104 26.5t-72.5 72t-26.5 102.5q0 55 27.5 101t73.5 73.5t103 27.5q66 0 111.5 -39t67.5 -100l-343 -135l-10 26l322 128l-7 -12q-19 42 -55.5 72t-87.5 30q-47 0 -85 -23t-60.5 -61.5t-22.5 -86.5q0 -45 21 -84.5t59.5 -64t89.5 -24.5q33 0 63.5 12.5
t54.5 33.5l18 -25q-27 -22 -62.5 -36t-74.5 -14zM319 601l-99 -133h-27l88 133h38z" />
    <glyph glyph-name="ebreve" unicode="&#x115;" horiz-adv-x="477" 
d="M255 -7q-58 0 -104 26.5t-72.5 72t-26.5 102.5q0 55 27.5 101t73.5 73.5t103 27.5q66 0 111.5 -39t67.5 -100l-343 -135l-10 26l322 128l-7 -12q-19 42 -55.5 72t-87.5 30q-47 0 -85 -23t-60.5 -61.5t-22.5 -86.5q0 -45 21 -84.5t59.5 -64t89.5 -24.5q33 0 63.5 12.5
t54.5 33.5l18 -25q-27 -22 -62.5 -36t-74.5 -14zM237 465q-36 0 -64.5 20.5t-45.5 57.5t-20 84h26q2 -36 15.5 -67t36.5 -49.5t52 -18.5q30 0 52 18.5t35 49.5t15 67h26q-1 -48 -18.5 -84.5t-45.5 -57t-64 -20.5z" />
    <glyph glyph-name="ecaron" unicode="&#x11b;" horiz-adv-x="477" 
d="M255 -7q-58 0 -104 26.5t-72.5 72t-26.5 102.5q0 55 27.5 101t73.5 73.5t103 27.5q66 0 111.5 -39t67.5 -100l-343 -135l-10 26l322 128l-7 -12q-19 42 -55.5 72t-87.5 30q-47 0 -85 -23t-60.5 -61.5t-22.5 -86.5q0 -45 21 -84.5t59.5 -64t89.5 -24.5q33 0 63.5 12.5
t54.5 33.5l18 -25q-27 -22 -62.5 -36t-74.5 -14zM136 594l114 -130l-17 -2l115 132h35l-140 -155h-1l-140 155h34z" />
    <glyph glyph-name="ecircumflex" unicode="&#xea;" horiz-adv-x="477" 
d="M255 -7q-58 0 -104 26.5t-72.5 72t-26.5 102.5q0 55 27.5 101t73.5 73.5t103 27.5q66 0 111.5 -39t67.5 -100l-343 -135l-10 26l322 128l-7 -12q-19 42 -55.5 72t-87.5 30q-47 0 -85 -23t-60.5 -61.5t-22.5 -86.5q0 -45 21 -84.5t59.5 -64t89.5 -24.5q33 0 63.5 12.5
t54.5 33.5l18 -25q-27 -22 -62.5 -36t-74.5 -14zM348 484l-114 129l17 2l-115 -131h-34l139 156h1l140 -156h-34z" />
    <glyph glyph-name="uni1EBF" unicode="&#x1ebf;" horiz-adv-x="477" 
d="M255 -7q-58 0 -104 26.5t-72.5 72t-26.5 102.5q0 55 27.5 101t73.5 73.5t103 27.5q66 0 111.5 -39t67.5 -100l-343 -135l-10 26l322 128l-7 -12q-19 42 -55.5 72t-87.5 30q-47 0 -85 -23t-60.5 -61.5t-22.5 -86.5q0 -45 21 -84.5t59.5 -64t89.5 -24.5q33 0 63.5 12.5
t54.5 33.5l18 -25q-27 -22 -62.5 -36t-74.5 -14zM345 473l-114 129l17 2l-115 -131h-34l139 156h1l140 -156h-34zM458 693l-99 -133h-27l88 133h38z" />
    <glyph glyph-name="uni1EC7" unicode="&#x1ec7;" horiz-adv-x="477" 
d="M255 -7q-58 0 -104 26.5t-72.5 72t-26.5 102.5q0 55 27.5 101t73.5 73.5t103 27.5q66 0 111.5 -39t67.5 -100l-343 -135l-10 26l322 128l-7 -12q-19 42 -55.5 72t-87.5 30q-47 0 -85 -23t-60.5 -61.5t-22.5 -86.5q0 -45 21 -84.5t59.5 -64t89.5 -24.5q33 0 63.5 12.5
t54.5 33.5l18 -25q-27 -22 -62.5 -36t-74.5 -14zM211 -99q0 11 8.5 19t20.5 8q10 0 18.5 -8t8.5 -19q0 -12 -8.5 -20t-19.5 -8q-10 0 -19 8.5t-9 19.5zM348 484l-114 129l17 2l-115 -131h-34l139 156h1l140 -156h-34z" />
    <glyph glyph-name="uni1EC1" unicode="&#x1ec1;" horiz-adv-x="477" 
d="M255 -7q-58 0 -104 26.5t-72.5 72t-26.5 102.5q0 55 27.5 101t73.5 73.5t103 27.5q66 0 111.5 -39t67.5 -100l-343 -135l-10 26l322 128l-7 -12q-19 42 -55.5 72t-87.5 30q-47 0 -85 -23t-60.5 -61.5t-22.5 -86.5q0 -45 21 -84.5t59.5 -64t89.5 -24.5q33 0 63.5 12.5
t54.5 33.5l18 -25q-27 -22 -62.5 -36t-74.5 -14zM340 467l-114 129l17 2l-115 -131h-34l139 156h1l140 -156h-34zM-1 702h37l86 -133h-26z" />
    <glyph glyph-name="uni1EC3" unicode="&#x1ec3;" horiz-adv-x="477" 
d="M255 -7q-58 0 -104 26.5t-72.5 72t-26.5 102.5q0 55 27.5 101t73.5 73.5t103 27.5q66 0 111.5 -39t67.5 -100l-343 -135l-10 26l322 128l-7 -12q-19 42 -55.5 72t-87.5 30q-47 0 -85 -23t-60.5 -61.5t-22.5 -86.5q0 -45 21 -84.5t59.5 -64t89.5 -24.5q33 0 63.5 12.5
t54.5 33.5l18 -25q-27 -22 -62.5 -36t-74.5 -14zM341 474l-114 129l17 2l-115 -131h-34l139 156h1l140 -156h-34zM350 567q22 19 37 34.5t15 35.5q0 19 -10 30.5t-29 11.5q-18 0 -30 -8.5t-26 -27.5l-17 12q16 25 34.5 37t41.5 12q17 0 30.5 -7t22 -21t8.5 -37
q0 -29 -18.5 -48.5t-44.5 -39.5z" />
    <glyph glyph-name="uni1EC5" unicode="&#x1ec5;" horiz-adv-x="477" 
d="M255 -7q-58 0 -104 26.5t-72.5 72t-26.5 102.5q0 55 27.5 101t73.5 73.5t103 27.5q66 0 111.5 -39t67.5 -100l-343 -135l-10 26l322 128l-7 -12q-19 42 -55.5 72t-87.5 30q-47 0 -85 -23t-60.5 -61.5t-22.5 -86.5q0 -45 21 -84.5t59.5 -64t89.5 -24.5q33 0 63.5 12.5
t54.5 33.5l18 -25q-27 -22 -62.5 -36t-74.5 -14zM345 457l-114 129l17 2l-115 -131h-34l139 156h1l140 -156h-34zM311 632q-29 0 -47 14.5t-33 31.5q-13 14 -27 26t-33 12q-12 0 -24 -8t-21 -27t-11 -54l-23 1q0 39 11.5 65t29.5 38.5t39 12.5q27 0 44.5 -14.5t32.5 -31.5
q13 -15 27.5 -27t34.5 -12t35 19t17 71l23 -1q0 -39 -10 -65t-27 -38.5t-38 -12.5z" />
    <glyph glyph-name="uni0205" unicode="&#x205;" horiz-adv-x="477" 
d="M255 -7q-58 0 -104 26.5t-72.5 72t-26.5 102.5q0 55 27.5 101t73.5 73.5t103 27.5q66 0 111.5 -39t67.5 -100l-343 -135l-10 26l322 128l-7 -12q-19 42 -55.5 72t-87.5 30q-47 0 -85 -23t-60.5 -61.5t-22.5 -86.5q0 -45 21 -84.5t59.5 -64t89.5 -24.5q33 0 63.5 12.5
t54.5 33.5l18 -25q-27 -22 -62.5 -36t-74.5 -14zM85 618h37l86 -133h-26zM190 618h37l86 -133h-26z" />
    <glyph glyph-name="edieresis" unicode="&#xeb;" horiz-adv-x="477" 
d="M255 -7q-58 0 -104 26.5t-72.5 72t-26.5 102.5q0 55 27.5 101t73.5 73.5t103 27.5q66 0 111.5 -39t67.5 -100l-343 -135l-10 26l322 128l-7 -12q-19 42 -55.5 72t-87.5 30q-47 0 -85 -23t-60.5 -61.5t-22.5 -86.5q0 -45 21 -84.5t59.5 -64t89.5 -24.5q33 0 63.5 12.5
t54.5 33.5l18 -25q-27 -22 -62.5 -36t-74.5 -14zM127 511q0 11 8.5 19.5t19.5 8.5t19.5 -8.5t8.5 -20.5q0 -11 -8.5 -19.5t-19.5 -8.5t-19.5 8.5t-8.5 20.5v0zM298 511q0 11 8.5 19.5t19.5 8.5q10 0 19 -8.5t9 -20.5q0 -11 -9 -19.5t-19 -8.5q-11 0 -19.5 8.5t-8.5 20.5v0z
" />
    <glyph glyph-name="edotaccent" unicode="&#x117;" horiz-adv-x="477" 
d="M255 -7q-58 0 -104 26.5t-72.5 72t-26.5 102.5q0 55 27.5 101t73.5 73.5t103 27.5q66 0 111.5 -39t67.5 -100l-343 -135l-10 26l322 128l-7 -12q-19 42 -55.5 72t-87.5 30q-47 0 -85 -23t-60.5 -61.5t-22.5 -86.5q0 -45 21 -84.5t59.5 -64t89.5 -24.5q33 0 63.5 12.5
t54.5 33.5l18 -25q-27 -22 -62.5 -36t-74.5 -14zM212 520q0 11 9 19t21 8q11 0 19.5 -8t8.5 -19q0 -12 -8.5 -20t-19.5 -8q-12 0 -21 8t-9 20z" />
    <glyph glyph-name="uni1EB9" unicode="&#x1eb9;" horiz-adv-x="477" 
d="M255 -7q-58 0 -104 26.5t-72.5 72t-26.5 102.5q0 55 27.5 101t73.5 73.5t103 27.5q66 0 111.5 -39t67.5 -100l-343 -135l-10 26l322 128l-7 -12q-19 42 -55.5 72t-87.5 30q-47 0 -85 -23t-60.5 -61.5t-22.5 -86.5q0 -45 21 -84.5t59.5 -64t89.5 -24.5q33 0 63.5 12.5
t54.5 33.5l18 -25q-27 -22 -62.5 -36t-74.5 -14zM211 -99q0 11 8.5 19t20.5 8q10 0 18.5 -8t8.5 -19q0 -12 -8.5 -20t-19.5 -8q-10 0 -19 8.5t-9 19.5z" />
    <glyph glyph-name="egrave" unicode="&#xe8;" horiz-adv-x="477" 
d="M255 -7q-58 0 -104 26.5t-72.5 72t-26.5 102.5q0 55 27.5 101t73.5 73.5t103 27.5q66 0 111.5 -39t67.5 -100l-343 -135l-10 26l322 128l-7 -12q-19 42 -55.5 72t-87.5 30q-47 0 -85 -23t-60.5 -61.5t-22.5 -86.5q0 -45 21 -84.5t59.5 -64t89.5 -24.5q33 0 63.5 12.5
t54.5 33.5l18 -25q-27 -22 -62.5 -36t-74.5 -14zM135 618h37l86 -133h-26z" />
    <glyph glyph-name="uni1EBB" unicode="&#x1ebb;" horiz-adv-x="477" 
d="M255 -7q-58 0 -104 26.5t-72.5 72t-26.5 102.5q0 55 27.5 101t73.5 73.5t103 27.5q66 0 111.5 -39t67.5 -100l-343 -135l-10 26l322 128l-7 -12q-19 42 -55.5 72t-87.5 30q-47 0 -85 -23t-60.5 -61.5t-22.5 -86.5q0 -45 21 -84.5t59.5 -64t89.5 -24.5q33 0 63.5 12.5
t54.5 33.5l18 -25q-27 -22 -62.5 -36t-74.5 -14zM235 455q22 19 37 34.5t15 35.5q0 19 -10 30.5t-29 11.5q-18 0 -30 -8.5t-26 -27.5l-17 12q16 25 34.5 37t41.5 12q17 0 30.5 -7t22 -21t8.5 -37q0 -29 -18.5 -48.5t-44.5 -39.5z" />
    <glyph glyph-name="uni0207" unicode="&#x207;" horiz-adv-x="477" 
d="M255 -7q-58 0 -104 26.5t-72.5 72t-26.5 102.5q0 55 27.5 101t73.5 73.5t103 27.5q66 0 111.5 -39t67.5 -100l-343 -135l-10 26l322 128l-7 -12q-19 42 -55.5 72t-87.5 30q-47 0 -85 -23t-60.5 -61.5t-22.5 -86.5q0 -45 21 -84.5t59.5 -64t89.5 -24.5q33 0 63.5 12.5
t54.5 33.5l18 -25q-27 -22 -62.5 -36t-74.5 -14zM244 610q37 0 65 -20.5t45.5 -57t19.5 -84.5h-25q-2 37 -16 67.5t-36.5 49t-52.5 18.5q-29 0 -51.5 -18.5t-35.5 -49t-14 -67.5h-27q2 48 19 84.5t45.5 57t63.5 20.5z" />
    <glyph glyph-name="emacron" unicode="&#x113;" horiz-adv-x="477" 
d="M255 -7q-58 0 -104 26.5t-72.5 72t-26.5 102.5q0 55 27.5 101t73.5 73.5t103 27.5q66 0 111.5 -39t67.5 -100l-343 -135l-10 26l322 128l-7 -12q-19 42 -55.5 72t-87.5 30q-47 0 -85 -23t-60.5 -61.5t-22.5 -86.5q0 -45 21 -84.5t59.5 -64t89.5 -24.5q33 0 63.5 12.5
t54.5 33.5l18 -25q-27 -22 -62.5 -36t-74.5 -14zM125 519h233v-27h-233v27z" />
    <glyph glyph-name="eogonek" unicode="&#x119;" horiz-adv-x="478" 
d="M337 -193q-37 0 -63.5 25t-26.5 66q0 31 14.5 59.5t43.5 51.5l28 2q-8 -5 -21.5 -9t-28 -6.5t-27.5 -2.5q-58 0 -104 26.5t-72.5 72t-26.5 102.5q0 55 27.5 101t73.5 73.5t102 27.5q67 0 112.5 -39t66.5 -100l-342 -135l-8 24l321 127l-9 -9q-21 45 -57 73.5t-85 28.5
q-48 0 -86 -23t-60.5 -61.5t-22.5 -86.5q0 -46 22.5 -85.5t61 -63.5t86.5 -24q34 0 64.5 12.5t53.5 33.5l19 -25q-19 -15 -39 -28t-37.5 -28t-28 -35t-10.5 -50q0 -31 19.5 -49.5t42.5 -18.5q16 0 29 8t24 23l15 -21q-12 -16 -31 -26.5t-40 -10.5z" />
    <glyph glyph-name="uni1EBD" unicode="&#x1ebd;" horiz-adv-x="477" 
d="M255 -7q-58 0 -104 26.5t-72.5 72t-26.5 102.5q0 55 27.5 101t73.5 73.5t103 27.5q66 0 111.5 -39t67.5 -100l-343 -135l-10 26l322 128l-7 -12q-19 42 -55.5 72t-87.5 30q-47 0 -85 -23t-60.5 -61.5t-22.5 -86.5q0 -45 21 -84.5t59.5 -64t89.5 -24.5q33 0 63.5 12.5
t54.5 33.5l18 -25q-27 -22 -62.5 -36t-74.5 -14zM314 454q-29 0 -47 14.5t-33 31.5q-13 14 -27 26t-33 12q-12 0 -24 -8t-21 -27t-11 -54l-23 1q0 39 11.5 65t29.5 38.5t39 12.5q27 0 44.5 -14.5t32.5 -31.5q13 -15 27.5 -27t34.5 -12t35 19t17 71l23 -1q0 -39 -10 -65
t-27 -38.5t-38 -12.5z" />
    <glyph glyph-name="uni0259" unicode="&#x259;" horiz-adv-x="477" 
d="M222 392q59 0 104.5 -26.5t72 -72t26.5 -101.5t-27.5 -102.5t-73 -73.5t-102.5 -27q-67 0 -112.5 39t-67.5 100l343 135l10 -26l-322 -128l8 12q18 -42 54.5 -72.5t88.5 -30.5q47 0 85 23t60 62.5t22 86.5q0 46 -21 85t-59 63t-89 24q-34 0 -64.5 -12t-53.5 -33l-18 24
q27 23 62.5 37t73.5 14z" />
    <glyph glyph-name="f" unicode="f" horiz-adv-x="308" 
d="M115 0v352h-67v31h67v203q0 95 30 135t90 40q12 0 25 -3t24 -9l-14 -24q-6 4 -14 6t-19 2q-45 0 -66.5 -31.5t-21.5 -113.5v-205h130v-31h-130v-352h-34z" />
    <glyph glyph-name="g" unicode="g" horiz-adv-x="554" 
d="M258 -187q-29 0 -57.5 7t-58 24t-61.5 48l20 23q46 -44 84 -57.5t71 -13.5q65 0 102 20.5t52.5 54.5t17.5 75l1 132l9 -9q-21 -55 -72.5 -89.5t-115.5 -34.5q-54 0 -99 27t-72 72.5t-27 101.5q0 59 27.5 104.5t74 71t102.5 25.5q57 0 106 -31t71 -80l-5 -16l5 117h29
v-392q0 -46 -19 -87t-64 -67t-121 -26zM86 194q0 -48 23 -87t62 -62t86 -23t85 21.5t61.5 57t25.5 75.5v51q-8 40 -32.5 71t-60.5 49.5t-79 18.5q-47 0 -86 -22t-62 -60.5t-23 -89.5z" />
    <glyph glyph-name="gbreve" unicode="&#x11f;" horiz-adv-x="554" 
d="M258 -187q-29 0 -57.5 7t-58 24t-61.5 48l20 23q46 -44 84 -57.5t71 -13.5q65 0 102 20.5t52.5 54.5t17.5 75l1 132l9 -9q-21 -55 -72.5 -89.5t-115.5 -34.5q-54 0 -99 27t-72 72.5t-27 101.5q0 59 27.5 104.5t74 71t102.5 25.5q57 0 106 -31t71 -80l-5 -16l5 117h29
v-392q0 -46 -19 -87t-64 -67t-121 -26zM86 194q0 -48 23 -87t62 -62t86 -23t85 21.5t61.5 57t25.5 75.5v51q-8 40 -32.5 71t-60.5 49.5t-79 18.5q-47 0 -86 -22t-62 -60.5t-23 -89.5zM273 465q-36 0 -64.5 20.5t-45.5 57.5t-20 84h26q2 -36 15.5 -67t36.5 -49.5t52 -18.5
q30 0 52 18.5t35 49.5t15 67h26q-1 -48 -18.5 -84.5t-45.5 -57t-64 -20.5z" />
    <glyph glyph-name="gcaron" unicode="&#x1e7;" horiz-adv-x="554" 
d="M258 -187q-29 0 -57.5 7t-58 24t-61.5 48l20 23q46 -44 84 -57.5t71 -13.5q65 0 102 20.5t52.5 54.5t17.5 75l1 132l9 -9q-21 -55 -72.5 -89.5t-115.5 -34.5q-54 0 -99 27t-72 72.5t-27 101.5q0 59 27.5 104.5t74 71t102.5 25.5q57 0 106 -31t71 -80l-5 -16l5 117h29
v-392q0 -46 -19 -87t-64 -67t-121 -26zM86 194q0 -48 23 -87t62 -62t86 -23t85 21.5t61.5 57t25.5 75.5v51q-8 40 -32.5 71t-60.5 49.5t-79 18.5q-47 0 -86 -22t-62 -60.5t-23 -89.5zM173 594l114 -130l-17 -2l115 132h35l-140 -155h-1l-140 155h34z" />
    <glyph glyph-name="gcircumflex" unicode="&#x11d;" horiz-adv-x="554" 
d="M258 -187q-29 0 -57.5 7t-58 24t-61.5 48l20 23q46 -44 84 -57.5t71 -13.5q65 0 102 20.5t52.5 54.5t17.5 75l1 132l9 -9q-21 -55 -72.5 -89.5t-115.5 -34.5q-54 0 -99 27t-72 72.5t-27 101.5q0 59 27.5 104.5t74 71t102.5 25.5q57 0 106 -31t71 -80l-5 -16l5 117h29
v-392q0 -46 -19 -87t-64 -67t-121 -26zM86 194q0 -48 23 -87t62 -62t86 -23t85 21.5t61.5 57t25.5 75.5v51q-8 40 -32.5 71t-60.5 49.5t-79 18.5q-47 0 -86 -22t-62 -60.5t-23 -89.5zM385 484l-114 129l17 2l-115 -131h-34l139 156h1l140 -156h-34z" />
    <glyph glyph-name="uni0123" unicode="&#x123;" horiz-adv-x="528" 
d="M236 507q22 53 43 104t43 103h30q-19 -52 -38 -103t-39 -104h-39zM258 -187q-29 0 -57.5 7t-58 24t-61.5 48l20 23q46 -44 84 -57.5t71 -13.5q65 0 102 20.5t52.5 54.5t17.5 75l1 132l9 -9q-21 -55 -72.5 -89.5t-115.5 -34.5q-54 0 -99 27t-72 72.5t-27 101.5
q0 59 27.5 104.5t74 71t102.5 25.5q57 0 106 -31t71 -80l-5 -16l5 117h29v-392q0 -46 -19 -87t-64 -67t-121 -26zM86 194q0 -48 23 -87t62 -62t86 -23t85 21.5t61.5 57t25.5 75.5v51q-8 40 -32.5 71t-60.5 49.5t-79 18.5q-47 0 -86 -22t-62 -60.5t-23 -89.5z" />
    <glyph glyph-name="gdotaccent" unicode="&#x121;" horiz-adv-x="554" 
d="M258 -187q-29 0 -57.5 7t-58 24t-61.5 48l20 23q46 -44 84 -57.5t71 -13.5q65 0 102 20.5t52.5 54.5t17.5 75l1 132l9 -9q-21 -55 -72.5 -89.5t-115.5 -34.5q-54 0 -99 27t-72 72.5t-27 101.5q0 59 27.5 104.5t74 71t102.5 25.5q57 0 106 -31t71 -80l-5 -16l5 117h29
v-392q0 -46 -19 -87t-64 -67t-121 -26zM86 194q0 -48 23 -87t62 -62t86 -23t85 21.5t61.5 57t25.5 75.5v51q-8 40 -32.5 71t-60.5 49.5t-79 18.5q-47 0 -86 -22t-62 -60.5t-23 -89.5zM249 520q0 11 9 19t21 8q11 0 19.5 -8t8.5 -19q0 -12 -8.5 -20t-19.5 -8q-12 0 -21 8
t-9 20z" />
    <glyph glyph-name="h" unicode="h" horiz-adv-x="500" 
d="M91 0v756h33v-476l-2 15q19 41 63.5 70t102.5 29q54 0 86.5 -32t33.5 -83v-279h-34v272q-1 38 -25 64.5t-70 27.5q-40 0 -75.5 -19.5t-57 -53.5t-21.5 -77v-214h-34z" />
    <glyph glyph-name="hbar" unicode="&#x127;" horiz-adv-x="500" 
d="M91 0v756h33v-476l-2 15q19 41 63.5 70t102.5 29q54 0 86.5 -32t33.5 -83v-279h-34v272q-1 38 -25 64.5t-70 27.5q-40 0 -75.5 -19.5t-57 -53.5t-21.5 -77v-214h-34zM-9 586h236v-32h-236v32z" />
    <glyph glyph-name="hcircumflex" unicode="&#x125;" horiz-adv-x="500" 
d="M91 0v756h33v-476l-2 15q19 41 63.5 70t102.5 29q54 0 86.5 -32t33.5 -83v-279h-34v272q-1 38 -25 64.5t-70 27.5q-40 0 -75.5 -19.5t-57 -53.5t-21.5 -77v-214h-34zM208 805l-114 129l17 2l-115 -131h-34l139 156h1l140 -156h-34z" />
    <glyph glyph-name="i" unicode="i" horiz-adv-x="217" 
d="M91 385h34v-385h-34v385zM80 517q0 11 9 19t21 8q11 0 19.5 -8t8.5 -19q0 -12 -8.5 -20t-19.5 -8q-12 0 -21 8t-9 20z" />
    <glyph glyph-name="dotlessi" unicode="&#x131;" horiz-adv-x="217" 
d="M91 385h34v-385h-34v385z" />
    <glyph glyph-name="iacute" unicode="&#xed;" horiz-adv-x="217" 
d="M91 385h34v-385h-34v385zM186 597l-99 -133h-27l88 133h38z" />
    <glyph glyph-name="ibreve" unicode="&#x12d;" horiz-adv-x="217" 
d="M91 385h34v-385h-34v385zM105 461q-36 0 -64.5 20.5t-45.5 57.5t-20 84h26q2 -36 15.5 -67t36.5 -49.5t52 -18.5q30 0 52 18.5t35 49.5t15 67h26q-1 -48 -18.5 -84.5t-45.5 -57t-64 -20.5z" />
    <glyph glyph-name="icircumflex" unicode="&#xee;" horiz-adv-x="217" 
d="M91 385h34v-385h-34v385zM216 481l-114 129l17 2l-115 -131h-34l139 156h1l140 -156h-34z" />
    <glyph glyph-name="uni0209" unicode="&#x209;" horiz-adv-x="217" 
d="M91 385h34v-385h-34v385zM-47 614h37l86 -133h-26zM58 614h37l86 -133h-26z" />
    <glyph glyph-name="idieresis" unicode="&#xef;" horiz-adv-x="217" 
d="M91 385h34v-385h-34v385zM-6 507q0 11 8.5 19.5t19.5 8.5t19.5 -8.5t8.5 -20.5q0 -11 -8.5 -19.5t-19.5 -8.5t-19.5 8.5t-8.5 20.5v0zM165 507q0 11 8.5 19.5t19.5 8.5q10 0 19 -8.5t9 -20.5q0 -11 -9 -19.5t-19 -8.5q-11 0 -19.5 8.5t-8.5 20.5v0z" />
    <glyph glyph-name="i.loclTRK" horiz-adv-x="217" 
d="M91 385h34v-385h-34v385zM80 517q0 11 9 19t21 8q11 0 19.5 -8t8.5 -19q0 -12 -8.5 -20t-19.5 -8q-12 0 -21 8t-9 20z" />
    <glyph glyph-name="uni1ECB" unicode="&#x1ecb;" horiz-adv-x="217" 
d="M91 385h34v-385h-34v385zM80 517q0 11 9 19t21 8q11 0 19.5 -8t8.5 -19q0 -12 -8.5 -20t-19.5 -8q-12 0 -21 8t-9 20zM78 -99q0 11 8.5 19t20.5 8q10 0 18.5 -8t8.5 -19q0 -12 -8.5 -20t-19.5 -8q-10 0 -19 8.5t-9 19.5z" />
    <glyph glyph-name="igrave" unicode="&#xec;" horiz-adv-x="217" 
d="M91 385h34v-385h-34v385zM2 614h37l86 -133h-26z" />
    <glyph glyph-name="uni1EC9" unicode="&#x1ec9;" horiz-adv-x="217" 
d="M91 385h34v-385h-34v385zM102 451q22 19 37 34.5t15 35.5q0 19 -10 30.5t-29 11.5q-18 0 -30 -8.5t-26 -27.5l-17 12q16 25 34.5 37t41.5 12q17 0 30.5 -7t22 -21t8.5 -37q0 -29 -18.5 -48.5t-44.5 -39.5z" />
    <glyph glyph-name="uni020B" unicode="&#x20b;" horiz-adv-x="217" 
d="M91 385h34v-385h-34v385zM111 607q37 0 65 -20.5t45.5 -57t19.5 -84.5h-25q-2 37 -16 67.5t-36.5 49t-52.5 18.5q-29 0 -51.5 -18.5t-35.5 -49t-14 -67.5h-27q2 48 19 84.5t45.5 57t63.5 20.5z" />
    <glyph glyph-name="ij" unicode="&#x133;" horiz-adv-x="437" 
d="M91 385h34v-385h-34v385zM80 517q0 11 9 19t21 8q11 0 19.5 -8t8.5 -19q0 -12 -8.5 -20t-19.5 -8q-12 0 -21 8t-9 20zM285 -185l-23 21q26 27 41 66.5t15 89.5v393h35v-391q0 -61 -17.5 -105.5t-50.5 -73.5zM307 517q0 11 9 19t21 8q11 0 19.5 -8t8.5 -19q0 -12 -8.5 -20
t-19.5 -8q-12 0 -21 8t-9 20z" />
    <glyph glyph-name="imacron" unicode="&#x12b;" horiz-adv-x="217" 
d="M91 385h34v-385h-34v385zM-8 515h233v-27h-233v27z" />
    <glyph glyph-name="iogonek" unicode="&#x12f;" horiz-adv-x="218" 
d="M83 -193q-32 0 -56.5 22.5t-24.5 60.5t28.5 70t67.5 51l20 -4l8 -7q-45 -24 -69.5 -51t-24.5 -57q0 -27 17 -42.5t37 -15.5q19 0 35 13t27 33l18 -17q-12 -23 -34.5 -39.5t-48.5 -16.5zM91 385h34v-385h-34v385zM79 482q0 12 9.5 20t20.5 8t19.5 -8t8.5 -20t-8.5 -20
t-19.5 -8t-20.5 8.5t-9.5 19.5z" />
    <glyph glyph-name="itilde" unicode="&#x129;" horiz-adv-x="217" 
d="M91 385h34v-385h-34v385zM182 450q-29 0 -47 14.5t-33 31.5q-13 14 -27 26t-33 12q-12 0 -24 -8t-21 -27t-11 -54l-23 1q0 39 11.5 65t29.5 38.5t39 12.5q27 0 44.5 -14.5t32.5 -31.5q13 -15 27.5 -27t34.5 -12t35 19t17 71l23 -1q0 -39 -10 -65t-27 -38.5t-38 -12.5z
" />
    <glyph glyph-name="j" unicode="j" horiz-adv-x="220" 
d="M68 -185l-23 21q26 27 41 66.5t15 89.5v393h35v-391q0 -61 -17.5 -105.5t-50.5 -73.5zM90 517q0 11 9 19t21 8q11 0 19.5 -8t8.5 -19q0 -12 -8.5 -20t-19.5 -8q-12 0 -21 8t-9 20z" />
    <glyph glyph-name="uni0237" unicode="&#x237;" horiz-adv-x="220" 
d="M68 -185l-23 21q26 27 41 66.5t15 89.5v393h35v-391q0 -61 -17.5 -105.5t-50.5 -73.5z" />
    <glyph glyph-name="jcircumflex" unicode="&#x135;" horiz-adv-x="220" 
d="M68 -185l-23 21q26 27 41 66.5t15 89.5v393h35v-391q0 -61 -17.5 -105.5t-50.5 -73.5zM226 481l-114 129l17 2l-115 -131h-34l139 156h1l140 -156h-34z" />
    <glyph glyph-name="k" unicode="k" horiz-adv-x="437" 
d="M91 0v756h34v-756h-34zM212 248l179 -248h-39l-165 229zM113 145l-3 35l235 212l21 -18z" />
    <glyph glyph-name="uni0137" unicode="&#x137;" horiz-adv-x="437" 
d="M91 0v756h34v-756h-34zM212 248l179 -248h-39l-165 229zM113 145l-3 35l235 212l21 -18zM176 -187l-17 14q27 20 38 54t6 76h34q2 -26 -2 -54t-18 -51.5t-41 -38.5z" />
    <glyph glyph-name="kgreenlandic" unicode="&#x138;" horiz-adv-x="436" 
d="M119 138l-5 31l221 216h42zM125 0h-34v385h34v-385zM183 216l201 -216h-42l-182 197z" />
    <glyph glyph-name="l" unicode="l" horiz-adv-x="217" 
d="M91 756h34v-756h-34v756z" />
    <glyph glyph-name="lacute" unicode="&#x13a;" horiz-adv-x="217" 
d="M91 756h34v-756h-34v756zM228 929l-99 -133h-27l88 133h38z" />
    <glyph glyph-name="lcaron" unicode="&#x13e;" horiz-adv-x="356" 
d="M91 756h34v-756h-34v756zM258 580l-16 19q21 20 31 51.5t3 66.5l34 7q5 -27 0 -54t-18 -50t-34 -40v0z" />
    <glyph glyph-name="uni013C" unicode="&#x13c;" horiz-adv-x="217" 
d="M91 756h34v-756h-34v756zM65 -187l-17 14q27 20 38 54t6 76h34q2 -26 -2 -54t-18 -51.5t-41 -38.5z" />
    <glyph glyph-name="ldot" unicode="&#x140;" horiz-adv-x="275" 
d="M91 756h34v-756h-34v756zM221 289q0 12 8.5 20.5t19.5 8.5t19.5 -8.5t8.5 -20.5t-8.5 -20t-19.5 -8t-19.5 8t-8.5 20v0z" />
    <glyph glyph-name="uni01C9" unicode="&#x1c9;" horiz-adv-x="437" 
d="M91 756h34v-756h-34v756zM285 -185l-23 21q26 27 41 66.5t15 89.5v393h35v-391q0 -61 -17.5 -105.5t-50.5 -73.5zM307 517q0 11 9 19t21 8q11 0 19.5 -8t8.5 -19q0 -12 -8.5 -20t-19.5 -8q-12 0 -21 8t-9 20z" />
    <glyph glyph-name="lslash" unicode="&#x142;" horiz-adv-x="205" 
d="M198 359v-31l-172 -57v30zM93 756h34v-756h-34v756z" />
    <glyph glyph-name="m" unicode="m" horiz-adv-x="776" 
d="M120 385l4 -114l-6 10q19 52 65.5 82.5t102.5 30.5q32 0 58.5 -13t43 -35t18.5 -50l-5 -6q20 51 65 77.5t98 26.5q55 0 87 -31.5t34 -78.5v-284h-34v276q-1 35 -24 60.5t-68 27.5q-40 0 -74.5 -19.5t-56 -52t-23.5 -73.5v-219h-34v276q-1 35 -24 60.5t-68 27.5
q-41 0 -76 -19.5t-56.5 -53.5t-21.5 -77v-214h-34v385h29z" />
    <glyph glyph-name="n" unicode="n" horiz-adv-x="500" 
d="M120 385l4 -123l-4 19q16 53 63 83t105 30q54 0 86.5 -32t33.5 -83v-279h-34v272q-1 38 -25 64.5t-70 27.5q-40 0 -75.5 -18.5t-57 -52.5t-21.5 -79v-214h-34v385h29z" />
    <glyph glyph-name="nacute" unicode="&#x144;" horiz-adv-x="500" 
d="M120 385l4 -123l-4 19q16 53 63 83t105 30q54 0 86.5 -32t33.5 -83v-279h-34v272q-1 38 -25 64.5t-70 27.5q-40 0 -75.5 -18.5t-57 -52.5t-21.5 -79v-214h-34v385h29zM328 599l-99 -133h-27l88 133h38z" />
    <glyph glyph-name="napostrophe" unicode="&#x149;" horiz-adv-x="507" 
d="M-12 391l-17 14q27 20 38 54t6 76h34q2 -26 -2 -54t-18 -51.5t-41 -38.5zM127 385l4 -123l-4 19q16 53 63 83t105 30q54 0 86.5 -32t33.5 -83v-279h-34v272q-1 38 -25 64.5t-70 27.5q-40 0 -75.5 -18.5t-57 -52.5t-21.5 -79v-214h-34v385h29z" />
    <glyph glyph-name="ncaron" unicode="&#x148;" horiz-adv-x="500" 
d="M120 385l4 -123l-4 19q16 53 63 83t105 30q54 0 86.5 -32t33.5 -83v-279h-34v272q-1 38 -25 64.5t-70 27.5q-40 0 -75.5 -18.5t-57 -52.5t-21.5 -79v-214h-34v385h29zM145 592l114 -130l-17 -2l115 132h35l-140 -155h-1l-140 155h34z" />
    <glyph glyph-name="uni0146" unicode="&#x146;" horiz-adv-x="500" 
d="M120 385l4 -123l-4 19q16 53 63 83t105 30q54 0 86.5 -32t33.5 -83v-279h-34v272q-1 38 -25 64.5t-70 27.5q-40 0 -75.5 -18.5t-57 -52.5t-21.5 -79v-214h-34v385h29zM207 -187l-17 14q27 20 38 54t6 76h34q2 -26 -2 -54t-18 -51.5t-41 -38.5z" />
    <glyph glyph-name="eng" unicode="&#x14b;" horiz-adv-x="500" 
d="M408 -4q0 -60 -17.5 -105.5t-49.5 -75.5l-22 21q25 27 40 66.5t15 89.5v280q-1 38 -25 64.5t-70 27.5q-40 0 -75.5 -18.5t-57 -52.5t-21.5 -79v-214h-34v385h29l4 -104q16 53 61 83t103 30q54 0 86.5 -32t33.5 -83v-283z" />
    <glyph glyph-name="uni0272" unicode="&#x272;" horiz-adv-x="500" 
d="M59 -185l-23 21q25 27 40.5 66.5t15.5 89.5v62h34v-60q0 -61 -19 -105t-48 -74zM120 385l4 -123l-4 19q16 53 63 83t105 30q54 0 86.5 -32t33.5 -83v-279h-34v272q-1 38 -25 64.5t-70 27.5q-40 0 -75.5 -18.5t-57 -52.5t-21.5 -79v-214h-34v385h29z" />
    <glyph glyph-name="uni01CC" unicode="&#x1cc;" horiz-adv-x="720" 
d="M120 385l4 -123l-4 19q16 53 63 83t105 30q54 0 86.5 -32t33.5 -83v-279h-34v272q-1 38 -25 64.5t-70 27.5q-40 0 -75.5 -18.5t-57 -52.5t-21.5 -79v-214h-34v385h29zM568 -185l-23 21q26 27 41 66.5t15 89.5v393h35v-391q0 -61 -17.5 -105.5t-50.5 -73.5zM590 517
q0 11 9 19t21 8q11 0 19.5 -8t8.5 -19q0 -12 -8.5 -20t-19.5 -8q-12 0 -21 8t-9 20z" />
    <glyph glyph-name="ntilde" unicode="&#xf1;" horiz-adv-x="500" 
d="M120 385l4 -123l-4 19q16 53 63 83t105 30q54 0 86.5 -32t33.5 -83v-279h-34v272q-1 38 -25 64.5t-70 27.5q-40 0 -75.5 -18.5t-57 -52.5t-21.5 -79v-214h-34v385h29zM323 452q-29 0 -47 14.5t-33 31.5q-13 14 -27 26t-33 12q-12 0 -24 -8t-21 -27t-11 -54l-23 1
q0 39 11.5 65t29.5 38.5t39 12.5q27 0 44.5 -14.5t32.5 -31.5q13 -15 27.5 -27t34.5 -12t35 19t17 71l23 -1q0 -39 -10 -65t-27 -38.5t-38 -12.5z" />
    <glyph glyph-name="o" unicode="o" horiz-adv-x="511" 
d="M52 194q0 56 27 102t73.5 73t103.5 27t103 -27t73 -73.5t27 -101.5q0 -56 -27 -101.5t-73 -72.5t-104 -27q-57 0 -103 26t-73 71t-27 104zM86 194q0 -49 22.5 -87.5t61 -61.5t85.5 -23t85 23t61 61.5t23 87.5q0 47 -23 86t-61 62.5t-85 23.5q-48 0 -86.5 -25t-60.5 -64
t-22 -83z" />
    <glyph glyph-name="oacute" unicode="&#xf3;" horiz-adv-x="511" 
d="M52 194q0 56 27 102t73.5 73t103.5 27t103 -27t73 -73.5t27 -101.5q0 -56 -27 -101.5t-73 -72.5t-104 -27q-57 0 -103 26t-73 71t-27 104zM86 194q0 -49 22.5 -87.5t61 -61.5t85.5 -23t85 23t61 61.5t23 87.5q0 47 -23 86t-61 62.5t-85 23.5q-48 0 -86.5 -25t-60.5 -64
t-22 -83zM334 601l-99 -133h-27l88 133h38z" />
    <glyph glyph-name="obreve" unicode="&#x14f;" horiz-adv-x="511" 
d="M52 194q0 56 27 102t73.5 73t103.5 27t103 -27t73 -73.5t27 -101.5q0 -56 -27 -101.5t-73 -72.5t-104 -27q-57 0 -103 26t-73 71t-27 104zM86 194q0 -49 22.5 -87.5t61 -61.5t85.5 -23t85 23t61 61.5t23 87.5q0 47 -23 86t-61 62.5t-85 23.5q-48 0 -86.5 -25t-60.5 -64
t-22 -83zM252 465q-36 0 -64.5 20.5t-45.5 57.5t-20 84h26q2 -36 15.5 -67t36.5 -49.5t52 -18.5q30 0 52 18.5t35 49.5t15 67h26q-1 -48 -18.5 -84.5t-45.5 -57t-64 -20.5z" />
    <glyph glyph-name="ocircumflex" unicode="&#xf4;" horiz-adv-x="511" 
d="M52 194q0 56 27 102t73.5 73t103.5 27t103 -27t73 -73.5t27 -101.5q0 -56 -27 -101.5t-73 -72.5t-104 -27q-57 0 -103 26t-73 71t-27 104zM86 194q0 -49 22.5 -87.5t61 -61.5t85.5 -23t85 23t61 61.5t23 87.5q0 47 -23 86t-61 62.5t-85 23.5q-48 0 -86.5 -25t-60.5 -64
t-22 -83zM363 484l-114 129l17 2l-115 -131h-34l139 156h1l140 -156h-34z" />
    <glyph glyph-name="uni1ED1" unicode="&#x1ed1;" horiz-adv-x="511" 
d="M52 194q0 56 27 102t73.5 73t103.5 27t103 -27t73 -73.5t27 -101.5q0 -56 -27 -101.5t-73 -72.5t-104 -27q-57 0 -103 26t-73 71t-27 104zM86 194q0 -49 22.5 -87.5t61 -61.5t85.5 -23t85 23t61 61.5t23 87.5q0 47 -23 86t-61 62.5t-85 23.5q-48 0 -86.5 -25t-60.5 -64
t-22 -83zM360 473l-114 129l17 2l-115 -131h-34l139 156h1l140 -156h-34zM473 693l-99 -133h-27l88 133h38z" />
    <glyph glyph-name="uni1ED9" unicode="&#x1ed9;" horiz-adv-x="511" 
d="M52 194q0 56 27 102t73.5 73t103.5 27t103 -27t73 -73.5t27 -101.5q0 -56 -27 -101.5t-73 -72.5t-104 -27q-57 0 -103 26t-73 71t-27 104zM86 194q0 -49 22.5 -87.5t61 -61.5t85.5 -23t85 23t61 61.5t23 87.5q0 47 -23 86t-61 62.5t-85 23.5q-48 0 -86.5 -25t-60.5 -64
t-22 -83zM227 -99q0 11 8.5 19t20.5 8q10 0 18.5 -8t8.5 -19q0 -12 -8.5 -20t-19.5 -8q-10 0 -19 8.5t-9 19.5zM363 484l-114 129l17 2l-115 -131h-34l139 156h1l140 -156h-34z" />
    <glyph glyph-name="uni1ED3" unicode="&#x1ed3;" horiz-adv-x="511" 
d="M52 194q0 56 27 102t73.5 73t103.5 27t103 -27t73 -73.5t27 -101.5q0 -56 -27 -101.5t-73 -72.5t-104 -27q-57 0 -103 26t-73 71t-27 104zM86 194q0 -49 22.5 -87.5t61 -61.5t85.5 -23t85 23t61 61.5t23 87.5q0 47 -23 86t-61 62.5t-85 23.5q-48 0 -86.5 -25t-60.5 -64
t-22 -83zM355 467l-114 129l17 2l-115 -131h-34l139 156h1l140 -156h-34zM14 702h37l86 -133h-26z" />
    <glyph glyph-name="uni1ED5" unicode="&#x1ed5;" horiz-adv-x="511" 
d="M52 194q0 56 27 102t73.5 73t103.5 27t103 -27t73 -73.5t27 -101.5q0 -56 -27 -101.5t-73 -72.5t-104 -27q-57 0 -103 26t-73 71t-27 104zM86 194q0 -49 22.5 -87.5t61 -61.5t85.5 -23t85 23t61 61.5t23 87.5q0 47 -23 86t-61 62.5t-85 23.5q-48 0 -86.5 -25t-60.5 -64
t-22 -83zM357 474l-114 129l17 2l-115 -131h-34l139 156h1l140 -156h-34zM366 567q22 19 37 34.5t15 35.5q0 19 -10 30.5t-29 11.5q-18 0 -30 -8.5t-26 -27.5l-17 12q16 25 34.5 37t41.5 12q17 0 30.5 -7t22 -21t8.5 -37q0 -29 -18.5 -48.5t-44.5 -39.5z" />
    <glyph glyph-name="uni1ED7" unicode="&#x1ed7;" horiz-adv-x="511" 
d="M52 194q0 56 27 102t73.5 73t103.5 27t103 -27t73 -73.5t27 -101.5q0 -56 -27 -101.5t-73 -72.5t-104 -27q-57 0 -103 26t-73 71t-27 104zM86 194q0 -49 22.5 -87.5t61 -61.5t85.5 -23t85 23t61 61.5t23 87.5q0 47 -23 86t-61 62.5t-85 23.5q-48 0 -86.5 -25t-60.5 -64
t-22 -83zM360 457l-114 129l17 2l-115 -131h-34l139 156h1l140 -156h-34zM326 632q-29 0 -47 14.5t-33 31.5q-13 14 -27 26t-33 12q-12 0 -24 -8t-21 -27t-11 -54l-23 1q0 39 11.5 65t29.5 38.5t39 12.5q27 0 44.5 -14.5t32.5 -31.5q13 -15 27.5 -27t34.5 -12t35 19t17 71
l23 -1q0 -39 -10 -65t-27 -38.5t-38 -12.5z" />
    <glyph glyph-name="uni020D" unicode="&#x20d;" horiz-adv-x="511" 
d="M52 194q0 56 27 102t73.5 73t103.5 27t103 -27t73 -73.5t27 -101.5q0 -56 -27 -101.5t-73 -72.5t-104 -27q-57 0 -103 26t-73 71t-27 104zM86 194q0 -49 22.5 -87.5t61 -61.5t85.5 -23t85 23t61 61.5t23 87.5q0 47 -23 86t-61 62.5t-85 23.5q-48 0 -86.5 -25t-60.5 -64
t-22 -83zM100 618h37l86 -133h-26zM205 618h37l86 -133h-26z" />
    <glyph glyph-name="odieresis" unicode="&#xf6;" horiz-adv-x="511" 
d="M52 194q0 56 27 102t73.5 73t103.5 27t103 -27t73 -73.5t27 -101.5q0 -56 -27 -101.5t-73 -72.5t-104 -27q-57 0 -103 26t-73 71t-27 104zM86 194q0 -49 22.5 -87.5t61 -61.5t85.5 -23t85 23t61 61.5t23 87.5q0 47 -23 86t-61 62.5t-85 23.5q-48 0 -86.5 -25t-60.5 -64
t-22 -83zM142 511q0 11 8.5 19.5t19.5 8.5t19.5 -8.5t8.5 -20.5q0 -11 -8.5 -19.5t-19.5 -8.5t-19.5 8.5t-8.5 20.5v0zM313 511q0 11 8.5 19.5t19.5 8.5q10 0 19 -8.5t9 -20.5q0 -11 -9 -19.5t-19 -8.5q-11 0 -19.5 8.5t-8.5 20.5v0z" />
    <glyph glyph-name="uni022B" unicode="&#x22b;" horiz-adv-x="511" 
d="M52 194q0 56 27 102t73.5 73t103.5 27t103 -27t73 -73.5t27 -101.5q0 -56 -27 -101.5t-73 -72.5t-104 -27q-57 0 -103 26t-73 71t-27 104zM86 194q0 -49 22.5 -87.5t61 -61.5t85.5 -23t85 23t61 61.5t23 87.5q0 47 -23 86t-61 62.5t-85 23.5q-48 0 -86.5 -25t-60.5 -64
t-22 -83zM142 511q0 11 8.5 19.5t19.5 8.5t19.5 -8.5t8.5 -20.5q0 -11 -8.5 -19.5t-19.5 -8.5t-19.5 8.5t-8.5 20.5v0zM313 511q0 11 8.5 19.5t19.5 8.5q10 0 19 -8.5t9 -20.5q0 -11 -9 -19.5t-19 -8.5q-11 0 -19.5 8.5t-8.5 20.5v0zM140 669h233v-27h-233v27z" />
    <glyph glyph-name="uni0231" unicode="&#x231;" horiz-adv-x="511" 
d="M52 194q0 56 27 102t73.5 73t103.5 27t103 -27t73 -73.5t27 -101.5q0 -56 -27 -101.5t-73 -72.5t-104 -27q-57 0 -103 26t-73 71t-27 104zM86 194q0 -49 22.5 -87.5t61 -61.5t85.5 -23t85 23t61 61.5t23 87.5q0 47 -23 86t-61 62.5t-85 23.5q-48 0 -86.5 -25t-60.5 -64
t-22 -83zM227 520q0 11 9 19t21 8q11 0 19.5 -8t8.5 -19q0 -12 -8.5 -20t-19.5 -8q-12 0 -21 8t-9 20zM140 678h233v-27h-233v27z" />
    <glyph glyph-name="uni1ECD" unicode="&#x1ecd;" horiz-adv-x="511" 
d="M52 194q0 56 27 102t73.5 73t103.5 27t103 -27t73 -73.5t27 -101.5q0 -56 -27 -101.5t-73 -72.5t-104 -27q-57 0 -103 26t-73 71t-27 104zM86 194q0 -49 22.5 -87.5t61 -61.5t85.5 -23t85 23t61 61.5t23 87.5q0 47 -23 86t-61 62.5t-85 23.5q-48 0 -86.5 -25t-60.5 -64
t-22 -83zM227 -99q0 11 8.5 19t20.5 8q10 0 18.5 -8t8.5 -19q0 -12 -8.5 -20t-19.5 -8q-10 0 -19 8.5t-9 19.5z" />
    <glyph glyph-name="ograve" unicode="&#xf2;" horiz-adv-x="511" 
d="M52 194q0 56 27 102t73.5 73t103.5 27t103 -27t73 -73.5t27 -101.5q0 -56 -27 -101.5t-73 -72.5t-104 -27q-57 0 -103 26t-73 71t-27 104zM86 194q0 -49 22.5 -87.5t61 -61.5t85.5 -23t85 23t61 61.5t23 87.5q0 47 -23 86t-61 62.5t-85 23.5q-48 0 -86.5 -25t-60.5 -64
t-22 -83zM150 618h37l86 -133h-26z" />
    <glyph glyph-name="uni1ECF" unicode="&#x1ecf;" horiz-adv-x="511" 
d="M52 194q0 56 27 102t73.5 73t103.5 27t103 -27t73 -73.5t27 -101.5q0 -56 -27 -101.5t-73 -72.5t-104 -27q-57 0 -103 26t-73 71t-27 104zM86 194q0 -49 22.5 -87.5t61 -61.5t85.5 -23t85 23t61 61.5t23 87.5q0 47 -23 86t-61 62.5t-85 23.5q-48 0 -86.5 -25t-60.5 -64
t-22 -83zM250 455q22 19 37 34.5t15 35.5q0 19 -10 30.5t-29 11.5q-18 0 -30 -8.5t-26 -27.5l-17 12q16 25 34.5 37t41.5 12q17 0 30.5 -7t22 -21t8.5 -37q0 -29 -18.5 -48.5t-44.5 -39.5z" />
    <glyph glyph-name="ohorn" unicode="&#x1a1;" horiz-adv-x="511" 
d="M52 194q0 56 27 102t73.5 73t103.5 27t103 -27t73 -73.5t27 -101.5q0 -56 -27 -101.5t-73 -72.5t-104 -27q-57 0 -103 26t-73 71t-27 104zM86 194q0 -49 22.5 -87.5t61 -61.5t85.5 -23t85 23t61 61.5t23 87.5q0 47 -23 86t-61 62.5t-85 23.5q-48 0 -86.5 -25t-60.5 -64
t-22 -83zM319 384q49 0 73.5 21.5t26.5 81.5h28q-2 -55 -18.5 -82.5t-44.5 -36t-65 -8.5v24z" />
    <glyph glyph-name="uni1EDB" unicode="&#x1edb;" horiz-adv-x="511" 
d="M52 194q0 56 27 102t73.5 73t103.5 27t103 -27t73 -73.5t27 -101.5q0 -56 -27 -101.5t-73 -72.5t-104 -27q-57 0 -103 26t-73 71t-27 104zM86 194q0 -49 22.5 -87.5t61 -61.5t85.5 -23t85 23t61 61.5t23 87.5q0 47 -23 86t-61 62.5t-85 23.5q-48 0 -86.5 -25t-60.5 -64
t-22 -83zM319 384q49 0 73.5 21.5t26.5 81.5h28q-2 -55 -18.5 -82.5t-44.5 -36t-65 -8.5v24zM334 601l-99 -133h-27l88 133h38z" />
    <glyph glyph-name="uni1EE3" unicode="&#x1ee3;" horiz-adv-x="511" 
d="M52 194q0 56 27 102t73.5 73t103.5 27t103 -27t73 -73.5t27 -101.5q0 -56 -27 -101.5t-73 -72.5t-104 -27q-57 0 -103 26t-73 71t-27 104zM86 194q0 -49 22.5 -87.5t61 -61.5t85.5 -23t85 23t61 61.5t23 87.5q0 47 -23 86t-61 62.5t-85 23.5q-48 0 -86.5 -25t-60.5 -64
t-22 -83zM319 384q49 0 73.5 21.5t26.5 81.5h28q-2 -55 -18.5 -82.5t-44.5 -36t-65 -8.5v24zM227 -99q0 11 8.5 19t20.5 8q10 0 18.5 -8t8.5 -19q0 -12 -8.5 -20t-19.5 -8q-10 0 -19 8.5t-9 19.5z" />
    <glyph glyph-name="uni1EDD" unicode="&#x1edd;" horiz-adv-x="511" 
d="M52 194q0 56 27 102t73.5 73t103.5 27t103 -27t73 -73.5t27 -101.5q0 -56 -27 -101.5t-73 -72.5t-104 -27q-57 0 -103 26t-73 71t-27 104zM86 194q0 -49 22.5 -87.5t61 -61.5t85.5 -23t85 23t61 61.5t23 87.5q0 47 -23 86t-61 62.5t-85 23.5q-48 0 -86.5 -25t-60.5 -64
t-22 -83zM319 384q49 0 73.5 21.5t26.5 81.5h28q-2 -55 -18.5 -82.5t-44.5 -36t-65 -8.5v24zM150 618h37l86 -133h-26z" />
    <glyph glyph-name="uni1EDF" unicode="&#x1edf;" horiz-adv-x="511" 
d="M52 194q0 56 27 102t73.5 73t103.5 27t103 -27t73 -73.5t27 -101.5q0 -56 -27 -101.5t-73 -72.5t-104 -27q-57 0 -103 26t-73 71t-27 104zM86 194q0 -49 22.5 -87.5t61 -61.5t85.5 -23t85 23t61 61.5t23 87.5q0 47 -23 86t-61 62.5t-85 23.5q-48 0 -86.5 -25t-60.5 -64
t-22 -83zM319 384q49 0 73.5 21.5t26.5 81.5h28q-2 -55 -18.5 -82.5t-44.5 -36t-65 -8.5v24zM250 455q22 19 37 34.5t15 35.5q0 19 -10 30.5t-29 11.5q-18 0 -30 -8.5t-26 -27.5l-17 12q16 25 34.5 37t41.5 12q17 0 30.5 -7t22 -21t8.5 -37q0 -29 -18.5 -48.5t-44.5 -39.5z
" />
    <glyph glyph-name="uni1EE1" unicode="&#x1ee1;" horiz-adv-x="511" 
d="M327 452q-28 0 -45 14t-32 31q-13 14 -26.5 25.5t-32.5 11.5q-11 0 -23 -8t-21 -26.5t-10 -52.5l-22 1q0 38 11 63t28.5 37.5t37.5 12.5q27 0 44 -14.5t31 -30.5q13 -15 26.5 -26.5t33.5 -11.5t34.5 18.5t16.5 69.5l23 -1q0 -39 -10 -64t-26.5 -37t-37.5 -12zM52 194
q0 56 27 102t73.5 73t103.5 27t103 -27t73 -73.5t27 -101.5q0 -56 -27 -101.5t-73 -72.5t-104 -27q-57 0 -103 26t-73 71t-27 104zM86 194q0 -49 22.5 -87.5t61 -61.5t85.5 -23t85 23t61 61.5t23 87.5q0 47 -23 86t-61 62.5t-85 23.5q-48 0 -86.5 -25t-60.5 -64t-22 -83z
M319 384q49 0 73.5 21.5t26.5 81.5h28q-2 -55 -18.5 -82t-45 -36t-64.5 -9v24z" />
    <glyph glyph-name="ohungarumlaut" unicode="&#x151;" horiz-adv-x="511" 
d="M52 194q0 56 27 102t73.5 73t103.5 27t103 -27t73 -73.5t27 -101.5q0 -56 -27 -101.5t-73 -72.5t-104 -27q-57 0 -103 26t-73 71t-27 104zM86 194q0 -49 22.5 -87.5t61 -61.5t85.5 -23t85 23t61 61.5t23 87.5q0 47 -23 86t-61 62.5t-85 23.5q-48 0 -86.5 -25t-60.5 -64
t-22 -83zM315 618l-99 -133h-27l88 133h38zM421 617l-99 -133h-27l88 133h38z" />
    <glyph glyph-name="uni020F" unicode="&#x20f;" horiz-adv-x="511" 
d="M52 194q0 56 27 102t73.5 73t103.5 27t103 -27t73 -73.5t27 -101.5q0 -56 -27 -101.5t-73 -72.5t-104 -27q-57 0 -103 26t-73 71t-27 104zM86 194q0 -49 22.5 -87.5t61 -61.5t85.5 -23t85 23t61 61.5t23 87.5q0 47 -23 86t-61 62.5t-85 23.5q-48 0 -86.5 -25t-60.5 -64
t-22 -83zM259 610q37 0 65 -20.5t45.5 -57t19.5 -84.5h-25q-2 37 -16 67.5t-36.5 49t-52.5 18.5q-29 0 -51.5 -18.5t-35.5 -49t-14 -67.5h-27q2 48 19 84.5t45.5 57t63.5 20.5z" />
    <glyph glyph-name="omacron" unicode="&#x14d;" horiz-adv-x="511" 
d="M52 194q0 56 27 102t73.5 73t103.5 27t103 -27t73 -73.5t27 -101.5q0 -56 -27 -101.5t-73 -72.5t-104 -27q-57 0 -103 26t-73 71t-27 104zM86 194q0 -49 22.5 -87.5t61 -61.5t85.5 -23t85 23t61 61.5t23 87.5q0 47 -23 86t-61 62.5t-85 23.5q-48 0 -86.5 -25t-60.5 -64
t-22 -83zM140 519h233v-27h-233v27z" />
    <glyph glyph-name="uni01EB" unicode="&#x1eb;" horiz-adv-x="511" 
d="M347 -193q-23 0 -42 11.5t-31.5 32.5t-12.5 49q0 42 23.5 73t55.5 53l29 7q-25 -19 -51.5 -29.5t-62.5 -10.5q-57 0 -103 26t-73 71.5t-27 103.5q0 56 27 102t73.5 73t103.5 27t103 -27t73 -73t27 -102q0 -48 -22.5 -90t-60.5 -72q-36 -29 -60 -61.5t-24 -68.5
q0 -31 18 -49.5t39 -18.5q20 0 36 13t27 33l17 -17q-11 -23 -33.5 -39.5t-48.5 -16.5zM255 22q47 0 85 23t61 62t23 87q0 47 -23 86t-61 62.5t-85 23.5q-48 0 -86.5 -25t-60.5 -64t-22 -83q0 -48 22.5 -87t61 -62t85.5 -23z" />
    <glyph glyph-name="oslash" unicode="&#xf8;" horiz-adv-x="489" 
d="M417 376l-323 -382l-18 19l323 379zM52 194q0 56 27 102t73.5 73t103.5 27t103 -27t73 -73.5t27 -101.5q0 -56 -27 -101.5t-73 -72.5t-104 -27q-57 0 -103 26t-73 71t-27 104zM86 194q0 -49 22.5 -87.5t61 -61.5t85.5 -23t85 23t61 61.5t23 87.5q0 47 -23 86t-61 62.5
t-85 23.5q-48 0 -86.5 -25t-60.5 -64t-22 -83z" />
    <glyph glyph-name="oslashacute" unicode="&#x1ff;" horiz-adv-x="489" 
d="M417 376l-323 -382l-18 19l323 379zM52 194q0 56 27 102t73.5 73t103.5 27t103 -27t73 -73.5t27 -101.5q0 -56 -27 -101.5t-73 -72.5t-104 -27q-57 0 -103 26t-73 71t-27 104zM86 194q0 -49 22.5 -87.5t61 -61.5t85.5 -23t85 23t61 61.5t23 87.5q0 47 -23 86t-61 62.5
t-85 23.5q-48 0 -86.5 -25t-60.5 -64t-22 -83zM322 597l-99 -133h-27l88 133h38z" />
    <glyph glyph-name="otilde" unicode="&#xf5;" horiz-adv-x="511" 
d="M52 194q0 56 27 102t73.5 73t103.5 27t103 -27t73 -73.5t27 -101.5q0 -56 -27 -101.5t-73 -72.5t-104 -27q-57 0 -103 26t-73 71t-27 104zM86 194q0 -49 22.5 -87.5t61 -61.5t85.5 -23t85 23t61 61.5t23 87.5q0 47 -23 86t-61 62.5t-85 23.5q-48 0 -86.5 -25t-60.5 -64
t-22 -83zM329 454q-29 0 -47 14.5t-33 31.5q-13 14 -27 26t-33 12q-12 0 -24 -8t-21 -27t-11 -54l-23 1q0 39 11.5 65t29.5 38.5t39 12.5q27 0 44.5 -14.5t32.5 -31.5q13 -15 27.5 -27t34.5 -12t35 19t17 71l23 -1q0 -39 -10 -65t-27 -38.5t-38 -12.5z" />
    <glyph glyph-name="uni022D" unicode="&#x22d;" horiz-adv-x="511" 
d="M52 194q0 56 27 102t73.5 73t103.5 27t103 -27t73 -73.5t27 -101.5q0 -56 -27 -101.5t-73 -72.5t-104 -27q-57 0 -103 26t-73 71t-27 104zM86 194q0 -49 22.5 -87.5t61 -61.5t85.5 -23t85 23t61 61.5t23 87.5q0 47 -23 86t-61 62.5t-85 23.5q-48 0 -86.5 -25t-60.5 -64
t-22 -83zM329 454q-29 0 -47 14.5t-33 31.5q-13 14 -27 26t-33 12q-12 0 -24 -8t-21 -27t-11 -54l-23 1q0 39 11.5 65t29.5 38.5t39 12.5q27 0 44.5 -14.5t32.5 -31.5q13 -15 27.5 -27t34.5 -12t35 19t17 71l23 -1q0 -39 -10 -65t-27 -38.5t-38 -12.5zM141 681h233v-27h-233
v27z" />
    <glyph glyph-name="oe" unicode="&#x153;" horiz-adv-x="727" 
d="M383 38q-26 -22 -59 -33.5t-69 -11.5q-57 0 -103 26t-73 71.5t-27 102.5t27.5 102t73 71.5t100.5 26.5q38 0 71.5 -11.5t59.5 -33.5l-18 -23q-22 17 -50.5 28.5t-60.5 11.5q-47 0 -85.5 -23.5t-61 -62t-22.5 -86.5q0 -47 22.5 -86t61.5 -62t87 -23q31 0 58 10t49 27z
M505 -7q-58 0 -104 26.5t-72.5 72t-26.5 102.5q0 55 27.5 101t73.5 73.5t103 27.5q66 0 111.5 -39t67.5 -100l-343 -135l-10 26l322 128l-7 -12q-19 42 -55.5 72t-87.5 30q-47 0 -85 -23t-60.5 -61.5t-22.5 -86.5q0 -45 21 -84.5t59.5 -64t89.5 -24.5q33 0 63.5 12.5
t54.5 33.5l18 -25q-27 -22 -62.5 -36t-74.5 -14z" />
    <glyph glyph-name="p" unicode="p" horiz-adv-x="553" 
d="M299 -7q-59 0 -108 31.5t-71 81.5l5 20v-311h-34v571h31l3 -134l-5 29q24 50 73.5 82t109.5 32q55 0 99.5 -26.5t71 -72.5t26.5 -103t-27 -103t-72.5 -71.5t-101.5 -25.5zM294 21q48 0 86.5 23t62 62t23.5 87t-23 87t-61 62t-86 23q-46 0 -84.5 -21.5t-61.5 -58.5
t-25 -83v-22q2 -43 25.5 -79.5t61 -58t82.5 -21.5z" />
    <glyph glyph-name="thorn" unicode="&#xfe;" horiz-adv-x="532" 
d="M291 -7q-39 0 -76.5 15.5t-64.5 42.5t-37 61l4 23v-320h-34v941h34v-498l-8 11q12 37 41 65t67 44.5t78 16.5q56 0 100 -26.5t70.5 -72.5t26.5 -103q0 -58 -27 -103.5t-72.5 -71t-101.5 -25.5zM287 22q47 0 86 23t62 61.5t23 86.5q0 50 -23 88.5t-62 61t-85 22.5
q-47 0 -85 -22t-61 -58.5t-25 -82.5v-27q4 -43 27.5 -77.5t60.5 -55t82 -20.5z" />
    <glyph glyph-name="q" unicode="q" horiz-adv-x="553" 
d="M248 -7q-54 0 -98.5 26t-71 71.5t-26.5 102.5q0 58 27 103.5t73.5 72t103.5 26.5t107 -33t72 -84l-8 -26v134h34v-571h-34v316l5 -28q-22 -49 -72 -79.5t-112 -30.5zM256 21q46 0 83.5 21t61 57t26.5 79v24q-2 46 -25 83t-61 58.5t-85 21.5q-46 0 -85 -23t-62 -62
t-23 -87t23 -87t62 -62t85 -23z" />
    <glyph glyph-name="r" unicode="r" horiz-adv-x="332" 
d="M120 385l4 -119l-4 13q12 36 38.5 61.5t61 39t68.5 14.5l-1 -33q-45 0 -81.5 -20t-58.5 -53t-22 -76v-212h-34v385h29z" />
    <glyph glyph-name="racute" unicode="&#x155;" horiz-adv-x="332" 
d="M120 385l4 -119l-4 13q12 36 38.5 61.5t61 39t68.5 14.5l-1 -33q-45 0 -81.5 -20t-58.5 -53t-22 -76v-212h-34v385h29zM242 597l-99 -133h-27l88 133h38z" />
    <glyph glyph-name="rcaron" unicode="&#x159;" horiz-adv-x="332" 
d="M120 385l4 -119l-4 13q12 36 38.5 61.5t61 39t68.5 14.5l-1 -33q-45 0 -81.5 -20t-58.5 -53t-22 -76v-212h-34v385h29zM60 590l114 -130l-17 -2l115 132h35l-140 -155h-1l-140 155h34z" />
    <glyph glyph-name="uni0157" unicode="&#x157;" horiz-adv-x="332" 
d="M120 385l4 -119l-4 13q12 36 38.5 61.5t61 39t68.5 14.5l-1 -33q-45 0 -81.5 -20t-58.5 -53t-22 -76v-212h-34v385h29zM111 -187l-17 14q27 20 38 54t6 76h34q2 -26 -2 -54t-18 -51.5t-41 -38.5z" />
    <glyph glyph-name="uni0211" unicode="&#x211;" horiz-adv-x="332" 
d="M120 385l4 -119l-4 13q12 36 38.5 61.5t61 39t68.5 14.5l-1 -33q-45 0 -81.5 -20t-58.5 -53t-22 -76v-212h-34v385h29zM8 614h37l86 -133h-26zM113 614h37l86 -133h-26z" />
    <glyph glyph-name="uni0213" unicode="&#x213;" horiz-adv-x="332" 
d="M120 385l4 -119l-4 13q12 36 38.5 61.5t61 39t68.5 14.5l-1 -33q-45 0 -81.5 -20t-58.5 -53t-22 -76v-212h-34v385h29zM167 607q37 0 65 -20.5t45.5 -57t19.5 -84.5h-25q-2 37 -16 67.5t-36.5 49t-52.5 18.5q-29 0 -51.5 -18.5t-35.5 -49t-14 -67.5h-27q2 48 19 84.5
t45.5 57t63.5 20.5z" />
    <glyph glyph-name="s" unicode="s" horiz-adv-x="356" 
d="M176 -8q-31 0 -66.5 11.5t-57.5 39.5l17 21q18 -20 45.5 -32t60.5 -12q23 0 44.5 7t35.5 25t14 48q0 29 -16 45t-39.5 25.5t-50.5 17.5q-40 14 -68 36t-28 66q0 32 15 54.5t41 35t56 12.5q27 0 56.5 -10t53.5 -34l-16 -24q-17 22 -43.5 30.5t-46.5 8.5q-18 0 -37 -7
t-32 -22t-13 -40q0 -23 12.5 -38t32.5 -24.5t42 -17.5q28 -9 54 -21t43 -32t17 -54q0 -33 -14 -59t-42 -41t-70 -15z" />
    <glyph glyph-name="sacute" unicode="&#x15b;" horiz-adv-x="356" 
d="M176 -8q-31 0 -66.5 11.5t-57.5 39.5l17 21q18 -20 45.5 -32t60.5 -12q23 0 44.5 7t35.5 25t14 48q0 29 -16 45t-39.5 25.5t-50.5 17.5q-40 14 -68 36t-28 66q0 32 15 54.5t41 35t56 12.5q27 0 56.5 -10t53.5 -34l-16 -24q-17 22 -43.5 30.5t-46.5 8.5q-18 0 -37 -7
t-32 -22t-13 -40q0 -23 12.5 -38t32.5 -24.5t42 -17.5q28 -9 54 -21t43 -32t17 -54q0 -33 -14 -59t-42 -41t-70 -15zM257 599l-99 -133h-27l88 133h38z" />
    <glyph glyph-name="scaron" unicode="&#x161;" horiz-adv-x="356" 
d="M176 -8q-31 0 -66.5 11.5t-57.5 39.5l17 21q18 -20 45.5 -32t60.5 -12q23 0 44.5 7t35.5 25t14 48q0 29 -16 45t-39.5 25.5t-50.5 17.5q-40 14 -68 36t-28 66q0 32 15 54.5t41 35t56 12.5q27 0 56.5 -10t53.5 -34l-16 -24q-17 22 -43.5 30.5t-46.5 8.5q-18 0 -37 -7
t-32 -22t-13 -40q0 -23 12.5 -38t32.5 -24.5t42 -17.5q28 -9 54 -21t43 -32t17 -54q0 -33 -14 -59t-42 -41t-70 -15zM74 592l114 -130l-17 -2l115 132h35l-140 -155h-1l-140 155h34z" />
    <glyph glyph-name="scedilla" unicode="&#x15f;" horiz-adv-x="356" 
d="M176 -8q-31 0 -66.5 11.5t-57.5 39.5l17 21q18 -20 45.5 -32t60.5 -12q23 0 44.5 7t35.5 25t14 48q0 29 -16 45t-39.5 25.5t-50.5 17.5q-40 14 -68 36t-28 66q0 32 15 54.5t41 35t56 12.5q27 0 56.5 -10t53.5 -34l-16 -24q-17 22 -43.5 30.5t-46.5 8.5q-18 0 -37 -7
t-32 -22t-13 -40q0 -23 12.5 -38t32.5 -24.5t42 -17.5q28 -9 54 -21t43 -32t17 -54q0 -33 -14 -59t-42 -41t-70 -15zM106 -175q11 -11 30 -18.5t45 -7.5q38 0 61.5 15t23.5 43q0 25 -19 42.5t-60 17.5q-16 0 -37.5 -4.5t-33.5 -9.5l-15 19l72 83l26 -7l-67 -83l-16 7
q11 7 33.5 12.5t42.5 5.5q50 0 78 -21t28 -61q0 -28 -15.5 -46t-41 -27t-57.5 -9q-29 0 -53 8.5t-39 21.5z" />
    <glyph glyph-name="scircumflex" unicode="&#x15d;" horiz-adv-x="356" 
d="M176 -8q-31 0 -66.5 11.5t-57.5 39.5l17 21q18 -20 45.5 -32t60.5 -12q23 0 44.5 7t35.5 25t14 48q0 29 -16 45t-39.5 25.5t-50.5 17.5q-40 14 -68 36t-28 66q0 32 15 54.5t41 35t56 12.5q27 0 56.5 -10t53.5 -34l-16 -24q-17 22 -43.5 30.5t-46.5 8.5q-18 0 -37 -7
t-32 -22t-13 -40q0 -23 12.5 -38t32.5 -24.5t42 -17.5q28 -9 54 -21t43 -32t17 -54q0 -33 -14 -59t-42 -41t-70 -15zM286 483l-114 129l17 2l-115 -131h-34l139 156h1l140 -156h-34z" />
    <glyph glyph-name="uni0219" unicode="&#x219;" horiz-adv-x="356" 
d="M176 -8q-31 0 -66.5 11.5t-57.5 39.5l17 21q18 -20 45.5 -32t60.5 -12q23 0 44.5 7t35.5 25t14 48q0 29 -16 45t-39.5 25.5t-50.5 17.5q-40 14 -68 36t-28 66q0 32 15 54.5t41 35t56 12.5q27 0 56.5 -10t53.5 -34l-16 -24q-17 22 -43.5 30.5t-46.5 8.5q-18 0 -37 -7
t-32 -22t-13 -40q0 -23 12.5 -38t32.5 -24.5t42 -17.5q28 -9 54 -21t43 -32t17 -54q0 -33 -14 -59t-42 -41t-70 -15zM135 -189l-17 14q27 20 38 54t6 76h34q2 -26 -2 -54t-18 -51.5t-41 -38.5z" />
    <glyph glyph-name="germandbls" unicode="&#xdf;" horiz-adv-x="570" 
d="M113 433q0 72 22 122t62.5 77t97.5 28q55 0 90.5 -20.5t53 -52t17.5 -66.5q0 -48 -23.5 -81t-64.5 -50q43 -10 76 -37.5t52.5 -67.5t19.5 -89q0 -59 -27.5 -105.5t-73.5 -73t-102 -26.5q-32 0 -59.5 9.5t-48.5 22.5l14 23q19 -14 42 -20.5t48 -6.5q49 0 88 24.5t62 65
t23 88.5q0 49 -22.5 88.5t-60.5 63.5t-87 23h-5v32q48 0 81.5 29.5t33.5 78.5q0 30 -14 57.5t-41.5 44t-69.5 16.5q-75 0 -112.5 -55t-37.5 -147v-428h-34v363h-65v30h65v40z" />
    <glyph glyph-name="t" unicode="t" horiz-adv-x="315" 
d="M130 553h35v-175h123v-28h-123v-350h-35v350h-85v28h85v175z" />
    <glyph glyph-name="tbar" unicode="&#x167;" horiz-adv-x="315" 
d="M130 553h35v-175h123v-28h-123v-350h-35v350h-85v28h85v175zM39 218h236v-32h-236v32z" />
    <glyph glyph-name="tcaron" unicode="&#x165;" horiz-adv-x="315" 
d="M130 553h35v-175h123v-28h-123v-350h-35v350h-85v28h85v175zM229 463l-17 14q27 20 38 54t6 76h34q2 -26 -2 -54t-18 -51.5t-41 -38.5z" />
    <glyph glyph-name="uni0163" unicode="&#x163;" horiz-adv-x="315" 
d="M130 553h35v-175h123v-28h-123v-350h-35v350h-85v28h85v175zM68 -173q11 -11 30 -18.5t45 -7.5q38 0 61.5 15t23.5 43q0 25 -19 42.5t-60 17.5q-16 0 -37.5 -4.5t-33.5 -9.5l-15 19l72 83l26 -7l-67 -83l-16 7q11 7 33.5 12.5t42.5 5.5q50 0 78 -21t28 -61
q0 -28 -15.5 -46t-41 -27t-57.5 -9q-29 0 -53 8.5t-39 21.5z" />
    <glyph glyph-name="uni021B" unicode="&#x21b;" horiz-adv-x="315" 
d="M130 553h35v-175h123v-28h-123v-350h-35v350h-85v28h85v175zM96 -187l-17 14q27 20 38 54t6 76h34q2 -26 -2 -54t-18 -51.5t-41 -38.5z" />
    <glyph glyph-name="u" unicode="u" horiz-adv-x="498" 
d="M212 -10q-55 0 -87 32t-34 84v279h34v-271q2 -39 26 -65.5t71 -28.5q39 0 73.5 20t56 54t21.5 78v213h34v-385h-30l-4 120l6 -19q-10 -31 -35 -56t-60 -40t-72 -15z" />
    <glyph glyph-name="uacute" unicode="&#xfa;" horiz-adv-x="498" 
d="M212 -10q-55 0 -87 32t-34 84v279h34v-271q2 -39 26 -65.5t71 -28.5q39 0 73.5 20t56 54t21.5 78v213h34v-385h-30l-4 120l6 -19q-10 -31 -35 -56t-60 -40t-72 -15zM327 601l-99 -133h-27l88 133h38z" />
    <glyph glyph-name="ubreve" unicode="&#x16d;" horiz-adv-x="498" 
d="M212 -10q-55 0 -87 32t-34 84v279h34v-271q2 -39 26 -65.5t71 -28.5q39 0 73.5 20t56 54t21.5 78v213h34v-385h-30l-4 120l6 -19q-10 -31 -35 -56t-60 -40t-72 -15zM246 465q-36 0 -64.5 20.5t-45.5 57.5t-20 84h26q2 -36 15.5 -67t36.5 -49.5t52 -18.5q30 0 52 18.5
t35 49.5t15 67h26q-1 -48 -18.5 -84.5t-45.5 -57t-64 -20.5z" />
    <glyph glyph-name="ucircumflex" unicode="&#xfb;" horiz-adv-x="498" 
d="M212 -10q-55 0 -87 32t-34 84v279h34v-271q2 -39 26 -65.5t71 -28.5q39 0 73.5 20t56 54t21.5 78v213h34v-385h-30l-4 120l6 -19q-10 -31 -35 -56t-60 -40t-72 -15zM357 484l-114 129l17 2l-115 -131h-34l139 156h1l140 -156h-34z" />
    <glyph glyph-name="uni0215" unicode="&#x215;" horiz-adv-x="498" 
d="M212 -10q-55 0 -87 32t-34 84v279h34v-271q2 -39 26 -65.5t71 -28.5q39 0 73.5 20t56 54t21.5 78v213h34v-385h-30l-4 120l6 -19q-10 -31 -35 -56t-60 -40t-72 -15zM93 618h37l86 -133h-26zM198 618h37l86 -133h-26z" />
    <glyph glyph-name="udieresis" unicode="&#xfc;" horiz-adv-x="498" 
d="M212 -10q-55 0 -87 32t-34 84v279h34v-271q2 -39 26 -65.5t71 -28.5q39 0 73.5 20t56 54t21.5 78v213h34v-385h-30l-4 120l6 -19q-10 -31 -35 -56t-60 -40t-72 -15zM135 511q0 11 8.5 19.5t19.5 8.5t19.5 -8.5t8.5 -20.5q0 -11 -8.5 -19.5t-19.5 -8.5t-19.5 8.5
t-8.5 20.5v0zM306 511q0 11 8.5 19.5t19.5 8.5q10 0 19 -8.5t9 -20.5q0 -11 -9 -19.5t-19 -8.5q-11 0 -19.5 8.5t-8.5 20.5v0z" />
    <glyph glyph-name="uni1EE5" unicode="&#x1ee5;" horiz-adv-x="498" 
d="M212 -10q-55 0 -87 32t-34 84v279h34v-271q2 -39 26 -65.5t71 -28.5q39 0 73.5 20t56 54t21.5 78v213h34v-385h-30l-4 120l6 -19q-10 -31 -35 -56t-60 -40t-72 -15zM221 -99q0 11 8.5 19t20.5 8q10 0 18.5 -8t8.5 -19q0 -12 -8.5 -20t-19.5 -8q-10 0 -19 8.5t-9 19.5z
" />
    <glyph glyph-name="ugrave" unicode="&#xf9;" horiz-adv-x="498" 
d="M212 -10q-55 0 -87 32t-34 84v279h34v-271q2 -39 26 -65.5t71 -28.5q39 0 73.5 20t56 54t21.5 78v213h34v-385h-30l-4 120l6 -19q-10 -31 -35 -56t-60 -40t-72 -15zM143 618h37l86 -133h-26z" />
    <glyph glyph-name="uni1EE7" unicode="&#x1ee7;" horiz-adv-x="498" 
d="M212 -10q-55 0 -87 32t-34 84v279h34v-271q2 -39 26 -65.5t71 -28.5q39 0 73.5 20t56 54t21.5 78v213h34v-385h-30l-4 120l6 -19q-10 -31 -35 -56t-60 -40t-72 -15zM243 455q22 19 37 34.5t15 35.5q0 19 -10 30.5t-29 11.5q-18 0 -30 -8.5t-26 -27.5l-17 12
q16 25 34.5 37t41.5 12q17 0 30.5 -7t22 -21t8.5 -37q0 -29 -18.5 -48.5t-44.5 -39.5z" />
    <glyph glyph-name="uhorn" unicode="&#x1b0;" horiz-adv-x="512" 
d="M212 -10q-55 0 -87 32t-34 84v279h34v-271q2 -39 26 -65.5t71 -28.5q39 0 73.5 20t56 54t21.5 78v213h34v-385h-30l-4 120l6 -19q-10 -31 -35 -56t-60 -40t-72 -15zM386 384q49 0 73.5 21.5t26.5 81.5h28q-2 -55 -18.5 -82.5t-44.5 -36t-65 -8.5v24z" />
    <glyph glyph-name="uni1EE9" unicode="&#x1ee9;" horiz-adv-x="512" 
d="M212 -10q-55 0 -87 32t-34 84v279h34v-271q2 -39 26 -65.5t71 -28.5q39 0 73.5 20t56 54t21.5 78v213h34v-385h-30l-4 120l6 -19q-10 -31 -35 -56t-60 -40t-72 -15zM386 384q49 0 73.5 21.5t26.5 81.5h28q-2 -55 -18.5 -82.5t-44.5 -36t-65 -8.5v24zM327 601l-99 -133
h-27l88 133h38z" />
    <glyph glyph-name="uni1EF1" unicode="&#x1ef1;" horiz-adv-x="512" 
d="M212 -10q-55 0 -87 32t-34 84v279h34v-271q2 -39 26 -65.5t71 -28.5q39 0 73.5 20t56 54t21.5 78v213h34v-385h-30l-4 120l6 -19q-10 -31 -35 -56t-60 -40t-72 -15zM386 384q49 0 73.5 21.5t26.5 81.5h28q-2 -55 -18.5 -82.5t-44.5 -36t-65 -8.5v24zM221 -99q0 11 8.5 19
t20.5 8q10 0 18.5 -8t8.5 -19q0 -12 -8.5 -20t-19.5 -8q-10 0 -19 8.5t-9 19.5z" />
    <glyph glyph-name="uni1EEB" unicode="&#x1eeb;" horiz-adv-x="512" 
d="M212 -10q-55 0 -87 32t-34 84v279h34v-271q2 -39 26 -65.5t71 -28.5q39 0 73.5 20t56 54t21.5 78v213h34v-385h-30l-4 120l6 -19q-10 -31 -35 -56t-60 -40t-72 -15zM386 384q49 0 73.5 21.5t26.5 81.5h28q-2 -55 -18.5 -82.5t-44.5 -36t-65 -8.5v24zM143 618h37l86 -133
h-26z" />
    <glyph glyph-name="uni1EED" unicode="&#x1eed;" horiz-adv-x="512" 
d="M212 -10q-55 0 -87 32t-34 84v279h34v-271q2 -39 26 -65.5t71 -28.5q39 0 73.5 20t56 54t21.5 78v213h34v-385h-30l-4 120l6 -19q-10 -31 -35 -56t-60 -40t-72 -15zM386 384q49 0 73.5 21.5t26.5 81.5h28q-2 -55 -18.5 -82.5t-44.5 -36t-65 -8.5v24zM243 455
q22 19 37 34.5t15 35.5q0 19 -10 30.5t-29 11.5q-18 0 -30 -8.5t-26 -27.5l-17 12q16 25 34.5 37t41.5 12q17 0 30.5 -7t22 -21t8.5 -37q0 -29 -18.5 -48.5t-44.5 -39.5z" />
    <glyph glyph-name="uni1EEF" unicode="&#x1eef;" horiz-adv-x="512" 
d="M212 -10q-55 0 -87 32t-34 84v279h34v-271q2 -39 26 -65.5t71 -28.5q39 0 73.5 20t56 54t21.5 78v213h34v-385h-30l-4 120l6 -19q-10 -31 -35 -56t-60 -40t-72 -15zM386 384q49 0 73.5 21.5t26.5 81.5h28q-2 -55 -18.5 -82.5t-44.5 -36t-65 -8.5v24zM323 454
q-29 0 -47 14.5t-33 31.5q-13 14 -27 26t-33 12q-12 0 -24 -8t-21 -27t-11 -54l-23 1q0 39 11.5 65t29.5 38.5t39 12.5q27 0 44.5 -14.5t32.5 -31.5q13 -15 27.5 -27t34.5 -12t35 19t17 71l23 -1q0 -39 -10 -65t-27 -38.5t-38 -12.5z" />
    <glyph glyph-name="uhungarumlaut" unicode="&#x171;" horiz-adv-x="498" 
d="M212 -10q-55 0 -87 32t-34 84v279h34v-271q2 -39 26 -65.5t71 -28.5q39 0 73.5 20t56 54t21.5 78v213h34v-385h-30l-4 120l6 -19q-10 -31 -35 -56t-60 -40t-72 -15zM308 618l-99 -133h-27l88 133h38zM414 617l-99 -133h-27l88 133h38z" />
    <glyph glyph-name="uni0217" unicode="&#x217;" horiz-adv-x="498" 
d="M212 -10q-55 0 -87 32t-34 84v279h34v-271q2 -39 26 -65.5t71 -28.5q39 0 73.5 20t56 54t21.5 78v213h34v-385h-30l-4 120l6 -19q-10 -31 -35 -56t-60 -40t-72 -15zM252 610q37 0 65 -20.5t45.5 -57t19.5 -84.5h-25q-2 37 -16 67.5t-36.5 49t-52.5 18.5
q-29 0 -51.5 -18.5t-35.5 -49t-14 -67.5h-27q2 48 19 84.5t45.5 57t63.5 20.5z" />
    <glyph glyph-name="umacron" unicode="&#x16b;" horiz-adv-x="498" 
d="M212 -10q-55 0 -87 32t-34 84v279h34v-271q2 -39 26 -65.5t71 -28.5q39 0 73.5 20t56 54t21.5 78v213h34v-385h-30l-4 120l6 -19q-10 -31 -35 -56t-60 -40t-72 -15zM133 519h233v-27h-233v27z" />
    <glyph glyph-name="uogonek" unicode="&#x173;" horiz-adv-x="499" 
d="M371 -193q-32 0 -56 22.5t-24 60.5q0 36 25.5 68.5t62.5 51.5l16 -3l12 -7q-41 -24 -63.5 -51.5t-22.5 -56.5q0 -27 16.5 -42.5t37.5 -15.5q19 0 34.5 13t27.5 33l17 -17q-12 -23 -34 -39.5t-49 -16.5zM212 -10q-55 0 -87 32t-34 84v279h34v-271q2 -39 26 -65.5t71 -28.5
q39 0 73.5 20t56 54t21.5 78v213h34v-385h-30l-4 120l6 -19q-10 -31 -35 -56t-60 -40t-72 -15z" />
    <glyph glyph-name="uring" unicode="&#x16f;" horiz-adv-x="498" 
d="M212 -10q-55 0 -87 32t-34 84v279h34v-271q2 -39 26 -65.5t71 -28.5q39 0 73.5 20t56 54t21.5 78v213h34v-385h-30l-4 120l6 -19q-10 -31 -35 -56t-60 -40t-72 -15zM177 513q0 30 20 50t50 20q31 0 50.5 -20t19.5 -50t-19.5 -49.5t-50.5 -19.5q-30 0 -50 19.5t-20 49.5z
M199 513q0 -19 14.5 -33.5t33.5 -14.5t33 14.5t14 33.5q0 20 -14 34t-32 14q-20 0 -34.5 -14t-14.5 -34z" />
    <glyph glyph-name="utilde" unicode="&#x169;" horiz-adv-x="498" 
d="M212 -10q-55 0 -87 32t-34 84v279h34v-271q2 -39 26 -65.5t71 -28.5q39 0 73.5 20t56 54t21.5 78v213h34v-385h-30l-4 120l6 -19q-10 -31 -35 -56t-60 -40t-72 -15zM323 454q-29 0 -47 14.5t-33 31.5q-13 14 -27 26t-33 12q-12 0 -24 -8t-21 -27t-11 -54l-23 1
q0 39 11.5 65t29.5 38.5t39 12.5q27 0 44.5 -14.5t32.5 -31.5q13 -15 27.5 -27t34.5 -12t35 19t17 71l23 -1q0 -39 -10 -65t-27 -38.5t-38 -12.5z" />
    <glyph glyph-name="v" unicode="v" horiz-adv-x="443" 
d="M220 -16l-189 401h39l164 -364l-20 1l161 363h37l-186 -401h-6z" />
    <glyph glyph-name="w" unicode="w" horiz-adv-x="662" 
d="M298 385l156 -350l-9 -1l152 351h34l-181 -409l-124 277l-114 -277l-181 409h34l158 -355l-13 5l102 250l-46 100h32z" />
    <glyph glyph-name="wacute" unicode="&#x1e83;" horiz-adv-x="662" 
d="M298 385l156 -350l-9 -1l152 351h34l-181 -409l-124 277l-114 -277l-181 409h34l158 -355l-13 5l102 250l-46 100h32zM409 597l-99 -133h-27l88 133h38z" />
    <glyph glyph-name="wcircumflex" unicode="&#x175;" horiz-adv-x="662" 
d="M298 385l156 -350l-9 -1l152 351h34l-181 -409l-124 277l-114 -277l-181 409h34l158 -355l-13 5l102 250l-46 100h32zM438 481l-114 129l17 2l-115 -131h-34l139 156h1l140 -156h-34z" />
    <glyph glyph-name="wdieresis" unicode="&#x1e85;" horiz-adv-x="662" 
d="M298 385l156 -350l-9 -1l152 351h34l-181 -409l-124 277l-114 -277l-181 409h34l158 -355l-13 5l102 250l-46 100h32zM217 507q0 11 8.5 19.5t19.5 8.5t19.5 -8.5t8.5 -20.5q0 -11 -8.5 -19.5t-19.5 -8.5t-19.5 8.5t-8.5 20.5v0zM388 507q0 11 8.5 19.5t19.5 8.5
q10 0 19 -8.5t9 -20.5q0 -11 -9 -19.5t-19 -8.5q-11 0 -19.5 8.5t-8.5 20.5v0z" />
    <glyph glyph-name="wgrave" unicode="&#x1e81;" horiz-adv-x="662" 
d="M298 385l156 -350l-9 -1l152 351h34l-181 -409l-124 277l-114 -277l-181 409h34l158 -355l-13 5l102 250l-46 100h32zM225 614h37l86 -133h-26z" />
    <glyph glyph-name="x" unicode="x" horiz-adv-x="387" 
d="M194 211l121 173h36l-141 -198zM356 0h-39l-286 385h42zM196 172l-124 -172h-37l141 194z" />
    <glyph glyph-name="y" unicode="y" horiz-adv-x="443" 
d="M127 -185l251 570h34l-248 -570h-37zM212 -4l-181 389h37l170 -371z" />
    <glyph glyph-name="yacute" unicode="&#xfd;" horiz-adv-x="443" 
d="M127 -185l251 570h34l-248 -570h-37zM212 -4l-181 389h37l170 -371zM301 597l-99 -133h-27l88 133h38z" />
    <glyph glyph-name="ycircumflex" unicode="&#x177;" horiz-adv-x="443" 
d="M127 -185l251 570h34l-248 -570h-37zM212 -4l-181 389h37l170 -371zM330 481l-114 129l17 2l-115 -131h-34l139 156h1l140 -156h-34z" />
    <glyph glyph-name="ydieresis" unicode="&#xff;" horiz-adv-x="443" 
d="M127 -185l251 570h34l-248 -570h-37zM212 -4l-181 389h37l170 -371zM109 507q0 11 8.5 19.5t19.5 8.5t19.5 -8.5t8.5 -20.5q0 -11 -8.5 -19.5t-19.5 -8.5t-19.5 8.5t-8.5 20.5v0zM280 507q0 11 8.5 19.5t19.5 8.5q10 0 19 -8.5t9 -20.5q0 -11 -9 -19.5t-19 -8.5
q-11 0 -19.5 8.5t-8.5 20.5v0z" />
    <glyph glyph-name="uni1EF5" unicode="&#x1ef5;" horiz-adv-x="443" 
d="M127 -185l251 570h34l-248 -570h-37zM212 -4l-181 389h37l170 -371zM312 -101q0 11 8.5 19t20.5 8q10 0 18.5 -8t8.5 -19q0 -12 -8.5 -20t-19.5 -8q-10 0 -19 8.5t-9 19.5z" />
    <glyph glyph-name="ygrave" unicode="&#x1ef3;" horiz-adv-x="443" 
d="M127 -185l251 570h34l-248 -570h-37zM212 -4l-181 389h37l170 -371zM117 614h37l86 -133h-26z" />
    <glyph glyph-name="uni1EF7" unicode="&#x1ef7;" horiz-adv-x="443" 
d="M127 -185l251 570h34l-248 -570h-37zM212 -4l-181 389h37l170 -371zM217 451q22 19 37 34.5t15 35.5q0 19 -10 30.5t-29 11.5q-18 0 -30 -8.5t-26 -27.5l-17 12q16 25 34.5 37t41.5 12q17 0 30.5 -7t22 -21t8.5 -37q0 -29 -18.5 -48.5t-44.5 -39.5z" />
    <glyph glyph-name="uni0233" unicode="&#x233;" horiz-adv-x="443" 
d="M127 -185l251 570h34l-248 -570h-37zM212 -4l-181 389h37l170 -371zM107 515h233v-27h-233v27z" />
    <glyph glyph-name="uni1EF9" unicode="&#x1ef9;" horiz-adv-x="443" 
d="M127 -185l251 570h34l-248 -570h-37zM212 -4l-181 389h37l170 -371zM297 450q-29 0 -47 14.5t-33 31.5q-13 14 -27 26t-33 12q-12 0 -24 -8t-21 -27t-11 -54l-23 1q0 39 11.5 65t29.5 38.5t39 12.5q27 0 44.5 -14.5t32.5 -31.5q13 -15 27.5 -27t34.5 -12t35 19t17 71
l23 -1q0 -39 -10 -65t-27 -38.5t-38 -12.5z" />
    <glyph glyph-name="z" unicode="z" horiz-adv-x="386" 
d="M93 356q-25 0 -40 10.5t-15 41.5v13h27v-12q0 -11 8 -17.5t25 -6.5h250l-256 -363l-8 7h259v-29h-305l259 365l8 -9h-212z" />
    <glyph glyph-name="zacute" unicode="&#x17a;" horiz-adv-x="386" 
d="M93 356q-25 0 -40 10.5t-15 41.5v13h27v-12q0 -11 8 -17.5t25 -6.5h250l-256 -363l-8 7h259v-29h-305l259 365l8 -9h-212zM278 597l-99 -133h-27l88 133h38z" />
    <glyph glyph-name="zcaron" unicode="&#x17e;" horiz-adv-x="386" 
d="M93 356q-25 0 -40 10.5t-15 41.5v13h27v-12q0 -11 8 -17.5t25 -6.5h250l-256 -363l-8 7h259v-29h-305l259 365l8 -9h-212zM96 590l114 -130l-17 -2l115 132h35l-140 -155h-1l-140 155h34z" />
    <glyph glyph-name="zdotaccent" unicode="&#x17c;" horiz-adv-x="386" 
d="M93 356q-25 0 -40 10.5t-15 41.5v13h27v-12q0 -11 8 -17.5t25 -6.5h250l-256 -363l-8 7h259v-29h-305l259 365l8 -9h-212zM172 517q0 11 9 19t21 8q11 0 19.5 -8t8.5 -19q0 -12 -8.5 -20t-19.5 -8q-12 0 -21 8t-9 20z" />
    <glyph glyph-name="f_f_ij" horiz-adv-x="1052" 
d="M115 0v352h-67v31h67v203q0 95 30 135t90 40q12 0 25 -3t24 -9l-14 -24q-6 4 -14 6t-19 2q-45 0 -66.5 -31.5t-21.5 -113.5v-205h130v-31h-130v-352h-34zM423 0v352h-67v31h67v203q0 95 30 135t90 40q12 0 25 -3t24 -9l-14 -24q-6 4 -14 6t-19 2q-45 0 -66.5 -31.5
t-21.5 -113.5v-205h130v-31h-130v-352h-34zM707 385h34v-385h-34v385zM696 517q0 11 9 19t21 8q11 0 19.5 -8t8.5 -19q0 -12 -8.5 -20t-19.5 -8q-12 0 -21 8t-9 20zM901 -185l-23 21q26 27 41 66.5t15 89.5v393h35v-391q0 -61 -17.5 -105.5t-50.5 -73.5zM923 517q0 11 9 19
t21 8q11 0 19.5 -8t8.5 -19q0 -12 -8.5 -20t-19.5 -8q-12 0 -21 8t-9 20z" />
    <glyph glyph-name="f_ij" horiz-adv-x="744" 
d="M115 0v352h-67v31h67v203q0 95 30 135t90 40q12 0 25 -3t24 -9l-14 -24q-6 4 -14 6t-19 2q-45 0 -66.5 -31.5t-21.5 -113.5v-205h130v-31h-130v-352h-34zM399 385h34v-385h-34v385zM388 517q0 11 9 19t21 8q11 0 19.5 -8t8.5 -19q0 -12 -8.5 -20t-19.5 -8q-12 0 -21 8
t-9 20zM593 -185l-23 21q26 27 41 66.5t15 89.5v393h35v-391q0 -61 -17.5 -105.5t-50.5 -73.5zM615 517q0 11 9 19t21 8q11 0 19.5 -8t8.5 -19q0 -12 -8.5 -20t-19.5 -8q-12 0 -21 8t-9 20z" />
    <glyph glyph-name="ordfeminine" unicode="&#xaa;" horiz-adv-x="413" 
d="M184 416q-39 0 -71.5 18.5t-51.5 51.5t-19 76q0 47 19.5 79.5t51.5 50t71 17.5q44 0 79 -21t51 -58l-5 -13l4 85h25v-282h-28v91l7 -11q-9 -23 -29 -42t-46.5 -30.5t-57.5 -11.5zM190 440q32 0 59 14.5t43.5 40t17.5 57.5v34q-9 41 -42.5 69.5t-77.5 28.5q-50 0 -85 -33
t-35 -89q0 -34 16.5 -61.5t43.5 -44t60 -16.5z" />
    <glyph glyph-name="ordmasculine" unicode="&#xba;" horiz-adv-x="381" 
d="M42 557q0 42 19.5 75.5t53.5 53.5t75 20q43 0 76.5 -20t53.5 -53.5t20 -75.5q0 -40 -20 -73.5t-53.5 -53t-75.5 -19.5t-76 19t-53.5 52t-19.5 75zM71 557q0 -33 16 -60.5t43 -44t60 -16.5t60.5 16.5t44 44t16.5 60.5q0 34 -16.5 62t-44 44.5t-59.5 16.5q-35 0 -62 -17.5
t-42.5 -45.5t-15.5 -60z" />
    <glyph glyph-name="uni0394" unicode="&#x394;" horiz-adv-x="683" 
d="M35 0l315 738h5l316 -738h-636zM626 9l-286 689l27 -2l-293 -685l-11 22h579z" />
    <glyph glyph-name="uni03BC" unicode="&#x3bc;" horiz-adv-x="498" 
d="M212 -10q-55 0 -87 32t-34 84v279h34v-271q2 -39 26 -65.5t71 -28.5q39 0 73.5 20t56 54t21.5 78v213h34v-385h-30l-4 120l6 -19q-10 -31 -35 -56t-60 -40t-72 -15zM91 362h32v-595h-32v595z" />
    <glyph glyph-name="pi" unicode="&#x3c0;" horiz-adv-x="302" 
d="M6 328h290v-32h-42v-296h-31v296h-134v-296h-31v296h-52v32z" />
    <glyph glyph-name="zero" unicode="0" horiz-adv-x="618" 
d="M309 -5q-66 0 -117 26t-85.5 72.5t-52.5 106.5t-18 127q0 68 17.5 127.5t52.5 105.5t86 71.5t117 25.5t117 -26t85.5 -72.5t52.5 -106t18 -125.5q0 -67 -18 -127t-52.5 -106.5t-85.5 -72.5t-117 -26zM309 28q68 -1 121.5 35t84.5 103.5t32 160.5q-1 91 -32 158
t-84.5 103.5t-121.5 35.5q-68 1 -121.5 -35.5t-84.5 -103.5t-32 -159q1 -92 32 -159.5t84.5 -103.5t121.5 -35z" />
    <glyph glyph-name="one" unicode="1" horiz-adv-x="312" 
d="M57 652h139v-652h-35v618h-104v34z" />
    <glyph glyph-name="two" unicode="2" horiz-adv-x="502" 
d="M53 0q64 62 123.5 122.5t107 118.5t75 112.5t27.5 106.5q0 47 -14 79t-36.5 51.5t-49 28t-51.5 8.5q-45 0 -75 -15.5t-47 -40.5t-24 -52.5t-7 -51.5q0 -35 10 -63.5t29 -48.5l-21 -19q-16 16 -28 36t-18.5 44t-6.5 50q0 54 22.5 98t65 70t104.5 26q55 0 96 -26t64 -71
t23 -101t-28 -111.5t-73 -110.5t-97.5 -109t-101.5 -106l-12 8h352v-33h-409z" />
    <glyph glyph-name="three" unicode="3" horiz-adv-x="519" 
d="M412 652l-213 -277l-27 7q18 10 39.5 15t45.5 5q39 2 74 -8.5t62.5 -34t42.5 -59.5t15 -84q0 -67 -29.5 -117.5t-80.5 -78.5t-116 -28q-46 0 -86.5 18.5t-68.5 48.5l18 28q23 -27 59.5 -44.5t76.5 -17.5q56 0 99.5 24.5t68 68t24.5 100.5q0 73 -46 115t-122 42
q-27 0 -52.5 -6.5t-43.5 -15.5l-4 3l210 271l10 -8h-281v33h325z" />
    <glyph glyph-name="four" unicode="4" horiz-adv-x="512" 
d="M19 177v1l374 482h1v-454h94v-29h-94v-177h-35v177h-340zM364 575l-290 -373l-10 4h295v389z" />
    <glyph glyph-name="five" unicode="5" horiz-adv-x="535" 
d="M250 -8q-44 0 -82.5 16t-67.5 43l21 24q23 -24 56 -37.5t69 -13.5q52 0 92 24t62.5 64t22.5 87q0 49 -20.5 88.5t-58 63t-91.5 23.5q-37 0 -67.5 -11.5t-52.5 -28.5h-1v318h293v-33h-262v-247l-7 9q20 11 49 17t56 6q61 0 105.5 -27.5t68 -74t23.5 -102.5
q0 -57 -26.5 -104.5t-74 -75.5t-107.5 -28z" />
    <glyph glyph-name="six" unicode="6" horiz-adv-x="525" 
d="M259 -8q-59 0 -107 28.5t-76.5 77t-28.5 110.5q0 73 29.5 136t77.5 116.5t105 99t113 85.5l23 -27q-84 -53 -144.5 -107t-97.5 -106.5t-51 -101.5l-9 3q28 47 73.5 71.5t100.5 24.5t101 -27.5t73.5 -73.5t27.5 -103q0 -58 -28.5 -105t-76.5 -74t-105 -27zM257 23
q49 0 89 23.5t64 63t24 88.5t-24 88t-64 62t-89 23q-48 0 -88 -21t-64 -58.5t-24 -85.5v-9q0 -48 24 -87.5t64 -63t88 -23.5z" />
    <glyph glyph-name="seven" unicode="7" horiz-adv-x="476" 
d="M441 652l-285 -652h-40l279 629l16 -10h-378v33h408z" />
    <glyph glyph-name="eight" unicode="8" horiz-adv-x="511" 
d="M45 198q0 48 19.5 87.5t52 66.5t73.5 39q-39 15 -64 47.5t-25 73.5q0 43 18.5 76t53 52.5t79.5 19.5q46 0 80 -19.5t52.5 -53t18.5 -75.5q0 -41 -24 -73t-62 -48q41 -11 75 -38.5t54.5 -66.5t20.5 -88q0 -56 -29 -103t-77 -75t-107 -28t-106 28t-75 75t-28 103v0zM79 199
q0 -47 23.5 -87.5t62.5 -65t88 -24.5t90 24.5t65 64.5t24 88q0 49 -24 88t-64.5 63t-89.5 24q-48 0 -88 -24t-63.5 -63t-23.5 -88v0zM134 509q0 -45 35 -75.5t85 -30.5q49 0 82 30.5t33 75.5q0 55 -33 88t-82 33q-50 0 -85 -33t-35 -88v0z" />
    <glyph glyph-name="nine" unicode="9" horiz-adv-x="527" 
d="M249 226q-55 0 -101 28t-73.5 75.5t-27.5 104.5q0 60 28.5 107.5t76.5 75t106 27.5q59 0 107 -26t76 -73t28 -113q0 -74 -30 -137t-79 -117t-107 -100t-114 -87l-24 28q87 55 148.5 109t97.5 102t49 87l18 4q-34 -48 -75 -71.5t-104 -23.5zM259 258q79 0 127.5 45
t48.5 125v14q-3 51 -27 89t-62.5 59.5t-86.5 21.5t-88.5 -23.5t-64.5 -63.5t-24 -91q0 -50 24 -90t64.5 -63t88.5 -23z" />
    <glyph glyph-name="zero.zero" horiz-adv-x="618" 
d="M309 -5q-66 0 -117 26t-85.5 72.5t-52.5 106.5t-18 127q0 68 17.5 127.5t52.5 105.5t86 71.5t117 25.5t117 -26t85.5 -72.5t52.5 -106t18 -125.5q0 -67 -18 -127t-52.5 -106.5t-85.5 -72.5t-117 -26zM309 28q68 -1 121.5 35t84.5 103.5t32 160.5q-1 91 -32 158
t-84.5 103.5t-121.5 35.5q-68 1 -121.5 -35.5t-84.5 -103.5t-32 -159q1 -92 32 -159.5t84.5 -103.5t121.5 -35zM283 325q0 12 8.5 20.5t19.5 8.5t19.5 -8.5t8.5 -20.5t-8.5 -20t-19.5 -8t-19.5 8t-8.5 20v0z" />
    <glyph glyph-name="uni00B9" unicode="&#xb9;" horiz-adv-x="255" 
d="M71 655h81v-318h-33v287h-48v31z" />
    <glyph glyph-name="uni00B2" unicode="&#xb2;" horiz-adv-x="398" 
d="M98 652q13 19 37.5 33t54.5 14q47 -1 75.5 -26.5t28.5 -77.5q0 -31 -16.5 -61.5t-42 -59.5t-54.5 -56.5t-55 -53.5l-1 23h184v-29h-215v13q30 27 59 55t53 56t38.5 55t14.5 52q0 44 -22 62t-54 18q-26 0 -43.5 -10.5t-28.5 -26.5z" />
    <glyph glyph-name="uni00B3" unicode="&#xb3;" horiz-adv-x="408" 
d="M167 358q-33 0 -56.5 13t-37.5 28l13 21q11 -13 30.5 -25.5t48.5 -11.5q40 0 62.5 26.5t22.5 64.5q0 37 -23 55.5t-54 18.5q-23 0 -36 -4t-26 -9l-2 4l107 143l11 -12h-144v27h173l-106 -146l-25 1q11 8 26 12.5t31 4.5q26 2 49 -10t37 -34t14 -52q0 -33 -14 -59.5
t-39.5 -41t-61.5 -14.5z" />
    <glyph glyph-name="uni2074" unicode="&#x2074;" horiz-adv-x="358" 
d="M277 467v-23h-234l-1 12l179 208h17v-327h-30v289l8 -6l-143 -164l-7 11h211z" />
    <glyph glyph-name="fraction" unicode="&#x2044;" horiz-adv-x="540" 
d="M460 669l-406 -669h-34l406 669h34z" />
    <glyph glyph-name="onehalf" unicode="&#xbd;" horiz-adv-x="805" 
d="M75 659h81v-318h-33v287h-48v31zM502 292q13 19 37.5 33t54.5 14q47 -1 75.5 -26.5t28.5 -77.5q0 -31 -16.5 -61.5t-42 -59.5t-54.5 -56.5t-55 -53.5l-1 23h184v-29h-215v13q30 27 59 55t53 56t38.5 55t14.5 52q0 44 -22 62t-54 18q-26 0 -43.5 -10.5t-28.5 -26.5z
M571 669l-406 -669h-34l406 669h34z" />
    <glyph glyph-name="onequarter" unicode="&#xbc;" horiz-adv-x="744" 
d="M562 668l-407 -668h-33l406 668h34zM75 655h81v-318h-33v287h-48v31zM690 130v-24h-233l-1 13l179 208h17v-327h-31v288l8 -5l-143 -164l-6 11h210z" />
    <glyph glyph-name="threequarters" unicode="&#xbe;" horiz-adv-x="719" 
d="M144 358q-33 0 -56.5 13t-37.5 28l13 21q11 -13 30.5 -25.5t48.5 -11.5q40 0 62.5 26.5t22.5 64.5q0 37 -23 55.5t-54 18.5q-23 0 -36 -4t-26 -9l-2 4l107 143l11 -12h-144v27h173l-106 -146l-25 1q11 8 26 12.5t31 4.5q26 2 49 -10t37 -34t14 -52q0 -33 -14 -59.5
t-39.5 -41t-61.5 -14.5zM569 669l-406 -669h-34l406 669h34zM661 130v-23h-234l-1 12l179 208h17v-327h-30v289l8 -6l-143 -164l-7 11h211z" />
    <glyph glyph-name="asterisk" unicode="*" horiz-adv-x="335" 
d="M153 552q-25 -15 -50.5 -29.5t-51.5 -29.5q-3 6 -7 12.5t-8 12.5q27 15 52.5 29.5t51.5 28.5q-26 15 -51.5 30.5t-51.5 30.5q2 5 5.5 10.5t6.5 10.5l52 -30l52 -30v122h29q-1 -30 -1 -60.5t-1 -61.5q27 15 53.5 30t52.5 29q2 -5 5.5 -10.5t6.5 -10.5q-26 -15 -52 -30.5
t-53 -30.5v0l52 -30l52 -30q-3 -5 -7 -11.5t-8 -12.5q-25 15 -50.5 30.5t-51.5 30.5q-1 -29 -1.5 -58.5t-0.5 -59.5h-25v118z" />
    <glyph glyph-name="backslash" unicode="\" horiz-adv-x="337" 
d="M47 739q70 -190 139.5 -379.5t139.5 -378.5h-35q-70 189 -139 378.5t-139 379.5h34z" />
    <glyph glyph-name="periodcentered" unicode="&#xb7;" horiz-adv-x="165" 
d="M62 281q0 12 8.5 20.5t19.5 8.5t19.5 -8.5t8.5 -20.5t-8.5 -20t-19.5 -8t-19.5 8t-8.5 20v0z" />
    <glyph glyph-name="bullet" unicode="&#x2022;" horiz-adv-x="480" 
d="M159 301q0 23 11 41.5t29 29.5t40 11q24 0 42.5 -11t29.5 -29.5t11 -41.5q0 -22 -11 -40t-29.5 -29.5t-42.5 -11.5q-22 0 -39.5 11.5t-29 29.5t-11.5 40v0z" />
    <glyph glyph-name="colon" unicode=":" horiz-adv-x="176" 
d="M57 284q0 11 8.5 19.5t19.5 8.5t19.5 -8.5t8.5 -19.5q0 -13 -8.5 -20.5t-19.5 -7.5t-19.5 7.5t-8.5 20.5v0zM57 28q0 12 8.5 20.5t19.5 8.5t19.5 -8.5t8.5 -20.5t-8.5 -20t-19.5 -8t-19.5 8t-8.5 20v0z" />
    <glyph glyph-name="comma" unicode="," horiz-adv-x="193" 
d="M138 87q-22 -52 -43 -103.5t-43 -104.5h-30q20 53 39 104.5t38 103.5h39z" />
    <glyph glyph-name="ellipsis" unicode="&#x2026;" horiz-adv-x="498" 
d="M58 28q0 12 8.5 20.5t19.5 8.5t19.5 -8.5t8.5 -20.5t-8.5 -20t-19.5 -8t-19.5 8t-8.5 20v0zM225 28q0 12 8.5 20.5t19.5 8.5t19.5 -8.5t8.5 -20.5t-8.5 -20t-19.5 -8t-19.5 8t-8.5 20v0zM391 28q0 12 9 20.5t20 8.5t19 -8.5t8 -20.5t-8 -20t-19 -8t-20 8t-9 20v0z" />
    <glyph glyph-name="exclam" unicode="!" horiz-adv-x="201" 
d="M84 753h31v-581h-31v581zM101 27q-13 0 -22.5 8.5t-9.5 22.5q0 12 9.5 21t22.5 9t22 -9t9 -21q0 -14 -9 -22.5t-22 -8.5z" />
    <glyph glyph-name="exclamdown" unicode="&#xa1;" horiz-adv-x="201" 
d="M84 -211h31v581h-31v-581zM101 515q-13 0 -22.5 -9t-9.5 -22q0 -12 9.5 -21t22.5 -9t22 9t9 21q0 13 -9 22t-22 9z" />
    <glyph glyph-name="numbersign" unicode="#" horiz-adv-x="573" 
d="M223 645q-7 -53 -13.5 -107t-12.5 -108h153q6 54 12.5 108t13.5 107h32q-7 -53 -13.5 -107t-13.5 -108h128q-1 -7 -1.5 -15t-0.5 -16h-130q-4 -38 -8.5 -76t-8.5 -76h127q-1 -7 -2 -15t-1 -16h-129l-12 -108l-12 -108h-32l12 108l12 108h-152q-7 -54 -13 -108l-12 -108
h-32l12 108t13 108h-111l2 16t1 15h112q5 38 9.5 76t8.5 76h-110l2 16t1 15h111q6 54 13 108t13 107h32zM193 399q-5 -38 -9 -76t-9 -76h153q5 38 9 76l8 76h-152z" />
    <glyph glyph-name="period" unicode="." horiz-adv-x="175" 
d="M62 28q0 12 8.5 20.5t19.5 8.5t19.5 -8.5t8.5 -20.5t-8.5 -20t-19.5 -8t-19.5 8t-8.5 20v0z" />
    <glyph glyph-name="question" unicode="?" horiz-adv-x="454" 
d="M198 170v76q0 47 14 71.5t36.5 39t47.5 33.5q37 28 61.5 61.5t24.5 87.5q0 47 -22 84t-59.5 58.5t-82.5 21.5q-38 0 -70.5 -15t-56 -42t-34.5 -61l-30 11q10 27 27.5 51.5t42 44t56 31.5t67.5 12q56 0 100.5 -25.5t70.5 -69.5t26 -99q0 -38 -12.5 -69t-34 -55.5
t-49.5 -46.5q-25 -19 -45.5 -32.5t-32 -35t-11.5 -64.5v-68h-34zM218 27q-13 0 -22.5 8.5t-9.5 22.5q0 12 9.5 21t22.5 9t21.5 -9t8.5 -21q0 -14 -8.5 -22.5t-21.5 -8.5z" />
    <glyph glyph-name="questiondown" unicode="&#xbf;" horiz-adv-x="417" 
d="M254 370v-77q0 -47 -14 -71.5t-36.5 -39t-47.5 -33.5q-37 -28 -61.5 -61t-24.5 -88q0 -47 22 -84t59.5 -58.5t82.5 -21.5q38 0 70.5 15t56 42t34.5 61l30 -11q-10 -27 -27.5 -51.5t-42.5 -44t-56 -31.5t-67 -12q-55 0 -100 25.5t-71 69.5t-26 99q0 39 12.5 69.5t34 55.5
t49.5 46q25 19 45.5 32.5t32 35t11.5 64.5v69h34zM234 512q13 0 22.5 -8.5t9.5 -22.5q0 -12 -9.5 -21t-22.5 -9t-21.5 9t-8.5 21q0 14 8.5 22.5t21.5 8.5z" />
    <glyph glyph-name="quotedbl" unicode="&#x22;" horiz-adv-x="304" 
d="M98 723q-1 -63 -2.5 -125t-1.5 -125h-31v250h35zM231 723q-1 -64 -2 -125.5t-2 -124.5h-30v250h34z" />
    <glyph glyph-name="quotesingle" unicode="'" horiz-adv-x="151" 
d="M96 723q-1 -64 -2 -125.5t-2 -124.5h-31v250h35z" />
    <glyph glyph-name="semicolon" unicode=";" horiz-adv-x="202" 
d="M82 279q0 12 8.5 20t19.5 8q12 0 20 -8t8 -20t-8 -20t-19 -8q-12 0 -20.5 8t-8.5 20v0zM122 87q-22 -52 -43.5 -103.5t-42.5 -104.5h-30q20 53 39 104.5t38 103.5h39z" />
    <glyph glyph-name="slash" unicode="/" horiz-adv-x="337" 
d="M327 739q-70 -190 -139 -379.5t-139 -378.5h-32q70 189 139.5 378.5t139.5 379.5h31z" />
    <glyph glyph-name="underscore" unicode="_" horiz-adv-x="602" 
d="M101 31h401v-31h-401v31z" />
    <glyph glyph-name="periodcentered.loclCAT.case" horiz-adv-x="165" 
d="M62 363q0 12 8.5 20.5t19.5 8.5t19.5 -8.5t8.5 -20.5t-8.5 -20t-19.5 -8t-19.5 8t-8.5 20v0z" />
    <glyph glyph-name="periodcentered.loclCAT" horiz-adv-x="165" 
d="M62 281q0 12 8.5 20.5t19.5 8.5t19.5 -8.5t8.5 -20.5t-8.5 -20t-19.5 -8t-19.5 8t-8.5 20v0z" />
    <glyph glyph-name="braceleft" unicode="{" horiz-adv-x="292" 
d="M197 717q-20 0 -31.5 -10.5t-16 -34.5t-4.5 -64v-143q0 -59 -9.5 -91t-25 -48t-31.5 -26q16 -10 31 -26t25 -48t10 -88v-146q0 -40 4.5 -64.5t16 -35t31.5 -10.5h54v-31h-44q-21 0 -39 2t-30.5 14.5t-20 43.5t-7.5 89v149q0 27 -6.5 57.5t-24 52t-48.5 22.5v0v38
q31 2 48.5 23.5t24 52t6.5 57.5v178q0 46 8.5 70.5t22 34.5t31 12t35.5 2h44v-32h-54z" />
    <glyph glyph-name="braceright" unicode="}" horiz-adv-x="333" 
d="M136 -118q21 0 32 10.5t15.5 35t4.5 64.5v174q0 43 11.5 70t27 42t27.5 22q-16 10 -31.5 26t-25 47.5t-9.5 88.5v146q0 41 -4.5 65t-15.5 34t-32 10h-54v32h44q18 0 35.5 -2t31 -12t22 -34.5t8.5 -70.5v-149q0 -18 1.5 -44.5t8 -53t23 -45t46.5 -19.5v0v-39
q-30 -1 -46.5 -20t-23 -45t-8 -52.5t-1.5 -44.5v-149q0 -46 -8.5 -70.5t-22 -34.5t-31 -11.5t-35.5 -1.5h-44v31h54z" />
    <glyph glyph-name="bracketleft" unicode="[" horiz-adv-x="348" 
d="M116 749h174v-33h-137v-833h137v-33h-174v899z" />
    <glyph glyph-name="bracketright" unicode="]" horiz-adv-x="348" 
d="M232 -150h-175v33h139v834h-139v32h175v-899z" />
    <glyph glyph-name="parenleft" unicode="(" horiz-adv-x="397" 
d="M136 293q0 100 23.5 187t61.5 156t80 113l21 -28q-39 -43 -73.5 -107.5t-56 -145.5t-21.5 -176q0 -94 21.5 -175t56 -145t73.5 -108l-21 -28q-42 45 -80 113.5t-61.5 155.5t-23.5 188v0z" />
    <glyph glyph-name="parenright" unicode=")" horiz-adv-x="401" 
d="M287 293q0 -100 -23.5 -187.5t-61.5 -156.5t-80 -113l-21 28q39 44 73.5 108t56.5 145t22 176q0 94 -22 175t-56.5 145t-73.5 108l21 28q42 -44 80 -113t61.5 -156t23.5 -187v0z" />
    <glyph glyph-name="emdash" unicode="&#x2014;" horiz-adv-x="703" 
d="M100 208h503v-32h-503v32z" />
    <glyph glyph-name="endash" unicode="&#x2013;" horiz-adv-x="511" 
d="M101 208h301v-32h-301v32z" />
    <glyph glyph-name="hyphen" unicode="-" horiz-adv-x="301" 
d="M53 212h185v-31h-185v31z" />
    <glyph glyph-name="uni00AD" unicode="&#xad;" horiz-adv-x="600" 
d="M53 212h185v-31h-185v31z" />
    <glyph glyph-name="guillemotleft" unicode="&#xab;" horiz-adv-x="602" 
d="M101 240q12 11 27 24.5t31.5 29t33.5 30.5t33.5 30t31.5 28.5t27 25.5v-35l-32 -32t-35 -34.5t-35 -34.5l-32 -32q15 -15 32 -32.5t35 -35t35 -35t32 -33.5v-33zM284 240q13 11 27.5 24.5t31 29t34 30.5t34 30t31.5 28.5t27 25.5v-35q-15 -15 -32.5 -32t-35.5 -34.5
t-35 -34.5l-32 -32q15 -15 32 -32.5t35 -35t35.5 -35t32.5 -33.5v-33z" />
    <glyph glyph-name="guillemotright" unicode="&#xbb;" horiz-adv-x="602" 
d="M479 240q-12 11 -27 24.5t-31.5 29t-34 30.5t-34 30t-31 28.5t-26.5 25.5v-35l32 -32t35 -34.5t35 -34.5l32 -32q-15 -15 -32 -32.5t-35 -35t-35 -35t-32 -33.5v-33zM295 240q-12 11 -26.5 24.5t-31 29t-34 30.5t-34 30t-31.5 28.5t-27 25.5v-35l32 -32t35 -34.5
t35 -34.5l32 -32q-15 -15 -32 -32.5t-35 -35t-35 -35t-32 -33.5v-33z" />
    <glyph glyph-name="guilsinglleft" unicode="&#x2039;" horiz-adv-x="387" 
d="M101 240q12 11 27 24.5t31.5 29t33.5 30.5t33.5 30t31.5 28.5t27 25.5v-35l-32 -32t-35 -34.5t-35 -34.5l-32 -32q15 -15 32 -32.5t35 -35t35 -35t32 -33.5v-33z" />
    <glyph glyph-name="guilsinglright" unicode="&#x203a;" horiz-adv-x="385" 
d="M295 240q-12 11 -26.5 24.5t-31 29t-34 30.5t-34 30t-31.5 28.5t-27 25.5v-35l32 -32t35 -34.5t35 -34.5l32 -32q-15 -15 -32 -32.5t-35 -35t-35 -35t-32 -33.5v-33z" />
    <glyph glyph-name="quotedblbase" unicode="&#x201e;" horiz-adv-x="262" 
d="M69 -112l-16 19q21 20 31 51.5t3 66.5l34 7q5 -27 0 -54t-18 -50t-34 -40v0zM155 -112l-16 19q21 20 31 51.5t3 66.5l34 7q5 -27 0 -54t-18 -50t-34 -40v0z" />
    <glyph glyph-name="quotedblleft" unicode="&#x201c;" horiz-adv-x="244" 
d="M222 717l17 -20q-22 -28 -31.5 -57.5t-3.5 -59.5l-33 -7q-6 29 -1 55t18.5 48.5t33.5 40.5zM116 717l17 -20q-22 -28 -31.5 -57.5t-3.5 -59.5l-33 -7q-6 29 -1 55t18.5 48.5t33.5 40.5z" />
    <glyph glyph-name="quotedblright" unicode="&#x201d;" horiz-adv-x="234" 
d="M69 570l-16 19q21 20 31 51.5t3 66.5l34 7q5 -27 0 -54t-18 -50t-34 -40v0zM155 570l-16 19q21 20 31 51.5t3 66.5l34 7q5 -27 0 -54t-18 -50t-34 -40v0z" />
    <glyph glyph-name="quoteleft" unicode="&#x2018;" horiz-adv-x="168" 
d="M105 717l17 -20q-22 -28 -31.5 -57.5t-3.5 -59.5l-33 -7q-6 29 -1 55t18.5 48.5t33.5 40.5z" />
    <glyph glyph-name="quoteright" unicode="&#x2019;" horiz-adv-x="170" 
d="M69 570l-16 19q21 20 31 51.5t3 66.5l34 7q5 -27 0 -54t-18 -50t-34 -40v0z" />
    <glyph glyph-name="quotesinglbase" unicode="&#x201a;" horiz-adv-x="170" 
d="M69 -101l-16 19q21 20 31 51.5t3 66.5l34 7q5 -27 0 -54t-18 -50t-34 -40v0z" />
    <glyph glyph-name="space" unicode=" " horiz-adv-x="304" 
 />
    <glyph glyph-name="uni00A0" unicode="&#xa0;" horiz-adv-x="304" 
 />
    <glyph glyph-name="CR" unicode="&#xd;" horiz-adv-x="304" 
 />
    <glyph glyph-name="uni20B5" unicode="&#x20b5;" horiz-adv-x="691" 
d="M620 45q-25 -14 -54.5 -26.5t-64 -19.5t-74.5 -7q-80 0 -146 28.5t-113 77.5t-72 113.5t-25 137.5q0 77 27 143.5t76 116t114 77.5t140 28q54 0 102 -14t88 -38l-16 -32q-36 23 -80.5 37t-92.5 14q-66 0 -124.5 -25.5t-103 -71t-69.5 -105.5t-25 -130q0 -65 22.5 -124
t64.5 -104t101.5 -70.5t132.5 -25.5q51 0 94.5 14t79.5 36zM388 797h32v-936h-32v936z" />
    <glyph glyph-name="cent" unicode="&#xa2;" horiz-adv-x="427" 
d="M235 449h25v-517h-25v517zM383 38q-26 -22 -59 -33.5t-69 -11.5q-57 0 -103 26t-73 71.5t-27 102.5t27.5 102t73 71.5t100.5 26.5q38 0 71.5 -11.5t59.5 -33.5l-18 -23q-22 17 -50.5 28.5t-60.5 11.5q-47 0 -85.5 -23.5t-61 -62t-22.5 -86.5q0 -47 22.5 -86t61.5 -62
t87 -23q31 0 58 10t49 27z" />
    <glyph glyph-name="colonmonetary" unicode="&#x20a1;" horiz-adv-x="691" 
d="M507 747l-286 -776h-31l285 776h32zM635 749l-286 -777h-32l287 777h31zM620 45q-25 -14 -54.5 -26.5t-64 -19.5t-74.5 -7q-80 0 -146 28.5t-113 77.5t-72 113.5t-25 137.5q0 77 27 143.5t76 116t114 77.5t140 28q54 0 102 -14t88 -38l-16 -32q-36 23 -80.5 37t-92.5 14
q-66 0 -124.5 -25.5t-103 -71t-69.5 -105.5t-25 -130q0 -65 22.5 -124t64.5 -104t101.5 -70.5t132.5 -25.5q51 0 94.5 14t79.5 36z" />
    <glyph glyph-name="currency" unicode="&#xa4;" horiz-adv-x="501" 
d="M354 446q31 -37 31 -85q0 -25 -9 -48t-24 -41l38 -38l-18 -18l-19.5 19.5l-19.5 19.5q-36 -31 -86 -31q-23 0 -45 8t-39 22v0l-39 -39l-18 18l38 38q-15 18 -24 41t-9 49v0q0 24 8.5 46t22.5 40q-9 9 -18 17.5t-18 17.5l18 18l36 -35q17 15 39.5 24t48.5 9t48 -9t40 -25
v0l36 35l18 -18zM136 361q0 -31 15 -57t41 -40.5t56 -14.5q31 0 56 15t40.5 40.5t15.5 56.5t-15 57t-40.5 40.5t-56.5 14.5q-30 0 -56 -14.5t-41 -40t-15 -57.5v0z" />
    <glyph glyph-name="dollar" unicode="$" horiz-adv-x="567" 
d="M282 -68v444v14v381h26v-383v-16v-440h-26zM458 641q-30 13 -75 26t-91 13q-73 0 -117.5 -37.5t-44.5 -92.5q0 -42 25 -69.5t64.5 -46.5t85.5 -36q35 -13 70 -29t63.5 -39t45 -56.5t16.5 -82.5q0 -60 -28 -105t-77 -69.5t-112 -24.5q-55 0 -98.5 13.5t-74.5 31t-47 27.5
l17 29q21 -15 53 -31.5t69.5 -27.5t76.5 -11q46 0 88.5 18t70 55t27.5 94q0 54 -26.5 87.5t-67.5 54.5t-87 38q-35 12 -68.5 26.5t-60.5 34.5t-43.5 48t-16.5 67q0 49 25.5 85.5t69 57.5t98.5 21q44 0 95 -12t88 -30z" />
    <glyph glyph-name="dong" unicode="&#x20ab;" horiz-adv-x="606" 
d="M331 679h214v-27h-214v27zM90 26h466v-26h-466v26zM285 111q-55 0 -99 26.5t-70 72t-26 102.5q0 61 26.5 106.5t71.5 70t100 24.5q58 0 108 -33t72 -83l-6 -15v391h33v-655h-33v125l5 -20q-22 -49 -71.5 -80.5t-110.5 -31.5zM293 141q46 0 83.5 20.5t60.5 57t25 82.5v41
q-8 40 -32.5 72.5t-59.5 51.5t-77 19q-48 0 -86 -22t-60.5 -60.5t-22.5 -89.5q0 -48 22.5 -87t61 -62t85.5 -23z" />
    <glyph glyph-name="Euro" unicode="&#x20ac;" horiz-adv-x="728" 
d="M71 410h337v-30h-337v30zM72 296h336v-30h-336v30zM656 45q-24 -14 -53.5 -26.5t-64 -19.5t-74.5 -7q-80 0 -145.5 28.5t-112.5 77.5t-72.5 113.5t-25.5 137.5q0 77 27.5 143.5t76.5 116t113.5 77.5t140.5 28q53 0 101 -14t88 -38l-16 -32q-36 23 -80.5 37t-92.5 14
q-66 0 -124.5 -25.5t-103 -71t-69.5 -105.5t-25 -130q0 -65 22.5 -124t64.5 -104t101.5 -70.5t132.5 -25.5q51 0 94.5 14t79.5 36z" />
    <glyph glyph-name="florin" unicode="&#x192;" horiz-adv-x="294" 
d="M96 517q0 77 27 129.5t72 80t101 29.5v-34q-46 0 -84 -25t-60 -70t-22 -107v-137h130v-33h-130v-283q0 -77 -26 -129t-71.5 -79.5t-102.5 -30.5v34q46 0 84 25t60 70t22 107v286h-67v33h67v134z" />
    <glyph glyph-name="franc" unicode="&#x20a3;" horiz-adv-x="600" 
d="M116 706h389v-33h-354v-311h314v-33h-314v-329h-35v706zM36 177h233v-27h-233v27z" />
    <glyph glyph-name="uni20B2" unicode="&#x20b2;" horiz-adv-x="738" 
d="M643 47q-19 -12 -44 -22t-53 -17.5t-57 -11.5t-56 -4q-83 0 -150 27.5t-114.5 76t-72.5 113.5t-25 139q0 79 28 145.5t77.5 116t115 77t139.5 27.5q54 0 102 -13.5t89 -37.5l-14 -31q-24 14 -53 25t-59.5 17t-60.5 6q-70 0 -129.5 -25.5t-104.5 -70.5t-70 -105t-25 -129
q0 -68 23 -127t66 -103.5t103 -69t134 -24.5q43 0 92 10.5t84 31.5v212h-165v34h200v-267zM386 790h32v-936h-32v936z" />
    <glyph glyph-name="uni20AD" unicode="&#x20ad;" horiz-adv-x="651" 
d="M35 424h499v-34h-499v34zM154 378l-1 -35v6l367 357h45l-293 -285l331 -421h-45l-311 399l-94 -89l1 -310h-35v706h35v-328z" />
    <glyph glyph-name="lira" unicode="&#x20a4;" horiz-adv-x="588" 
d="M298 352v-32h-232v32h232zM298 233v-32h-232v32h232zM132 510q0 46 21.5 77.5t60 47t89.5 15.5q68 0 106 -25t59 -67l-25 -16q-11 19 -23 33t-27.5 23t-37 13.5t-52.5 4.5q-52 0 -82 -15t-42.5 -40.5t-12.5 -56.5v-348v-30q0 -10 -0.5 -23t-3 -26t-7 -25t-11.5 -18v0h234
q54 0 78 10.5t24 39.5v53h31v-44q0 -18 -2.5 -34.5t-14 -29.5t-36 -21t-68.5 -8h-354v34h44q23 0 34 12t14.5 42t3.5 84v338z" />
    <glyph glyph-name="uni20BA" unicode="&#x20ba;" horiz-adv-x="627" 
d="M554 315q1 -9 1.5 -19t0.5 -19q0 -78 -28 -131t-76 -85t-111.5 -46.5t-134.5 -14.5h-35v706h35v-691l-2 18q64 0 121.5 12.5t101 40t68.5 75t25 116.5q0 8 -0.5 15.5t-1.5 14.5zM435 376l14 -22l-375 -209l-14 22zM406 503l14 -22l-374 -207l-14 22z" />
    <glyph glyph-name="uni20BC" unicode="&#x20bc;" horiz-adv-x="705" 
d="M338 831h31v-831h-31v831zM554 464q0 66 -26 113t-71.5 72t-103.5 25t-104 -25t-72 -72t-26 -113v-471h-35v473q0 78 31 131.5t85.5 81.5t120.5 28v0q68 0 121 -28t84 -81.5t31 -131.5v-473h-35v471z" />
    <glyph glyph-name="uni20A6" unicode="&#x20a6;" horiz-adv-x="818" 
d="M417 358h379v-26h-379v26zM414 332h-399v26h399v-26zM700 -15l-560 660l11 5v-650h-35v719h2l562 -666l-13 4v649h35v-721h-2z" />
    <glyph glyph-name="peseta" unicode="&#x20a7;" horiz-adv-x="557" 
d="M467 518h79v-28h-79v28zM125 490h-85v28h85v-28zM271 706q62 0 109.5 -21t74.5 -64.5t27 -108.5q0 -39 -12.5 -75.5t-39.5 -65.5t-68.5 -46.5t-100.5 -17.5h-110v-307h-35v706h155zM261 341q55 0 91.5 17t57 43.5t29.5 56t9 55.5q0 37 -12 66.5t-35 50t-55.5 32
t-72.5 11.5h-122v-332h110z" />
    <glyph glyph-name="uni20B1" unicode="&#x20b1;" horiz-adv-x="573" 
d="M458 588h111v-27h-111v27zM461 457h108v-27h-108v27zM146 430h-119v27h119v-27zM146 561h-119v27h119v-27zM283 706q62 0 110 -21t74.5 -64.5t26.5 -108.5q0 -39 -12.5 -75.5t-39 -65.5t-68.5 -46.5t-101 -17.5h-110v-307h-35v706h155zM273 341q56 0 92.5 17t56.5 43.5
t29 56t9 55.5q0 37 -12 66.5t-35 50t-55.5 32t-72.5 11.5h-122v-332h110z" />
    <glyph glyph-name="uni20BD" unicode="&#x20bd;" horiz-adv-x="554" 
d="M27 181h254v-32h-254v32zM27 339h144v-32h-144v32zM283 706q62 0 110 -21t74.5 -64.5t26.5 -108.5q0 -39 -12.5 -75.5t-39 -65.5t-68.5 -46.5t-101 -17.5h-110v-307h-35v706h155zM273 341q56 0 92.5 17t56.5 43.5t29 56t9 55.5q0 37 -12 66.5t-35 50t-55.5 32t-72.5 11.5
h-122v-332h110z" />
    <glyph glyph-name="uni20B9" unicode="&#x20b9;" horiz-adv-x="586" 
d="M130 307v34h89q55 0 92 15.5t58 40.5t29.5 54.5t8.5 58.5q0 35 -13 64.5t-36.5 51.5t-55 34.5t-69.5 12.5h-103v33h386v-33h-229l-58 24q36 0 73 -9.5t69 -31t52 -57t20 -87.5q0 -39 -12 -75.5t-38 -65.5t-68 -46.5t-103 -17.5h-92zM474 0l-200 328l41 1l199 -329h-40z
M126 485v30h402v-30h-402z" />
    <glyph glyph-name="sterling" unicode="&#xa3;" horiz-adv-x="584" 
d="M297 340v-34h-230v34h230zM132 510q0 46 21 77.5t59.5 47t90.5 15.5q67 0 105 -25t59 -67l-25 -16q-14 25 -31 41.5t-42 24.5t-66 8q-53 0 -83 -15t-42.5 -40.5t-12.5 -56.5v-348v-30q0 -13 -1.5 -31t-6 -35t-14.5 -26h-8h243q54 0 78 10.5t24 39.5v53h31v-44
q0 -18 -3 -34.5t-14 -29.5t-36 -21t-69 -8h-354v34h45q23 0 34 12t14.5 42t3.5 84v338z" />
    <glyph glyph-name="uni20A9" unicode="&#x20a9;" horiz-adv-x="989" 
d="M65 423h893v-28h-893v28zM51 705h40l246 -669l-9 2l149 409l17 -43l-165 -437zM373 705h34l254 -672l-13 4l252 668h37l-285 -737z" />
    <glyph glyph-name="yen" unicode="&#xa5;" horiz-adv-x="652" 
d="M154 283h340v-30h-340v30zM154 124h339v-30h-339v30zM309 295l-264 411h42l247 -382l-13 -2l245 384h41l-263 -411v-295h-35v295z" />
    <glyph glyph-name="uni2219" unicode="&#x2219;" horiz-adv-x="185" 
d="M93 237q-22 0 -37 15t-15 37t15 36.5t37 14.5q20 0 35.5 -15t15.5 -36q0 -22 -15.5 -37t-35.5 -15z" />
    <glyph glyph-name="uni2215" unicode="&#x2215;" horiz-adv-x="337" 
d="M326 739q-70 -190 -139 -379.5t-139 -378.5h-32q70 189 139.5 378.5t139.5 379.5h31z" />
    <glyph glyph-name="plus" unicode="+" horiz-adv-x="545" 
d="M251 412h32v-164h164v-31h-164v-166h-32v166h-164v31h164v164z" />
    <glyph glyph-name="minus" unicode="&#x2212;" horiz-adv-x="786" 
d="M85 211h362v-30h-362v30z" />
    <glyph glyph-name="multiply" unicode="&#xd7;" horiz-adv-x="504" 
d="M266 167q29 29 58 57.5t58 57.5q6 -5 12.5 -12t12.5 -13q-29 -29 -58 -57.5t-57 -57.5q29 -29 57.5 -58t58.5 -59l-27 -25q-29 29 -57.5 58t-58.5 58q-28 -29 -57 -58t-58 -57q-6 5 -12.5 11.5l-12.5 12.5q29 30 57.5 58.5l57.5 57.5l-115 116l26 25z" />
    <glyph glyph-name="divide" unicode="&#xf7;" horiz-adv-x="502" 
d="M224 355q0 11 8 19.5t20 8.5q11 0 19.5 -8.5t8.5 -20.5q0 -11 -8.5 -19t-19.5 -8q-12 0 -20 8t-8 20v0zM224 94q0 12 8 20.5t20 8.5q11 0 19.5 -8.5t8.5 -19.5q0 -13 -8.5 -21t-19.5 -8q-12 0 -20 8t-8 20v0zM68 241h361v-32h-361v32z" />
    <glyph glyph-name="equal" unicode="=" horiz-adv-x="711" 
d="M101 366h507v-30h-507v30zM101 172h507v-31h-507v31z" />
    <glyph glyph-name="notequal" unicode="&#x2260;" horiz-adv-x="711" 
d="M557 508q-41 -48 -83.5 -99.5t-86.5 -104t-88.5 -105t-87 -103.5t-83.5 -100l-19 17q41 48 84 99.5t87 104t88.5 105t87.5 104t84 100.5zM101 366h507v-30h-507v30zM101 172h507v-31h-507v31z" />
    <glyph glyph-name="greater" unicode="&#x3e;" horiz-adv-x="635" 
d="M110 22l375 217l-375 216v37l439 -253l-439 -254v0v37z" />
    <glyph glyph-name="less" unicode="&#x3c;" horiz-adv-x="661" 
d="M541 455l-375 -216l375 -217v-37l-439 254l439 253v-37z" />
    <glyph glyph-name="greaterequal" unicode="&#x2265;" horiz-adv-x="555" 
d="M64 727l439 -254l-439 -254v38l378 215l-378 217v38zM63 118h371v-31h-371v31z" />
    <glyph glyph-name="lessequal" unicode="&#x2264;" horiz-adv-x="555" 
d="M462 219l-440 254l440 254v-38l-376 -217l376 -215v0v-38zM61 118h368v-31h-368v31z" />
    <glyph glyph-name="plusminus" unicode="&#xb1;" horiz-adv-x="526" 
d="M251 573h32v-164h164v-32h-164v-165h-32v165h-164v32h164v164zM87 156h360v-32h-360v32z" />
    <glyph glyph-name="approxequal" unicode="&#x2248;" horiz-adv-x="483" 
d="M246 151q-29 0 -47.5 15t-34.5 32q-13 15 -27 27.5t-35 12.5q-11 0 -24 -8.5t-22 -28.5t-11 -55l-24 1q0 40 11.5 66.5t30.5 40t40 13.5q29 0 46.5 -15.5t32.5 -32.5q14 -16 29 -28t35 -12q14 0 25.5 8.5t19 29t9.5 55.5l24 -1q0 -41 -10.5 -67.5t-28 -39.5t-39.5 -13z
M247 310q-29 0 -47.5 15t-34.5 32q-13 15 -27 27.5t-35 12.5q-11 0 -24 -8.5t-22 -28.5t-11 -55l-24 1q0 40 11.5 66.5t30.5 40t40 13.5q29 0 46.5 -15.5t32.5 -32.5q14 -16 29 -28t35 -12q14 0 25.5 8.5t19 29t9.5 55.5l24 -1q0 -41 -10.5 -67.5t-28 -39.5t-39.5 -13z" />
    <glyph glyph-name="asciitilde" unicode="~" horiz-adv-x="395" 
d="M271 453q-29 0 -47.5 15t-34.5 32q-13 15 -27 27.5t-35 12.5q-11 0 -24 -8.5t-22 -28.5t-11 -55l-24 1q0 40 11.5 66.5t30.5 40t40 13.5q29 0 46.5 -15.5t32.5 -32.5q14 -16 29 -28t35 -12q14 0 25.5 8.5t19 29t9.5 55.5l24 -1q0 -41 -10.5 -67.5t-28 -39.5t-39.5 -13z
" />
    <glyph glyph-name="logicalnot" unicode="&#xac;" horiz-adv-x="545" 
d="M92 255h361v-116h-34v82h-327v34z" />
    <glyph glyph-name="infinity" unicode="&#x221e;" horiz-adv-x="435" 
d="M229 302q0 -21 -14 -36.5t-36 -24.5t-46 -9q-28 0 -46.5 10.5t-28 27t-9.5 32.5t9.5 32t28.5 26.5t46 10.5q24 0 46 -8.5t36 -24.5t14 -36v0zM206 302q0 20 13.5 36t35.5 24.5t47 8.5q27 0 44.5 -10.5t26 -26.5t8.5 -32t-8 -32.5t-25.5 -27t-46.5 -10.5q-24 0 -46 9
t-35.5 25t-13.5 36v0zM206 301q0 21 -23.5 34t-49.5 13q-30 0 -43.5 -15.5t-13.5 -30.5t13.5 -31t43.5 -16q26 0 49.5 13.5t23.5 32.5v0zM229 301q0 -19 23.5 -32.5t48.5 -13.5q30 0 44 16t14 31t-14 30.5t-44 15.5q-25 0 -48.5 -13t-23.5 -34v0z" />
    <glyph glyph-name="integral" unicode="&#x222b;" horiz-adv-x="324" 
d="M193 717q-20 0 -31.5 -10t-16 -34t-4.5 -65v-612q0 -56 -6.5 -86t-19 -42.5t-30 -14.5t-38.5 -2h-43v31h53q21 0 32.5 10.5t16 35t4.5 64.5v638v0q0 46 7.5 70.5t21 34.5t30.5 12t35 2h43v-32h-54z" />
    <glyph glyph-name="uni2126" unicode="&#x2126;" horiz-adv-x="833" 
d="M492 31q47 18 87.5 51t66.5 84t26 123q0 65 -17 116t-48 85.5t-74.5 53t-96.5 18.5t-96.5 -17.5t-75.5 -52t-49.5 -85t-17.5 -113.5q0 -73 27 -125t69.5 -85.5t88.5 -52.5v-21q-35 13 -67 30.5t-59.5 40.5t-47.5 54t-31.5 71t-11.5 90q0 53 16 105.5t49 96t84 69.5
t122 26q74 0 125 -28t82.5 -73t46 -98t13.5 -104q-1 -50 -12 -89t-30.5 -70t-46 -53.5t-57.5 -39t-65 -28.5v21zM164 31h218v-31h-218v31zM492 31h207v-31h-207v31z" />
    <glyph glyph-name="uni2206" unicode="&#x2206;" horiz-adv-x="501" 
d="M236 732l156 -453h-27l-129 379l-129 -379h-27l156 453v0zM101 303h274v-24h-274v24z" />
    <glyph glyph-name="product" unicode="&#x220f;" horiz-adv-x="576" 
d="M202 753h204v-810h-31v779h-142v-779h-31v810z" />
    <glyph glyph-name="summation" unicode="&#x2211;" horiz-adv-x="501" 
d="M80 753h345l-17 -31h-286l105 -377l-105 -377h286l17 -31h-345l114 408z" />
    <glyph glyph-name="radical" unicode="&#x221a;" horiz-adv-x="529" 
d="M464 603h27l-255 -556l-137 300h-87l1 23h104l119 -255z" />
    <glyph glyph-name="uni00B5" unicode="&#xb5;" horiz-adv-x="498" 
d="M212 -10q-46 0 -75.5 23t-39.5 61l28 2v-277h-34v310v276h34v-271q2 -39 26 -65.5t71 -28.5q39 0 73.5 20t56 54t21.5 78v213h34v-385h-30l-4 123l4 -21q-9 -31 -34 -56t-59.5 -40.5t-71.5 -15.5z" />
    <glyph glyph-name="percent" unicode="%" horiz-adv-x="741" 
d="M216 232q-34 0 -60.5 17.5t-42 50.5t-15.5 79q0 45 15.5 78t42 50.5t60.5 17.5t60.5 -17.5t42 -50.5t15.5 -78q0 -47 -15.5 -80t-42 -50t-60.5 -17zM130 378q0 -58 24.5 -89t61.5 -31t62 31t25 89q0 56 -25 88t-62 32t-61.5 -30t-24.5 -90zM537 -1q-34 0 -60.5 17.5
t-41.5 50.5t-15 79t15 78.5t41.5 50t60.5 17.5t60.5 -17.5t42 -50t15.5 -78.5t-15.5 -79.5t-42.5 -50.5t-60 -17zM450 145q0 -57 25 -88.5t62 -31.5t62.5 31.5t25.5 88.5t-25.5 88.5t-62.5 31.5t-62 -29.5t-25 -90.5zM556 527l-327 -528l-36 1l328 527h35z" />
    <glyph glyph-name="perthousand" unicode="&#x2030;" horiz-adv-x="1022" 
d="M216 232q-34 0 -60.5 17.5t-42 50.5t-15.5 79q0 45 15.5 78t42 50.5t60.5 17.5t60.5 -17.5t42 -50.5t15.5 -78q0 -47 -15.5 -80t-42 -50t-60.5 -17zM130 378q0 -58 24.5 -89t61.5 -31t62 31t25 89q0 56 -25 88t-62 32t-61.5 -30t-24.5 -90zM537 -1q-34 0 -60.5 17.5
t-41.5 50.5t-15 79t15 78.5t41.5 50t60.5 17.5t60.5 -17.5t42 -50t15.5 -78.5t-15.5 -79.5t-42.5 -50.5t-60 -17zM450 145q0 -57 25 -88.5t62 -31.5t62.5 31.5t25.5 88.5t-25.5 88.5t-62.5 31.5t-62 -29.5t-25 -90.5zM556 527l-327 -528l-36 1l328 527h35zM823 -1
q-34 0 -60.5 17.5t-42 50.5t-15.5 79t15.5 78.5t42 50t60.5 17.5t60.5 -17.5t42 -50t15.5 -78.5t-16 -79.5t-42.5 -50.5t-59.5 -17zM735 145q0 -57 25.5 -88.5t62.5 -31.5t62 31.5t25 88.5t-25 88.5t-62 31.5t-62.5 -29.5t-25.5 -90.5z" />
    <glyph glyph-name="lozenge" unicode="&#x25ca;" horiz-adv-x="450" 
d="M236 732l156 -343l-156 -342l-156 342zM236 665l-129 -276l129 -274l129 274z" />
    <glyph glyph-name="at" unicode="@" horiz-adv-x="983" 
d="M408 -210q-82 0 -148 23t-112 68t-71 110t-25 148q0 53 18 115.5t56 123t98.5 111t146 81t197.5 30.5q80 0 146.5 -25.5t115 -70.5t74.5 -106t26 -132q0 -53 -16.5 -103t-45.5 -88.5t-67.5 -61t-82.5 -22.5q-37 0 -59.5 17.5t-29.5 50.5t3 78l7 -19q-18 -34 -48.5 -62.5
t-68 -45.5t-77.5 -17q-54 0 -96 22.5t-64.5 63t-21.5 92.5q0 60 29 111t79.5 82t111.5 31q44 0 78 -15t57 -40.5t33 -59.5l20 105h29l-38 -276q-2 -21 1 -41t17 -33.5t43 -13.5q34 0 65.5 20.5t55.5 55t38 78.5t14 91q0 86 -42 155t-117 109.5t-174 40.5
q-105 0 -184.5 -29.5t-135.5 -78.5t-91 -106.5t-51 -113.5t-16 -101q0 -77 22 -137.5t64.5 -102t103 -62.5t138.5 -21q61 0 118.5 19.5t107.5 51.5l16 -23q-37 -25 -77.5 -42t-83 -26t-86.5 -9zM455 22q39 0 78 20t67.5 56t36.5 81l6 49q-2 39 -23 70t-56 49.5t-79 18.5
q-49 0 -91.5 -26t-68.5 -69.5t-26 -97.5q-1 -42 18.5 -76.5t55 -54.5t82.5 -20z" />
    <glyph glyph-name="ampersand" unicode="&#x26;" horiz-adv-x="707" 
d="M618 0h-8.5h-14h-13h-5.5l-376 487q-8 14 -16.5 30.5t-14 36t-5.5 42.5q0 45 21 80t58 55t83 20q44 0 81 -16.5t63 -35.5l-16 -23q-30 20 -61 32t-63 12q-56 0 -93 -34.5t-37 -88.5q0 -24 7.5 -45.5t15 -34.5t7.5 -14zM301 365q-33 -1 -67 -13.5t-62.5 -35.5t-45.5 -55
t-17 -71q0 -49 26.5 -86.5t70.5 -58.5t97 -21q44 0 83 14.5t67.5 38.5t41.5 52l22 -25q-26 -47 -84.5 -79t-132.5 -32q-67 0 -118.5 26.5t-81 71.5t-29.5 99q0 44 19 80.5t51 64t72.5 43t84.5 16.5zM594 394h35l-109 -285l-25 22z" />
    <glyph glyph-name="paragraph" unicode="&#xb6;" horiz-adv-x="505" 
d="M202 424q-46 0 -83 22t-59 59.5t-22 82.5q0 46 22 83.5t59 59.5t83 22h194v-753h-31v722h-132v-722h-31v424z" />
    <glyph glyph-name="section" unicode="&#xa7;" horiz-adv-x="562" 
d="M353 134l-10 12q38 -9 69 -25.5t50 -44t19 -69.5q0 -44 -28 -81t-76.5 -58.5t-109.5 -21.5q-54 0 -97.5 13.5t-73.5 31t-46 27.5l17 29q22 -16 53.5 -32t68.5 -26.5t75 -10.5q45 0 86.5 15t68 44t26.5 69t-24.5 64t-64 37.5t-83.5 24.5q-36 10 -70.5 21.5t-62.5 29
t-45 44.5t-17 67q0 46 25.5 80.5t67 54t90.5 19.5l-4 -10q-41 12 -74.5 29.5t-53.5 46t-20 70.5q0 28 13.5 53t39 45t60.5 32t78 12q41 0 91 -12t87 -32l-16 -25q-29 15 -72 26.5t-86 12.5q-50 0 -85.5 -16t-55 -41.5t-19.5 -53.5q0 -39 22.5 -62t62 -37.5t90.5 -27.5
q35 -9 69.5 -20.5t62.5 -29.5t44.5 -45.5t16.5 -67.5q0 -61 -44 -104t-115 -57zM477 290q0 42 -25.5 68t-67.5 42.5t-90 29.5q-83 0 -132 -37.5t-49 -93.5q0 -44 25.5 -70t72.5 -42t109 -33q34 3 70.5 19.5t61.5 46t25 70.5z" />
    <glyph glyph-name="copyright" unicode="&#xa9;" horiz-adv-x="804" 
d="M508 228q-19 -14 -43.5 -23t-53.5 -9q-49 1 -86.5 24t-58.5 61t-21 84q0 48 23 86t61.5 60.5t83.5 22.5q16 0 32 -2.5t31.5 -8t27.5 -14.5l-13 -26q-17 12 -36 17t-40 5q-35 0 -66 -18.5t-50.5 -50t-19.5 -71.5q0 -39 17.5 -70t47.5 -49.5t70 -18.5q21 0 41 6.5t37 18.5z
M402 89q-58 0 -108 20t-88 57.5t-59 87t-21 108.5q0 61 21.5 111t59 87t87.5 57.5t108 20.5t108 -20.5t87.5 -57.5t59 -87t21.5 -110t-19.5 -109.5t-56 -87t-87 -57.5t-113.5 -20zM401 118q68 0 124 32t89 87.5t33 123.5q0 72 -33 127.5t-89 87.5t-124 32q-67 0 -123 -31.5
t-88.5 -87.5t-32.5 -128q0 -70 29 -125t83.5 -86.5t131.5 -31.5z" />
    <glyph glyph-name="registered" unicode="&#xae;" horiz-adv-x="382" 
d="M191 398q-43 0 -78 19.5t-55.5 54t-20.5 78.5t21 78.5t55.5 54t77.5 19.5t77.5 -19.5t55 -54t20.5 -78.5t-20.5 -78.5t-55 -54t-77.5 -19.5zM190 421q36 0 65.5 16.5t47 46t17.5 66.5t-17.5 66t-47 46t-65.5 17q-35 0 -64 -17t-46.5 -46t-17.5 -66t17 -66t46.5 -46
t64.5 -17zM136 640h54q22 0 39.5 -11.5t17.5 -39.5q0 -24 -14.5 -39t-45.5 -15h-28v-68h-23v173zM184 555q21 0 29.5 10t8.5 24q0 17 -11.5 24t-22.5 7h-27v-65h23zM213 542l40 -75h-26l-39 74z" />
    <glyph glyph-name="trademark" unicode="&#x2122;" horiz-adv-x="566" 
d="M474 669l14 -4l-111 -150l-111 150l13 4v-225h-24v270l125 -163h-6l125 163v-270h-25v225zM48 703h159v-23h-67v-236h-26v236h-66v23z" />
    <glyph glyph-name="degree" unicode="&#xb0;" horiz-adv-x="283" 
d="M55 561q0 23 11 42.5t30 30t42 10.5q24 0 42.5 -10.5t29.5 -30t11 -42.5t-11.5 -41.5t-29.5 -29.5t-41 -11q-24 0 -43 11t-30 29.5t-11 41.5v0zM139 503q23 0 40.5 17t17.5 42q0 24 -17 41t-41 17q-25 0 -42.5 -17t-17.5 -41q0 -25 17.5 -42t42.5 -17v0z" />
    <glyph glyph-name="bar" unicode="|" horiz-adv-x="233" 
d="M97 703h32v-936h-32v936z" />
    <glyph glyph-name="brokenbar" unicode="&#xa6;" horiz-adv-x="216" 
d="M94 703h32v-352h-32v352zM94 118h32v-352h-32v352z" />
    <glyph glyph-name="dagger" unicode="&#x2020;" horiz-adv-x="300" 
d="M51 445h197v-31h-197v31zM134 581h32v-524h-32v524z" />
    <glyph glyph-name="daggerdbl" unicode="&#x2021;" horiz-adv-x="310" 
d="M50 296h209v-31h-209v31zM60 445h197v-31h-197v31zM143 581h31v-524h-31v524z" />
    <glyph glyph-name="uni2116" unicode="&#x2116;" horiz-adv-x="1271" 
d="M838 235h371v-30h-371v30zM700 -15l-560 655l9 10l1 -650h-34v719h2l562 -661l-11 -1l-1 649h34v-721h-2zM812 503q0 56 27 101.5t73 73t103 27.5t103 -27.5t73 -73t27 -101.5t-27 -102t-73 -73t-104 -27q-57 0 -102.5 26t-72.5 72t-27 104zM845 502q0 -48 23 -86.5
t61 -61.5t85 -23t85.5 23t61 61.5t22.5 86.5t-22.5 87t-61 62t-85.5 23q-48 0 -86.5 -24.5t-60.5 -64t-22 -83.5z" />
    <glyph glyph-name="asciicircum" unicode="^" horiz-adv-x="471" 
d="M326 481q-14 21 -30 44.5t-32.5 47t-30.5 45.5q-15 -22 -31 -45.5l-32 -47t-31 -44.5h-26q30 45 60 90.5t60 90.5v0q30 -45 60 -90.5t60 -90.5h-27z" />
    <glyph glyph-name="uni0308" unicode="&#x308;" 
d="M80 507q0 11 8.5 19.5t19.5 8.5t19.5 -8.5t8.5 -20.5q0 -11 -8.5 -19.5t-19.5 -8.5t-19.5 8.5t-8.5 20.5v0zM251 507q0 11 8.5 19.5t19.5 8.5q10 0 19 -8.5t9 -20.5q0 -11 -9 -19.5t-19 -8.5q-11 0 -19.5 8.5t-8.5 20.5v0z" />
    <glyph glyph-name="uni0307" unicode="&#x307;" 
d="M63 518q0 11 9 19t21 8q11 0 19.5 -8t8.5 -19q0 -12 -8.5 -20t-19.5 -8q-12 0 -21 8t-9 20z" />
    <glyph glyph-name="gravecomb" unicode="&#x300;" 
d="M-7 614h37l86 -133h-26z" />
    <glyph glyph-name="acutecomb" unicode="&#x301;" 
d="M177 614l-99 -133h-27l88 133h38z" />
    <glyph glyph-name="uni030B" unicode="&#x30b;" 
d="M174 614l-99 -133h-27l88 133h38zM280 613l-99 -133h-27l88 133h38z" />
    <glyph glyph-name="uni0302" unicode="&#x302;" 
d="M334 506l-114 129l17 2l-115 -131h-34l139 156h1l140 -156h-34z" />
    <glyph glyph-name="uni030C" unicode="&#x30c;" 
d="M115 636l114 -130l-17 -2l115 132h35l-140 -155h-1l-140 155h34z" />
    <glyph glyph-name="uni0306" unicode="&#x306;" 
d="M180 495q-36 0 -64.5 20.5t-45.5 57.5t-20 84h26q2 -36 15.5 -67t36.5 -49.5t52 -18.5q30 0 52 18.5t35 49.5t15 67h26q-1 -48 -18.5 -84.5t-45.5 -57t-64 -20.5z" />
    <glyph glyph-name="uni030A" unicode="&#x30a;" 
d="M150 484q0 30 20 50t50 20q31 0 50.5 -20t19.5 -50t-19.5 -49.5t-50.5 -19.5q-30 0 -50 19.5t-20 49.5zM172 484q0 -19 14.5 -33.5t33.5 -14.5t33 14.5t14 33.5q0 20 -14 34t-32 14q-20 0 -34.5 -14t-14.5 -34z" />
    <glyph glyph-name="tildecomb" unicode="&#x303;" 
d="M273 450q-29 0 -47 14.5t-33 31.5q-13 14 -27 26t-33 12q-12 0 -24 -8t-21 -27t-11 -54l-23 1q0 39 11.5 65t29.5 38.5t39 12.5q27 0 44.5 -14.5t32.5 -31.5q13 -15 27.5 -27t34.5 -12t35 19t17 71l23 -1q0 -39 -10 -65t-27 -38.5t-38 -12.5z" />
    <glyph glyph-name="uni0304" unicode="&#x304;" 
d="M76 514h233v-27h-233v27z" />
    <glyph glyph-name="hookabovecomb" unicode="&#x309;" 
d="M138 545q22 19 37 34.5t15 35.5q0 19 -10 30.5t-29 11.5q-18 0 -30 -8.5t-26 -27.5l-17 12q16 25 34.5 37t41.5 12q17 0 30.5 -7t22 -21t8.5 -37q0 -29 -18.5 -48.5t-44.5 -39.5z" />
    <glyph glyph-name="uni030F" unicode="&#x30f;" 
d="M13 614h37l86 -133h-26zM118 614h37l86 -133h-26z" />
    <glyph glyph-name="uni0311" unicode="&#x311;" 
d="M178 662q37 0 65 -20.5t45.5 -57t19.5 -84.5h-25q-2 37 -16 67.5t-36.5 49t-52.5 18.5q-29 0 -51.5 -18.5t-35.5 -49t-14 -67.5h-27q2 48 19 84.5t45.5 57t63.5 20.5z" />
    <glyph glyph-name="uni0312" unicode="&#x312;" 
d="M122 636l18 -14q-28 -20 -39 -53.5t-5 -75.5h-34q-3 27 1 54t18.5 50.5t40.5 38.5z" />
    <glyph glyph-name="uni031B" unicode="&#x31b;" 
d="M86 706q49 0 73.5 21.5t26.5 81.5h28q-2 -55 -18.5 -82.5t-44.5 -36t-65 -8.5v24z" />
    <glyph glyph-name="dotbelowcomb" unicode="&#x323;" 
d="M65 -99q0 11 8.5 19t20.5 8q10 0 18.5 -8t8.5 -19q0 -12 -8.5 -20t-19.5 -8q-10 0 -19 8.5t-9 19.5z" />
    <glyph glyph-name="uni0324" unicode="&#x324;" 
d="M80 -91q0 11 8.5 19.5t19.5 8.5t19.5 -8.5t8.5 -20.5q0 -11 -8.5 -19.5t-19.5 -8.5t-19.5 8.5t-8.5 20.5v0zM251 -91q0 11 8.5 19.5t19.5 8.5q10 0 19 -8.5t9 -20.5q0 -11 -9 -19.5t-19 -8.5q-11 0 -19.5 8.5t-8.5 20.5v0z" />
    <glyph glyph-name="uni0326" unicode="&#x326;" 
d="M74 -187l-17 14q27 20 38 54t6 76h34q2 -26 -2 -54t-18 -51.5t-41 -38.5z" />
    <glyph glyph-name="uni0327" unicode="&#x327;" 
d="M129 -176q11 -11 30 -18.5t45 -7.5q38 0 61.5 15t23.5 43q0 25 -19 42.5t-60 17.5q-16 0 -37.5 -4.5t-33.5 -9.5l-15 19l72 83l26 -7l-67 -83l-16 7q11 7 33.5 12.5t42.5 5.5q50 0 78 -21t28 -61q0 -28 -15.5 -46t-41 -27t-57.5 -9q-29 0 -53 8.5t-39 21.5z" />
    <glyph glyph-name="uni0328" unicode="&#x328;" 
d="M154 -193q-32 0 -56.5 22.5t-24.5 60.5t28.5 70t68.5 51l31 -11q-46 -25 -71.5 -52t-25.5 -56q0 -27 16.5 -42.5t36.5 -15.5t36 13t27 33l17 -17q-11 -23 -33.5 -39.5t-49.5 -16.5z" />
    <glyph glyph-name="uni032E" unicode="&#x32e;" 
d="M180 -199q-36 0 -64.5 20.5t-45.5 57.5t-20 84h26q2 -36 15.5 -67t36.5 -49.5t52 -18.5q30 0 52 18.5t35 49.5t15 67h26q-1 -48 -18.5 -84.5t-45.5 -57t-64 -20.5z" />
    <glyph glyph-name="uni0331" unicode="&#x331;" 
d="M76 -77h233v-27h-233v27z" />
    <glyph glyph-name="uni0335" unicode="&#x335;" 
d="M80 279h236v-32h-236v32z" />
    <glyph glyph-name="uni0308.case" 
d="M80 647q0 11 8.5 19.5t19.5 8.5t19.5 -8.5t8.5 -20.5q0 -11 -8.5 -19.5t-19.5 -8.5t-19.5 8.5t-8.5 20.5v0zM251 647q0 11 8.5 19.5t19.5 8.5q10 0 19 -8.5t9 -20.5q0 -11 -9 -19.5t-19 -8.5q-11 0 -19.5 8.5t-8.5 20.5v0z" />
    <glyph glyph-name="uni0307.case" 
d="M60 654q0 11 9 19t21 8q11 0 19.5 -8t8.5 -19q0 -12 -8.5 -20t-19.5 -8q-12 0 -21 8t-9 20z" />
    <glyph glyph-name="gravecomb.case" 
d="M-7 690h37l86 -133h-26z" />
    <glyph glyph-name="acutecomb.case" 
d="M167 629l-99 -133h-27l88 133h38z" />
    <glyph glyph-name="uni030B.case" 
d="M174 614l-99 -133h-27l88 133h38zM280 613l-99 -133h-27l88 133h38z" />
    <glyph glyph-name="uni0302.case" 
d="M334 506l-114 129l17 2l-115 -131h-34l139 156h1l140 -156h-34z" />
    <glyph glyph-name="uni030C.case" 
d="M120 636l114 -130l-17 -2l115 132h35l-140 -155h-1l-140 155h34z" />
    <glyph glyph-name="uni0306.case" 
d="M180 495q-36 0 -64.5 20.5t-45.5 57.5t-20 84h26q2 -36 15.5 -67t36.5 -49.5t52 -18.5q30 0 52 18.5t35 49.5t15 67h26q-1 -48 -18.5 -84.5t-45.5 -57t-64 -20.5z" />
    <glyph glyph-name="uni030A.case" 
d="M146 552q0 30 20 50t50 20q31 0 50.5 -20t19.5 -50t-19.5 -49.5t-50.5 -19.5q-30 0 -50 19.5t-20 49.5zM168 552q0 -19 14.5 -33.5t33.5 -14.5t33 14.5t14 33.5q0 20 -14 34t-32 14q-20 0 -34.5 -14t-14.5 -34z" />
    <glyph glyph-name="tildecomb.case" 
d="M275 621q-29 0 -46.5 14t-33.5 32q-13 14 -26.5 26t-33.5 12q-11 0 -23.5 -8t-21.5 -27.5t-10 -54.5l-23 2q0 39 11 64.5t29 38.5t39 13q28 0 45.5 -15t31.5 -31q13 -16 27.5 -28t34.5 -12t35 19.5t18 71.5l23 -2q0 -39 -10.5 -65t-27.5 -38t-38 -12z" />
    <glyph glyph-name="uni0304.case" 
d="M80 534h233v-27h-233v27z" />
    <glyph glyph-name="hookabovecomb.case" 
d="M138 545q22 19 37 34.5t15 35.5q0 19 -10 30.5t-29 11.5q-18 0 -30 -8.5t-26 -27.5l-17 12q16 25 34.5 37t41.5 12q17 0 30.5 -7t22 -21t8.5 -37q0 -29 -18.5 -48.5t-44.5 -39.5z" />
    <glyph glyph-name="uni030F.case" 
d="M13 614h37l86 -133h-26zM118 614h37l86 -133h-26z" />
    <glyph glyph-name="uni0311.case" 
d="M254 637q36 0 64.5 -21t46 -57t19.5 -84h-25q-2 37 -16 67.5t-37 49t-52 18.5t-51.5 -18.5t-35.5 -49t-15 -67.5h-26q2 48 19 84t45 57t64 21z" />
    <glyph glyph-name="uni031B.case" 
d="M50 494q50 0 73.5 24.5t25.5 88.5h27q-1 -60 -17.5 -89t-44 -38.5t-64.5 -9.5v24z" />
    <glyph glyph-name="dotbelowcomb.case" 
d="M63 -82q0 11 9 19t21 8q11 0 19.5 -8t8.5 -19q0 -12 -8.5 -20t-19.5 -8q-12 0 -21 8t-9 20z" />
    <glyph glyph-name="uni0324.case" 
d="M80 -89q0 11 8.5 19.5t19.5 8.5t19.5 -8.5t8.5 -20.5q0 -11 -8.5 -19.5t-19.5 -8.5t-19.5 8.5t-8.5 20.5v0zM251 -89q0 11 8.5 19.5t19.5 8.5q10 0 19 -8.5t9 -20.5q0 -11 -9 -19.5t-19 -8.5q-11 0 -19.5 8.5t-8.5 20.5v0z" />
    <glyph glyph-name="uni0326.case" 
d="M74 -187l-17 14q27 20 38 54t6 76h34q2 -26 -2 -54t-18 -51.5t-41 -38.5z" />
    <glyph glyph-name="uni0327.case" 
d="M129 -176q11 -11 30 -18.5t45 -7.5q38 0 61.5 15t23.5 43q0 25 -19 42.5t-60 17.5q-16 0 -37.5 -4.5t-33.5 -9.5l-15 19l72 83l26 -7l-67 -83l-16 7q11 7 33.5 12.5t42.5 5.5q50 0 78 -21t28 -61q0 -28 -15.5 -46t-41 -27t-57.5 -9q-29 0 -53 8.5t-39 21.5z" />
    <glyph glyph-name="uni0328.case" 
d="M154 -193q-32 0 -56.5 22.5t-24.5 60.5t28.5 70t68.5 51l31 -11q-46 -25 -71.5 -52t-25.5 -56q0 -27 16.5 -42.5t36.5 -15.5t36 13t27 33l17 -17q-11 -23 -33.5 -39.5t-49.5 -16.5z" />
    <glyph glyph-name="uni032E.case" 
d="M180 -195q-36 0 -64.5 20.5t-45.5 57.5t-20 84h26q2 -36 15.5 -67t36.5 -49.5t52 -18.5q30 0 52 18.5t35 49.5t15 67h26q-1 -48 -18.5 -84.5t-45.5 -57t-64 -20.5z" />
    <glyph glyph-name="uni0331.case" 
d="M76 -96h233v-27h-233v27z" />
    <glyph glyph-name="uni02BC" unicode="&#x2bc;" horiz-adv-x="184" 
d="M138 578q-22 -52 -43 -103.5t-43 -104.5h-30q20 53 39 104.5t38 103.5h39z" />
    <glyph glyph-name="uni02C9" unicode="&#x2c9;" horiz-adv-x="388" 
d="M76 531h233v-27h-233v27z" />
    <glyph glyph-name="acute" unicode="&#xb4;" horiz-adv-x="223" 
d="M175 614l-99 -133h-27l88 133h38z" />
    <glyph glyph-name="breve" unicode="&#x2d8;" horiz-adv-x="358" 
d="M180 495q-36 0 -64.5 20.5t-45.5 57.5t-20 84h26q2 -36 15.5 -67t36.5 -49.5t52 -18.5q30 0 52 18.5t35 49.5t15 67h26q-1 -48 -18.5 -84.5t-45.5 -57t-64 -20.5z" />
    <glyph glyph-name="caron" unicode="&#x2c7;" horiz-adv-x="438" 
d="M120 636l114 -130l-17 -2l115 132h35l-140 -155h-1l-140 155h34z" />
    <glyph glyph-name="cedilla" unicode="&#xb8;" horiz-adv-x="440" 
d="M137 -176q11 -11 30 -18.5t45 -7.5q38 0 61.5 15t23.5 43q0 25 -19 42.5t-60 17.5q-16 0 -37.5 -4.5t-33.5 -9.5l-15 19l72 83l26 -7l-67 -83l-16 7q11 7 33.5 12.5t42.5 5.5q50 0 78 -21t28 -61q0 -28 -15.5 -46t-41 -27t-57.5 -9q-29 0 -53 8.5t-39 21.5z" />
    <glyph glyph-name="circumflex" unicode="&#x2c6;" horiz-adv-x="443" 
d="M334 506l-114 129l17 2l-115 -131h-34l139 156h1l140 -156h-34z" />
    <glyph glyph-name="dieresis" unicode="&#xa8;" horiz-adv-x="381" 
d="M77 507q0 11 8.5 19.5t19.5 8.5t19.5 -8.5t8.5 -20.5q0 -11 -8.5 -19.5t-19.5 -8.5t-19.5 8.5t-8.5 20.5v0zM248 507q0 11 8.5 19.5t19.5 8.5q10 0 19 -8.5t9 -20.5q0 -11 -9 -19.5t-19 -8.5q-11 0 -19.5 8.5t-8.5 20.5v0z" />
    <glyph glyph-name="dotaccent" unicode="&#x2d9;" horiz-adv-x="193" 
d="M63 518q0 11 9 19t21 8q11 0 19.5 -8t8.5 -19q0 -12 -8.5 -20t-19.5 -8q-12 0 -21 8t-9 20z" />
    <glyph glyph-name="grave" unicode="`" horiz-adv-x="218" 
d="M-7 614h37l86 -133h-26z" />
    <glyph glyph-name="hungarumlaut" unicode="&#x2dd;" horiz-adv-x="330" 
d="M175 614l-99 -133h-27l88 133h38zM281 613l-99 -133h-27l88 133h38z" />
    <glyph glyph-name="macron" unicode="&#xaf;" horiz-adv-x="392" 
d="M80 514h233v-27h-233v27z" />
    <glyph glyph-name="ogonek" unicode="&#x2db;" horiz-adv-x="284" 
d="M150 -193q-32 0 -56.5 22.5t-24.5 60.5t28.5 70t68.5 51l31 -11q-46 -25 -71.5 -52t-25.5 -56q0 -27 16.5 -42.5t36.5 -15.5t36 13t27 33l17 -17q-11 -23 -33.5 -39.5t-49.5 -16.5z" />
    <glyph glyph-name="ring" unicode="&#x2da;" horiz-adv-x="402" 
d="M146 484q0 30 20 50t50 20q31 0 50.5 -20t19.5 -50t-19.5 -49.5t-50.5 -19.5q-30 0 -50 19.5t-20 49.5zM168 484q0 -19 14.5 -33.5t33.5 -14.5t33 14.5t14 33.5q0 20 -14 34t-32 14q-20 0 -34.5 -14t-14.5 -34z" />
    <glyph glyph-name="tilde" unicode="&#x2dc;" horiz-adv-x="400" 
d="M274 449q-29 0 -47.5 15t-34.5 32q-13 15 -27 27.5t-35 12.5q-11 0 -24 -8.5t-22 -28.5t-11 -55l-24 1q0 40 11.5 66.5t30.5 40t40 13.5q29 0 46.5 -15.5t32.5 -32.5q14 -16 29 -28t35 -12q14 0 25.5 8.5t19 29t9.5 55.5l24 -1q0 -41 -10.5 -67.5t-28 -39.5t-39.5 -13z
" />
    <glyph glyph-name="uni03060301" 
d="M180 495q-36 0 -64.5 20.5t-45.5 57.5t-20 84h26q2 -36 15.5 -67t36.5 -49.5t52 -18.5q30 0 52 18.5t35 49.5t15 67h26q-1 -48 -18.5 -84.5t-45.5 -57t-64 -20.5zM250 807l-99 -133h-27l88 133h38z" />
    <glyph glyph-name="uni03060300" 
d="M180 495q-36 0 -64.5 20.5t-45.5 57.5t-20 84h26q2 -36 15.5 -67t36.5 -49.5t52 -18.5q30 0 52 18.5t35 49.5t15 67h26q-1 -48 -18.5 -84.5t-45.5 -57t-64 -20.5zM68 800h37l86 -133h-26z" />
    <glyph glyph-name="uni03060309" 
d="M180 495q-36 0 -64.5 20.5t-45.5 57.5t-20 84h26q2 -36 15.5 -67t36.5 -49.5t52 -18.5q30 0 52 18.5t35 49.5t15 67h26q-1 -48 -18.5 -84.5t-45.5 -57t-64 -20.5zM172 657q22 19 37 34.5t15 35.5q0 19 -10 30.5t-29 11.5q-18 0 -30 -8.5t-26 -27.5l-17 12q16 25 34.5 37
t41.5 12q17 0 30.5 -7t22 -21t8.5 -37q0 -29 -18.5 -48.5t-44.5 -39.5z" />
    <glyph glyph-name="uni03060303" 
d="M195 495q-36 0 -64.5 20.5t-45.5 57.5t-20 84h26q2 -36 15.5 -67t36.5 -49.5t52 -18.5q30 0 52 18.5t35 49.5t15 67h26q-1 -48 -18.5 -84.5t-45.5 -57t-64 -20.5zM278 696q-29 0 -47 14.5t-33 31.5q-13 14 -27 26t-33 12q-12 0 -24 -8t-21 -27t-11 -54l-23 1
q0 39 11.5 65t29.5 38.5t39 12.5q27 0 44.5 -14.5t32.5 -31.5q13 -15 27.5 -27t34.5 -12t35 19t17 71l23 -1q0 -39 -10 -65t-27 -38.5t-38 -12.5z" />
    <glyph glyph-name="uni03020301" 
d="M334 469l-114 129l17 2l-115 -131h-34l139 156h1l140 -156h-34zM447 689l-99 -133h-27l88 133h38z" />
    <glyph glyph-name="uni03020300" 
d="M379 463l-114 129l17 2l-115 -131h-34l139 156h1l140 -156h-34zM38 698h37l86 -133h-26z" />
    </font>
</defs>
</svg>
